SplineFontDB: 3.2
FontName: Vahid
FullName: Vahid Regular
FamilyName: Vahid
Weight: Regular
Copyright: Copyright 2015-2025 The Aref Ruqaa Project Authors (https://github.com/alif-type/aref-ruqaa), with Reserved Font Name EURM10.
Version: 1.003
ItalicAngle: 0
UnderlinePosition: -49
UnderlineWidth: 73
Ascent: 800
Descent: 200
InvalidEm: 0
sfntRevision: 0x000100c5
LayerCount: 2
Layer: 0 0 "Back" 1
Layer: 1 0 "Fore" 0
XUID: [1021 569 -1486673895 13008899]
StyleMap: 0x0040
FSType: 0
OS2Version: 4
OS2_WeightWidthSlopeOnly: 0
OS2_UseTypoMetrics: 1
CreationTime: 0
ModificationTime: 1757541447
PfmFamily: 17
TTFWeight: 400
TTFWidth: 5
LineGap: 98
VLineGap: 0
Panose: 2 0 5 3 0 0 0 0 0 0
OS2TypoAscent: 1221
OS2TypoAOffset: 0
OS2TypoDescent: -244
OS2TypoDOffset: 0
OS2TypoLinegap: 98
OS2WinAscent: 1221
OS2WinAOffset: 0
OS2WinDescent: 439
OS2WinDOffset: 0
HheadAscent: 1221
HheadAOffset: 0
HheadDescent: -244
HheadDOffset: 0
OS2SubXSize: 650
OS2SubYSize: 700
OS2SubXOff: 47
OS2SubYOff: 140
OS2SupXSize: 650
OS2SupYSize: 700
OS2SupXOff: -164
OS2SupYOff: 480
OS2StrikeYSize: 49
OS2StrikeYPos: 258
OS2CapHeight: 683
OS2XHeight: 462
OS2Vendor: 'ALIF'
OS2CodePages: 00000041.00000000
OS2UnicodeRanges: 8000206f.8000004b.00000000.00000000
Lookup: 2 0 0 "'ccmp' Glyph Composition/Decomposition in Arabic lookup 0" { "'ccmp' Glyph Composition/Decomposition in Arabic lookup 0 subtable"  } ['ccmp' ('arab' <'KSH ' 'MLY ' 'SND ' 'URD ' 'dflt' > ) ]
Lookup: 2 0 0 "'isol' Isolated Forms in Arabic lookup 1" { "'isol' Isolated Forms in Arabic lookup 1 subtable"  } ['isol' ('arab' <'KSH ' 'MLY ' 'SND ' 'URD ' 'dflt' > ) ]
Lookup: 2 0 0 "'init' Initial Forms in Arabic lookup 2" { "'init' Initial Forms in Arabic lookup 2 subtable"  } ['init' ('arab' <'KSH ' 'MLY ' 'SND ' 'URD ' 'dflt' > ) ]
Lookup: 2 0 0 "'medi' Medial Forms in Arabic lookup 3" { "'medi' Medial Forms in Arabic lookup 3 subtable"  } ['medi' ('arab' <'KSH ' 'MLY ' 'SND ' 'URD ' 'dflt' > ) ]

StartChar: .notdef
Encoding: 65536 -1 0
Width: 500
GlyphClass: 1
Flags: W
LayerCount: 2
Fore
SplineSet
50 -200 m 1
 50 800 l 1
 450 800 l 1
 450 -200 l 1
 50 -200 l 1
100 -150 m 1
 400 -150 l 1
 400 750 l 1
 100 750 l 1
 100 -150 l 1
EndSplineSet
Validated: 1
PairPos2: "'kern' Horizontal Kerning in Arabic lookup 14 subtable" uni062D dx=-195 dy=0 dh=-195 dv=0 dx=0 dy=0 dh=0 dv=0
EndChar

StartChar: exclam
Encoding: 33 33 1
Width: 253
GlyphClass: 2
Flags: W
LayerCount: 2
Fore
SplineSet
203 464 m 0
 203 460 203.166015625 452.666992188 203.499023438 442 c 0
 203.83203125 431.333007812 203.999023438 417.833007812 203.999023438 401.5 c 0
 203.999023438 385.166992188 200.166015625 360.333984375 192.499023438 327.000976562 c 0
 184.83203125 293.66796875 173.665039062 264.000976562 158.998046875 238.000976562 c 0
 155.665039062 232.000976562 151.998046875 224.66796875 147.998046875 216.000976562 c 0
 143.998046875 207.333984375 138.998046875 200.333984375 132.998046875 195.000976562 c 0
 126.998046875 189.000976562 123.998046875 188.66796875 123.998046875 194.000976562 c 2
 123.998046875 202.000976562 l 1
 130.665039062 242.000976562 133.998046875 270.000976562 133.998046875 286.000976562 c 2
 133.998046875 315.000976562 l 2
 132.665039062 384.333984375 122.665039062 446.666992188 103.998046875 502 c 0
 80.6650390625 572 59.33203125 622 39.9990234375 652 c 0
 30.666015625 666.666992188 25.9990234375 676.666992188 25.9990234375 682 c 2
 25.9990234375 684 l 2
 25.9990234375 686.666992188 35.9990234375 710 55.9990234375 754 c 0
 65.9990234375 776.666992188 75.9990234375 800 85.9990234375 824 c 1
 102.666015625 788.666992188 119.333007812 753 136 717 c 0
 152.666992188 681 168 639.5 182 592.5 c 0
 196 545.5 203 502.666992188 203 464 c 0
48.9990234375 85 m 2
 137.998046875 177 l 2
 140.665039062 181 144.665039062 181 149.998046875 177 c 2
 222.998046875 107 l 2
 226.998046875 104.333007812 226.998046875 100.333007812 222.998046875 95 c 2
 134.998046875 3 l 2
 131.665039062 -1 127.33203125 -1 121.999023438 3 c 2
 49.9990234375 73 l 2
 45.9990234375 76.3330078125 45.666015625 80.3330078125 48.9990234375 85 c 2
EndSplineSet
Validated: 1
Substitution2: "'locl' Localized Forms in Latin lookup 85 subtable" exclam.locl
PairPos2: "'kern' Horizontal Kerning in Arabic lookup 14 subtable" uni062D dx=-195 dy=0 dh=-195 dv=0 dx=0 dy=0 dh=0 dv=0
EndChar

StartChar: quotedbl
Encoding: 34 34 2
Width: 333
GlyphClass: 1
Flags: W
LayerCount: 2
Fore
SplineSet
72 657 m 0
 72 682.333007812 83.1669921875 695 105.5 695 c 0
 127.833007812 695 139 688.333007812 139 675 c 2
 139 623 l 1
 118 432 l 1
 97 432 l 1
 77 584 l 2
 73.6669921875 614 72 638.333007812 72 657 c 0
191 668 m 0
 191 684 204 692.000976562 230 692.000976562 c 0
 235.333007812 692.000976562 241.5 690.500976562 248.5 687.500976562 c 0
 255.5 684.500976562 259 679.333984375 259 672.000976562 c 2
 259 654.000976562 l 2
 259 642.000976562 258.666992188 632.66796875 258 626.000976562 c 2
 239 432.000976562 l 1
 218 432.000976562 l 1
 196 625.000976562 l 2
 195.333007812 632.333984375 194.333007812 640.666992188 193 650 c 0
 191.666992188 659.333007812 191 665.333007812 191 668 c 0
EndSplineSet
Validated: 1
PairPos2: "'kern' Horizontal Kerning in Arabic lookup 14 subtable" uni062D dx=-195 dy=0 dh=-195 dv=0 dx=0 dy=0 dh=0 dv=0
EndChar

StartChar: numbersign
Encoding: 35 35 3
Width: 715
GlyphClass: 1
Flags: W
LayerCount: 2
Fore
SplineSet
6 249 m 1
 14 259 l 1
 192 259 l 1
 251 468 l 1
 81 468 l 1
 75 478 l 1
 71 499 l 1
 79 509 l 1
 262 509 l 1
 316 704 l 1
 327 707 l 1
 349 705 l 1
 356 695 l 1
 304 509 l 1
 511 509 l 1
 565 704 l 1
 576 707 l 1
 598 705 l 1
 605 695 l 1
 553 509 l 1
 702 509 l 1
 708 476 l 1
 696 468 l 1
 542 468 l 1
 484 259 l 1
 642 259 l 1
 648 226 l 1
 636 218 l 1
 472 218 l 1
 413 6 l 1
 380 9 l 1
 376 23 l 1
 430 218 l 1
 223 218 l 1
 164 6 l 1
 131 9 l 1
 127 23 l 1
 181 218 l 1
 16 218 l 1
 10 228 l 1
 6 249 l 1
235 259 m 1
 441 259 l 1
 500 468 l 1
 293 468 l 1
 235 259 l 1
EndSplineSet
Validated: 1
PairPos2: "'kern' Horizontal Kerning in Arabic lookup 14 subtable" uni062D dx=-195 dy=0 dh=-195 dv=0 dx=0 dy=0 dh=0 dv=0
EndChar

StartChar: dollar
Encoding: 36 36 4
Width: 476
GlyphClass: 1
Flags: W
LayerCount: 2
Fore
SplineSet
268 -99 m 1
 227.998046875 -107.001953125 l 1
 227.998046875 6.998046875 l 1
 212.665039062 4.3310546875 197.33203125 2.998046875 181.999023438 2.998046875 c 0
 149.33203125 2.998046875 118.33203125 10.498046875 88.9990234375 25.498046875 c 0
 59.666015625 40.498046875 38.3330078125 65.3310546875 25 99.998046875 c 1
 80 162.998046875 l 1
 96 161.998046875 l 1
 106 129.331054688 121.166992188 101.998046875 141.5 79.998046875 c 0
 161.833007812 57.998046875 188.666015625 46.998046875 221.999023438 46.998046875 c 2
 227.999023438 46.998046875 l 1
 227.999023438 321.998046875 l 1
 175.33203125 345.331054688 135.665039062 370.331054688 108.998046875 396.998046875 c 0
 82.3310546875 423.665039062 68.998046875 456.665039062 68.998046875 495.998046875 c 0
 68.96875 497.708007812 68.9541015625 499.404296875 68.9541015625 501.086914062 c 0
 68.9541015625 538.100585938 75.96875 568.404296875 89.998046875 591.998046875 c 0
 117.998046875 639.998046875 163.998046875 669.331054688 227.998046875 679.998046875 c 1
 227.998046875 789.998046875 l 1
 267.998046875 797.998046875 l 1
 267.998046875 683.998046875 l 1
 286.998046875 683.998046875 l 2
 299.665039062 683.998046875 315.998046875 681.998046875 335.998046875 677.998046875 c 0
 379.998046875 668.665039062 414.331054688 640.33203125 438.998046875 592.999023438 c 1
 378.998046875 539.999023438 l 1
 365.998046875 542.999023438 l 1
 358.665039062 571.666015625 347.33203125 595.499023438 331.999023438 614.499023438 c 0
 316.666015625 633.499023438 295.333007812 644.666015625 268 647.999023438 c 1
 268 396.999023438 l 1
 274.666992188 393.666015625 282 390.333007812 290 387 c 0
 340 365 377.833007812 340.5 403.5 313.5 c 0
 429.166992188 286.5 442 255.5 442 220.5 c 0
 442 185.5 434 154.666992188 418 128 c 0
 386.666992188 76 336.666992188 39 268 17 c 1
 268 -99 l 1
167.998046875 607.998046875 m 0
 152.665039062 587.998046875 144.998046875 564.665039062 144.998046875 537.998046875 c 0
 144.998046875 493.331054688 172.665039062 453.331054688 227.998046875 417.998046875 c 1
 227.998046875 646.998046875 l 1
 203.331054688 640.998046875 183.331054688 627.998046875 167.998046875 607.998046875 c 0
332.498046875 103.998046875 m 0
 349.498046875 127.331054688 357.998046875 152.499023438 357.998046875 179.499023438 c 0
 357.998046875 206.499023438 348.998046875 230.33203125 330.998046875 250.999023438 c 0
 312.998046875 271.666015625 291.998046875 288.666015625 267.998046875 301.999023438 c 1
 267.998046875 54.9990234375 l 1
 293.998046875 64.33203125 315.498046875 80.6650390625 332.498046875 103.998046875 c 0
EndSplineSet
Validated: 1
PairPos2: "'kern' Horizontal Kerning in Arabic lookup 14 subtable" uni062D dx=-195 dy=0 dh=-195 dv=0 dx=0 dy=0 dh=0 dv=0
EndChar

StartChar: percent
Encoding: 37 37 5
Width: 827
GlyphClass: 1
Flags: W
LayerCount: 2
Fore
SplineSet
228 795 m 1
 253.333007812 788.333007812 277.333007812 777 300 761 c 0
 322.666992188 745 341.166992188 725.833007812 355.5 703.5 c 0
 369.833007812 681.166992188 377 658 377 634 c 0
 377 610 371.666992188 586.666992188 361 564 c 0
 349.666992188 541.333007812 335.333984375 521 318.000976562 503 c 0
 278.66796875 461.666992188 236.66796875 441 192.000976562 441 c 0
 162.66796875 441 138.16796875 448.333007812 118.500976562 463 c 0
 98.833984375 477.666992188 84.1669921875 496.5 74.5 519.5 c 0
 64.8330078125 542.5 60 567.333007812 60 594 c 0
 60 622 68 648.666992188 84 674 c 0
 114.666992188 722 162.666992188 762.333007812 228 795 c 1
723 766 m 1
 724 753 l 1
 103 -1 l 1
 75 17 l 1
 76 31 l 1
 692 777 l 1
 703 777 l 1
 723 766 l 1
234 487 m 0
 291.333007812 487 320 524 320 598 c 0
 320 622 314 644.666992188 302 666 c 0
 290 687.333007812 273.5 705 252.5 719 c 0
 231.5 733 206.666992188 741 178 743 c 1
 138.666992188 721 119 681.333007812 119 624 c 0
 119 603.333007812 123.5 582.333007812 132.5 561 c 0
 141.5 539.666992188 154.5 522 171.5 508 c 0
 188.5 494 209.333007812 487 234 487 c 0
624 342 m 1
 649.333007812 335.333007812 673.333007812 324.000976562 696 308.000976562 c 0
 718.666992188 292.000976562 737.166992188 272.833984375 751.5 250.500976562 c 0
 765.833007812 228.16796875 773 205.000976562 773 181.000976562 c 0
 773 157.66796875 767.666992188 134.66796875 757 112.000976562 c 0
 745.666992188 89.333984375 731.333984375 68.6669921875 714.000976562 50 c 0
 674.66796875 8.6669921875 632.66796875 -12 588.000976562 -12 c 0
 558.66796875 -12 534.16796875 -4.6669921875 514.500976562 10 c 0
 494.833984375 24.6669921875 480.166992188 43.5 470.5 66.5 c 0
 460.833007812 89.5 456 114.5 456 141.5 c 0
 456 168.5 464 194.666992188 480 220 c 0
 510.666992188 268 558.666992188 308.666992188 624 342 c 1
630 34.0009765625 m 0
 687.333007812 34.0009765625 716 71.0009765625 716 145.000976562 c 0
 716 169.000976562 710 191.66796875 698 213.000976562 c 0
 686 234.333984375 669.5 252.000976562 648.5 266.000976562 c 0
 627.5 280.000976562 602.666992188 288.000976562 574 290.000976562 c 1
 534.666992188 268.000976562 515 228.333984375 515 171.000976562 c 0
 515 150.333984375 519.5 129.333984375 528.5 108.000976562 c 0
 537.5 86.66796875 550.5 69.0009765625 567.5 55.0009765625 c 0
 584.5 41.0009765625 605.333007812 34.0009765625 630 34.0009765625 c 0
EndSplineSet
Validated: 1
PairPos2: "'kern' Horizontal Kerning in Arabic lookup 14 subtable" uni062D dx=-195 dy=0 dh=-195 dv=0 dx=0 dy=0 dh=0 dv=0
EndChar

StartChar: ampersand
Encoding: 38 38 6
Width: 738
GlyphClass: 1
Flags: W
LayerCount: 2
Fore
SplineSet
428 359 m 0
 417.333007812 360.333007812 404.66796875 361.000976562 390.000976562 361.000976562 c 0
 375.333984375 361.000976562 354.000976562 359.333984375 326.000976562 356.000976562 c 1
 328.000976562 399.000976562 l 1
 369.333984375 397.000976562 417.333984375 396.000976562 472.000976562 396.000976562 c 2
 556.000976562 396.000976562 l 2
 612.000976562 396.000976562 654.66796875 397.000976562 684.000976562 399.000976562 c 1
 681.000976562 351.000976562 l 1
 652.333984375 355.66796875 603.333984375 358.000976562 534.000976562 358.000976562 c 1
 540.000976562 334.000976562 543.000976562 313.000976562 543.000976562 295.000976562 c 0
 543.000976562 238.333984375 518.333984375 178.333984375 469.000976562 115.000976562 c 1
 486.333984375 97.66796875 503.666992188 83.0009765625 521 71.0009765625 c 0
 538.333007812 59.0009765625 558 53.0009765625 580 53.0009765625 c 0
 602.666992188 53.66796875 621.333984375 60.66796875 636.000976562 74.0009765625 c 0
 662.66796875 98.66796875 681.66796875 137.000976562 693.000976562 189.000976562 c 1
 714.000976562 184.000976562 l 1
 698.000976562 94.66796875 665.333984375 35.3349609375 616.000976562 6.001953125 c 0
 597.685546875 -5.3662109375 576.377929688 -11.05078125 552.079101562 -11.05078125 c 0
 550.729492188 -11.05078125 549.370117188 -11.033203125 548.001953125 -10.998046875 c 0
 500.668945312 -10.998046875 456.668945312 8.6689453125 416.001953125 48.001953125 c 1
 411.001953125 52.001953125 l 1
 361.001953125 12.001953125 310.001953125 -7.998046875 258.001953125 -7.998046875 c 0
 183.334960938 -7.998046875 127.66796875 10.3349609375 91.0009765625 47.001953125 c 0
 71.66796875 66.3349609375 56.5009765625 89.001953125 45.5009765625 115.001953125 c 0
 34.5009765625 141.001953125 29.0009765625 168.501953125 29.0009765625 197.501953125 c 0
 29.0009765625 226.501953125 34.5009765625 251.834960938 45.5009765625 273.501953125 c 0
 56.5009765625 295.168945312 73.66796875 315.501953125 97.0009765625 334.501953125 c 0
 120.333984375 353.501953125 150.333984375 374.334960938 187.000976562 397.001953125 c 1
 169.66796875 439.001953125 161.000976562 477.668945312 161.000976562 513.001953125 c 0
 161.000976562 548.334960938 167.500976562 579.501953125 180.500976562 606.501953125 c 0
 193.500976562 633.501953125 212.16796875 655.501953125 236.500976562 672.501953125 c 0
 260.833984375 689.501953125 290.000976562 698.001953125 324.000976562 698.001953125 c 0
 340.000976562 698.001953125 356.000976562 694.001953125 372.000976562 686.001953125 c 0
 408.000976562 668.668945312 426.000976562 642.001953125 426.000976562 606.001953125 c 0
 426.000976562 560.668945312 410.333984375 523.668945312 379.000976562 495.001953125 c 0
 361.000976562 478.334960938 337.833984375 461.66796875 309.500976562 445.000976562 c 0
 281.16796875 428.333984375 264.000976562 418.666992188 258.000976562 416 c 1
 305.333984375 311.333007812 370.666992188 216.333007812 454 131 c 1
 479.333007812 167.666992188 492 212.666992188 492 266 c 0
 492 294.666992188 480 321 456 345 c 0
 448 353 438.666992188 357.666992188 428 359 c 0
250.001953125 435.000976562 m 1
 278.001953125 452.333984375 299.500976562 468 314.500976562 482 c 0
 329.500976562 496 339.833984375 510.833007812 345.500976562 526.5 c 0
 351.16796875 542.166992188 354.000976562 558.333984375 354.000976562 575.000976562 c 0
 354.000976562 591.66796875 350.66796875 606.16796875 344.000976562 618.500976562 c 0
 337.333984375 630.833984375 328.833984375 641.333984375 318.500976562 650.000976562 c 0
 308.16796875 658.66796875 295.334960938 663.000976562 280.001953125 663.000976562 c 0
 265.334960938 662.333984375 253.334960938 656.666992188 244.001953125 646 c 0
 229.334960938 628.666992188 222.001953125 599.666992188 222.001953125 559 c 0
 222.001953125 519.666992188 231.334960938 478.333984375 250.001953125 435.000976562 c 1
396.000976562 68 m 1
 308.66796875 165.333007812 242.000976562 268.000976562 196.000976562 376.000976562 c 1
 162.000976562 353.333984375 138.66796875 329.166992188 126.000976562 303.5 c 0
 113.333984375 277.833007812 107.000976562 249.5 107.000976562 218.5 c 0
 107.000976562 187.5 114.000976562 157.666992188 128.000976562 129 c 0
 142.000976562 100.333007812 161.500976562 76.8330078125 186.500976562 58.5 c 0
 211.500976562 40.1669921875 240.333984375 31 273.000976562 31 c 0
 324.333984375 31 365.333984375 43.3330078125 396.000976562 68 c 1
EndSplineSet
Validated: 1
PairPos2: "'kern' Horizontal Kerning in Arabic lookup 14 subtable" uni062D dx=-195 dy=0 dh=-195 dv=0 dx=0 dy=0 dh=0 dv=0
EndChar

StartChar: quotesingle
Encoding: 39 39 7
Width: 210
GlyphClass: 1
Flags: W
LayerCount: 2
Fore
SplineSet
110 695 m 0
 130 695 140.000976562 683.999023438 140.000976562 661.999023438 c 0
 140.000976562 648.666015625 138.66796875 635.333007812 136.000976562 622 c 2
 110.000976562 436 l 1
 94.0009765625 436 l 1
 76.0009765625 629 l 2
 74.66796875 641 74.0009765625 652.5 74.0009765625 663.5 c 0
 74.0009765625 674.5 77.66796875 682.5 85.0009765625 687.5 c 0
 92.333984375 692.5 100.666992188 695 110 695 c 0
EndSplineSet
Validated: 1
PairPos2: "'kern' Horizontal Kerning in Arabic lookup 14 subtable" uni062D dx=-195 dy=0 dh=-195 dv=0 dx=0 dy=0 dh=0 dv=0
EndChar

StartChar: parenleft
Encoding: 40 40 8
Width: 257
GlyphClass: 1
Flags: W
LayerCount: 2
Fore
SplineSet
246 -163 m 1
 246 -186.999023438 l 1
 178 -181.666015625 127.666992188 -131.333007812 95 -36 c 0
 70.3330078125 36 58 141.333007812 58 280 c 0
 58 365.333007812 63 433 73 483 c 0
 83 533 94.6669921875 574.666992188 108 608 c 0
 138 684 184 727.333007812 246 738 c 1
 246 711 l 1
 164 690.333007812 119.333007812 578 112 374 c 0
 110.666992188 338 110 303.833007812 110 271.5 c 0
 110 239.166992188 110.666992188 204.166992188 112 166.5 c 0
 113.333007812 128.833007812 116.333007812 91.3330078125 121 54 c 0
 125.666992188 16.6669921875 132.666992188 -17.3330078125 142 -48 c 0
 163.333007812 -114.666992188 198 -153 246 -163 c 1
EndSplineSet
Validated: 1
PairPos2: "'kern' Horizontal Kerning in Arabic lookup 14 subtable" uni062D dx=-195 dy=0 dh=-195 dv=0 dx=0 dy=0 dh=0 dv=0
EndChar

StartChar: parenright
Encoding: 41 41 9
Width: 259
GlyphClass: 1
Flags: W
LayerCount: 2
Fore
SplineSet
11 736 m 1
 137.666992188 711.333007812 200.999023438 556.666992188 200.999023438 272 c 0
 201.013671875 268.780273438 201.020507812 265.578125 201.020507812 262.393554688 c 0
 201.020507812 115.890625 186.013671875 6.4267578125 155.999023438 -65.9990234375 c 0
 125.999023438 -139.33203125 77.666015625 -180.33203125 10.9990234375 -188.999023438 c 1
 10.9990234375 -164.999023438 l 1
 34.33203125 -158.999023438 54.9990234375 -148.666015625 72.9990234375 -133.999023438 c 0
 90.9990234375 -119.33203125 104.999023438 -96.9990234375 114.999023438 -66.9990234375 c 0
 132.999023438 -13.666015625 143.166015625 42.6669921875 145.499023438 102 c 0
 147.83203125 161.333007812 148.999023438 215 148.999023438 263 c 0
 148.999023438 458.333007812 124.33203125 591.333007812 74.9990234375 662 c 0
 59.666015625 684 38.3330078125 699.666992188 11 709 c 1
 11 736 l 1
EndSplineSet
Validated: 1
PairPos2: "'kern' Horizontal Kerning in Arabic lookup 14 subtable" uni062D dx=-195 dy=0 dh=-195 dv=0 dx=0 dy=0 dh=0 dv=0
EndChar

StartChar: asterisk
Encoding: 42 42 10
Width: 301
GlyphClass: 1
Flags: W
LayerCount: 2
Fore
SplineSet
164 552 m 1
 166 508 169.66796875 473.334960938 175.000976562 448.001953125 c 1
 135.000976562 448.001953125 l 1
 139.66796875 474.001953125 142.66796875 511.001953125 144.000976562 559.001953125 c 1
 111.333984375 533.001953125 85.6669921875 509.001953125 67 487.001953125 c 1
 46 522.001953125 l 1
 69.3330078125 534.001953125 98.3330078125 551.668945312 133 575.001953125 c 1
 105 595.001953125 76.6669921875 612.334960938 48 627.001953125 c 1
 75 655.001953125 l 1
 104.333007812 627.668945312 127 608.001953125 143 596.001953125 c 1
 143 638.001953125 140.333007812 670.001953125 135 692.001953125 c 1
 175 692.001953125 l 1
 171 673.334960938 167.333007812 641.66796875 164 597.000976562 c 1
 189.333007812 617.000976562 212 637.66796875 232 659.000976562 c 1
 257 628.000976562 l 1
 229 615.333984375 199.666992188 598.000976562 169 576.000976562 c 1
 205 549.333984375 234.333007812 530.666992188 257 520 c 1
 231 491 l 1
 213 511 190.666992188 531.333007812 164 552 c 1
EndSplineSet
Validated: 1
PairPos2: "'kern' Horizontal Kerning in Arabic lookup 14 subtable" uni062D dx=-195 dy=0 dh=-195 dv=0 dx=0 dy=0 dh=0 dv=0
EndChar

StartChar: plus
Encoding: 43 43 11
Width: 747
GlyphClass: 1
Flags: W
LayerCount: 2
Fore
SplineSet
392 276 m 1
 705 276 l 1
 700 236 l 1
 392 236 l 1
 392 -67 l 1
 352 -74 l 1
 352 236 l 1
 42 236 l 1
 49 276 l 1
 352 276 l 1
 352 580 l 1
 392 586 l 1
 392 276 l 1
EndSplineSet
Validated: 1
PairPos2: "'kern' Horizontal Kerning in Arabic lookup 14 subtable" uni062D dx=-195 dy=0 dh=-195 dv=0 dx=0 dy=0 dh=0 dv=0
EndChar

StartChar: comma
Encoding: 44 44 12
Width: 233
GlyphClass: 1
Flags: W
LayerCount: 2
Fore
SplineSet
77 -210 m 1
 58.0009765625 -195.997070312 l 1
 75.333984375 -172.6640625 90.6669921875 -149.331054688 104 -125.998046875 c 0
 117.333007812 -101.998046875 124 -83.3310546875 124 -69.998046875 c 0
 124 -45.3310546875 119.666992188 -28.3310546875 111 -18.998046875 c 2
 41 64.001953125 l 2
 36.3330078125 70.001953125 34 79.1689453125 34 91.501953125 c 0
 34 103.834960938 40.6669921875 114.66796875 54 124.000976562 c 0
 67.3330078125 133.333984375 80.5 138.000976562 93.5 138.000976562 c 0
 106.5 138.000976562 118.333007812 131.333984375 129 118.000976562 c 0
 139 103.333984375 148 86.6669921875 156 68 c 0
 172.33984375 26.4697265625 180.509765625 -6.1533203125 180.509765625 -29.8681640625 c 0
 180.509765625 -53.1611328125 172.172851562 -78.5380859375 155.5 -106 c 0
 138.5 -134 112.333007812 -168.666992188 77 -210 c 1
EndSplineSet
Validated: 1
PairPos2: "'kern' Horizontal Kerning in Arabic lookup 14 subtable" uni062D dx=-195 dy=0 dh=-195 dv=0 dx=0 dy=0 dh=0 dv=0
EndChar

StartChar: hyphen
Encoding: 45 45 13
Width: 353
GlyphClass: 1
Flags: W
LayerCount: 2
Fore
SplineSet
291 236 m 1
 55 236 l 1
 62 276 l 1
 297 276 l 1
 291 236 l 1
EndSplineSet
Validated: 1
PairPos2: "'kern' Horizontal Kerning in Arabic lookup 14 subtable" uni062D dx=-195 dy=0 dh=-195 dv=0 dx=0 dy=0 dh=0 dv=0
EndChar

StartChar: period
Encoding: 46 46 14
Width: 272
GlyphClass: 1
Flags: W
LayerCount: 2
Fore
SplineSet
69 52 m 0
 69 70.6669921875 75.5 86.5 88.5 99.5 c 0
 101.5 112.5 117.333007812 119 136 119 c 0
 154.666992188 119 170.5 112.5 183.5 99.5 c 0
 196.5 86.5 203 70.6669921875 203 52 c 0
 203 33.3330078125 196.5 17.5 183.5 4.5 c 0
 170.5 -8.5 154.666992188 -15 136 -15 c 0
 117.333007812 -15 101.5 -8.5 88.5 4.5 c 0
 75.5 17.5 69 33.3330078125 69 52 c 0
EndSplineSet
Validated: 1
PairPos2: "'kern' Horizontal Kerning in Arabic lookup 14 subtable" uni062D dx=-195 dy=0 dh=-195 dv=0 dx=0 dy=0 dh=0 dv=0
EndChar

StartChar: slash
Encoding: 47 47 15
Width: 390
GlyphClass: 1
Flags: W
LayerCount: 2
Fore
SplineSet
402 715 m 1
 407 704 l 1
 18 -192 l 1
 -14 -184 l 1
 -17 -170 l 1
 369 718 l 1
 380 720 l 1
 402 715 l 1
EndSplineSet
Validated: 1
PairPos2: "'kern' Horizontal Kerning in Arabic lookup 14 subtable" uni062D dx=-195 dy=0 dh=-195 dv=0 dx=0 dy=0 dh=0 dv=0
EndChar

StartChar: zero
Encoding: 48 48 16
Width: 500
GlyphClass: 1
Flags: W
LayerCount: 2
Fore
SplineSet
290 704 m 1
 364.666992188 656.666992188 415.33203125 584.666992188 441.999023438 488 c 0
 453.999023438 444.666992188 459.999023438 401.833984375 459.999023438 359.500976562 c 0
 459.999023438 317.16796875 455.33203125 274.500976562 445.999023438 231.500976562 c 0
 436.666015625 188.500976562 422.166015625 148.500976562 402.499023438 111.500976562 c 0
 382.83203125 74.5009765625 356.83203125 44.333984375 324.499023438 21.0009765625 c 0
 292.166015625 -2.33203125 252.999023438 -13.9990234375 206.999023438 -13.9990234375 c 0
 131.666015625 -13.9990234375 80.3330078125 38.0009765625 53 142.000976562 c 0
 40.3330078125 190.66796875 34 244.66796875 34 304.000976562 c 0
 34 363.333984375 45 421.666992188 67 479 c 0
 89 536.333007812 121.333007812 586.333007812 164 629 c 0
 192 657 234 682 290 704 c 1
233.998046875 640 m 1
 177.331054688 605.333007812 137.998046875 549.999023438 115.998046875 473.999023438 c 0
 105.998046875 439.33203125 100.998046875 406.33203125 100.998046875 374.999023438 c 0
 100.985351562 372.999023438 100.978515625 371.006835938 100.978515625 369.022460938 c 0
 100.978515625 269.817382812 117.318359375 190.4765625 149.998046875 130.999023438 c 0
 178.665039062 78.33203125 212.665039062 51.9990234375 251.998046875 51.9990234375 c 0
 329.998046875 51.9990234375 376.665039062 103.999023438 391.998046875 207.999023438 c 0
 395.998046875 234.666015625 397.998046875 265.333007812 397.998046875 300 c 0
 397.998046875 334.666992188 391.998046875 373.333984375 379.998046875 416.000976562 c 0
 358.665039062 493.333984375 324.665039062 557.666992188 277.998046875 609 c 0
 264.665039062 623.666992188 249.998046875 634 233.998046875 640 c 1
EndSplineSet
Validated: 1
Substitution2: "'dnom' Denominators in Latin lookup 83 subtable" zero.dnom
Substitution2: "'numr' Numerators in Latin lookup 82 subtable" zero.numr
PairPos2: "'kern' Horizontal Kerning in Arabic lookup 14 subtable" uni062D dx=-195 dy=0 dh=-195 dv=0 dx=0 dy=0 dh=0 dv=0
EndChar

StartChar: one
Encoding: 49 49 17
Width: 500
GlyphClass: 1
Flags: W
LayerCount: 2
Fore
SplineSet
214 0 m 1
 219.333007812 138.666992188 222.000976562 252.333007812 222.000976562 341 c 0
 222.000976562 429.666992188 222.16796875 482 222.500976562 498 c 0
 222.833984375 514 223.000976562 529 223.000976562 543 c 0
 223.000976562 557 220.16796875 572 214.500976562 588 c 0
 208.833984375 604 195.666992188 612 175 612 c 2
 92 612 l 1
 92 639 l 1
 308 712 l 1
 314 700 l 1
 309.333007812 622 307 549.333007812 307 482 c 2
 307 296 l 2
 307 172 308 80.6669921875 310 22 c 1
 226 -5 l 1
 214 0 l 1
EndSplineSet
Validated: 1
Substitution2: "'dnom' Denominators in Latin lookup 83 subtable" one.dnom
Substitution2: "'numr' Numerators in Latin lookup 82 subtable" one.numr
PairPos2: "'kern' Horizontal Kerning in Arabic lookup 14 subtable" uni062D dx=-195 dy=0 dh=-195 dv=0 dx=0 dy=0 dh=0 dv=0
EndChar

StartChar: two
Encoding: 50 50 18
Width: 500
GlyphClass: 1
Flags: W
LayerCount: 2
Fore
SplineSet
145 95 m 0
 145 90.3330078125 149.33203125 87.9990234375 157.999023438 87.9990234375 c 2
 466.999023438 87.9990234375 l 1
 471.999023438 79.9990234375 l 1
 448.999023438 1.9990234375 l 1
 11.9990234375 1.9990234375 l 1
 11.9990234375 17.9990234375 l 1
 119.999023438 128.666015625 199.999023438 219.999023438 251.999023438 291.999023438 c 0
 306.666015625 366.666015625 333.999023438 438.666015625 333.999023438 507.999023438 c 0
 333.999023438 525.33203125 330.499023438 544.33203125 323.499023438 564.999023438 c 0
 316.499023438 585.666015625 304.83203125 603.333007812 288.499023438 618 c 0
 272.166015625 632.666992188 249.999023438 640 221.999023438 640 c 0
 193.999023438 640 168.83203125 633.333007812 146.499023438 620 c 0
 124.166015625 606.666992188 103.333007812 592 84 576 c 1
 64 595 l 1
 132.666992188 670.333007812 203 708 275 708 c 0
 304.333007812 708 330.333007812 701.166992188 353 687.5 c 0
 375.666992188 673.833007812 393.5 655.333007812 406.5 632 c 0
 419.5 608.666992188 426 583 426 555 c 0
 426 511 410.666992188 461.666992188 380 407 c 0
 349.333007812 352.333007812 313.333007812 299.666015625 272 248.999023438 c 0
 230.666992188 198.33203125 199.166992188 160.33203125 177.5 134.999023438 c 0
 155.833007812 109.666015625 145 96.3330078125 145 95 c 0
EndSplineSet
Validated: 1
Substitution2: "'dnom' Denominators in Latin lookup 83 subtable" two.dnom
Substitution2: "'numr' Numerators in Latin lookup 82 subtable" two.numr
PairPos2: "'kern' Horizontal Kerning in Arabic lookup 14 subtable" uni062D dx=-195 dy=0 dh=-195 dv=0 dx=0 dy=0 dh=0 dv=0
EndChar

StartChar: three
Encoding: 51 51 19
Width: 500
GlyphClass: 1
Flags: W
LayerCount: 2
Fore
SplineSet
72 608 m 1
 146 670.666992188 204.8359375 702.001953125 248.502929688 702.001953125 c 0
 292.169921875 702.001953125 328.169921875 690.501953125 356.502929688 667.501953125 c 0
 384.8359375 644.501953125 399.002929688 611.334960938 399.002929688 568.001953125 c 0
 398.3359375 506.001953125 372.002929688 456.668945312 320.002929688 420.001953125 c 0
 296.002929688 403.334960938 269.669921875 390.66796875 241.002929688 382.000976562 c 1
 241.002929688 374.000976562 l 1
 377.669921875 362.66796875 446.002929688 309.66796875 446.002929688 215.000976562 c 0
 446.002929688 149.000976562 418.3359375 93.333984375 363.002929688 48.0009765625 c 0
 309.669921875 4.66796875 249.002929688 -16.9990234375 181.002929688 -16.9990234375 c 0
 125.002929688 -16.9990234375 73.0029296875 1.333984375 25.0029296875 38.0009765625 c 1
 18.0029296875 49.0009765625 l 1
 60.0029296875 121.000976562 l 1
 70.0029296875 121.000976562 l 1
 109.3359375 55.66796875 154.668945312 23.0009765625 206.001953125 23.0009765625 c 0
 236.001953125 23.0009765625 262.001953125 30.66796875 284.001953125 46.0009765625 c 0
 305.334960938 61.333984375 322.001953125 81.333984375 334.001953125 106.000976562 c 0
 346.001953125 130.000976562 352.001953125 154.66796875 352.001953125 180.000976562 c 0
 352.001953125 225.333984375 335.668945312 265.333984375 303.001953125 300.000976562 c 0
 281.001953125 324.000976562 243.001953125 338.000976562 189.001953125 342.000976562 c 0
 166.334960938 343.333984375 145.001953125 344.333984375 125.001953125 345.000976562 c 1
 126.001953125 371.000976562 l 1
 186.668945312 385.000976562 233.668945312 405.500976562 267.001953125 432.500976562 c 0
 300.334960938 459.500976562 317.001953125 495.333984375 317.001953125 540.000976562 c 0
 317.001953125 571.333984375 306.334960938 595.666992188 285.001953125 613 c 0
 263.668945312 630.333007812 240.668945312 639 216.001953125 639 c 0
 191.334960938 639 168.16796875 633.166992188 146.500976562 621.5 c 0
 124.833984375 609.833007812 104.666992188 598 86 586 c 1
 72 608 l 1
EndSplineSet
Validated: 1
Substitution2: "'dnom' Denominators in Latin lookup 83 subtable" three.dnom
Substitution2: "'numr' Numerators in Latin lookup 82 subtable" three.numr
PairPos2: "'kern' Horizontal Kerning in Arabic lookup 14 subtable" uni062D dx=-195 dy=0 dh=-195 dv=0 dx=0 dy=0 dh=0 dv=0
EndChar

StartChar: four
Encoding: 52 52 20
Width: 500
GlyphClass: 1
Flags: W
LayerCount: 2
Fore
SplineSet
285 1 m 1
 288.333007812 21 290 51 290 91 c 2
 290 182 l 1
 283 191 l 1
 -1 191 l 1
 -1 235 l 1
 285 669 l 1
 361 704 l 1
 368 698 l 1
 368 610 l 2
 368 551.333007812 367.666992188 502.333007812 367 463 c 2
 367 244 l 1
 374 235 l 1
 468 235 l 1
 473 228 l 1
 457 191 l 1
 375 191 l 1
 367 183 l 1
 367 122 l 2
 367 81.3330078125 368 50 370 28 c 1
 290 -5 l 1
 285 1 l 1
290 243 m 1
 290 585 l 2
 290 590.333007812 288.666992188 593 286 593 c 0
 283.333007812 593 281.333007812 592.333007812 280 591 c 0
 237.333007812 541 181.333007812 456.666992188 112 338 c 0
 80 282.666992188 64 250.666992188 64 242 c 1
 69 235 l 1
 284 235 l 1
 290 243 l 1
EndSplineSet
Validated: 1
Substitution2: "'dnom' Denominators in Latin lookup 83 subtable" four.dnom
Substitution2: "'numr' Numerators in Latin lookup 82 subtable" four.numr
PairPos2: "'kern' Horizontal Kerning in Arabic lookup 14 subtable" uni062D dx=-195 dy=0 dh=-195 dv=0 dx=0 dy=0 dh=0 dv=0
EndChar

StartChar: five
Encoding: 53 53 21
Width: 500
GlyphClass: 1
Flags: W
LayerCount: 2
Fore
SplineSet
295 369 m 0
 275 386.333007812 246.001953125 395.002929688 208.001953125 395.002929688 c 0
 170.001953125 395.002929688 132.668945312 377.3359375 96.001953125 342.002929688 c 1
 83.001953125 353.002929688 l 1
 83.001953125 680.002929688 l 1
 90.001953125 687.002929688 l 1
 425.001953125 687.002929688 l 1
 398.001953125 609.002929688 l 1
 369.334960938 608.3359375 337.66796875 607.668945312 303.000976562 607.001953125 c 0
 268.333984375 606.334960938 236.000976562 605.66796875 206.000976562 605.000976562 c 0
 176.000976562 604.333984375 153.000976562 604.000976562 137.000976562 604.000976562 c 0
 129.000976562 604.000976562 125.000976562 600.66796875 125.000976562 594.000976562 c 2
 125.000976562 406.000976562 l 1
 175.66796875 430.66796875 220.16796875 443.000976562 258.500976562 443.000976562 c 0
 296.833984375 443.000976562 330.166992188 434.833984375 358.5 418.500976562 c 0
 386.833007812 402.16796875 408.833007812 379.500976562 424.5 350.500976562 c 0
 440.166992188 321.500976562 448 285.000976562 448 241.000976562 c 0
 448 197.000976562 435.5 155.16796875 410.5 115.500976562 c 0
 385.5 75.833984375 352.666992188 44.833984375 312 22.5009765625 c 0
 271.333007812 0.16796875 231 -10.9990234375 191 -10.9990234375 c 0
 114.333007812 -10.9990234375 55 14.0009765625 13 64.0009765625 c 1
 12 76.0009765625 l 1
 56 132.000976562 l 1
 67 132.000976562 l 1
 86.3330078125 90.66796875 108 60.66796875 132 42.0009765625 c 0
 146.666992188 31.333984375 164.666992188 26.0009765625 186 26.0009765625 c 0
 223.333007812 26.0009765625 254.333007812 35.333984375 279 54.0009765625 c 0
 303.666992188 72.66796875 322 97.0009765625 334 127.000976562 c 0
 346 157.000976562 352 187.333984375 352 218.000976562 c 0
 352 248.66796875 347.5 277.16796875 338.5 303.500976562 c 0
 329.5 329.833984375 315 351.666992188 295 369 c 0
EndSplineSet
Validated: 1
Substitution2: "'dnom' Denominators in Latin lookup 83 subtable" five.dnom
Substitution2: "'numr' Numerators in Latin lookup 82 subtable" five.numr
PairPos2: "'kern' Horizontal Kerning in Arabic lookup 14 subtable" uni062D dx=-195 dy=0 dh=-195 dv=0 dx=0 dy=0 dh=0 dv=0
EndChar

StartChar: six
Encoding: 54 54 22
Width: 500
GlyphClass: 1
Flags: W
LayerCount: 2
Fore
SplineSet
136 305 m 1
 196 353 257.666992188 377.000976562 321 377.000976562 c 0
 351.666992188 377.000976562 378.166992188 369.000976562 400.5 353.000976562 c 0
 422.833007812 337.000976562 440.166015625 316.500976562 452.499023438 291.500976562 c 0
 464.864257812 266.436523438 471.046875 238.05859375 471.046875 206.366210938 c 0
 471.046875 178.852539062 464.697265625 152.397460938 451.999023438 127.000976562 c 0
 438.666015625 101.000976562 420.666015625 77.333984375 397.999023438 56.0009765625 c 0
 349.33203125 10.66796875 295.33203125 -12.33203125 235.999023438 -12.9990234375 c 0
 170.666015625 -12.9990234375 121.333007812 14.66796875 88 70.0009765625 c 0
 59.662109375 117.231445312 45.4931640625 173.505859375 45.4931640625 238.823242188 c 0
 45.4931640625 301.809570312 56.49609375 362.369140625 78.5009765625 420.501953125 c 0
 100.833984375 479.501953125 134.333984375 531.334960938 179.000976562 576.001953125 c 0
 225.000976562 625.334960938 275.000976562 660.66796875 329.000976562 682.000976562 c 0
 357.66796875 694.000976562 386.66796875 700.000976562 416.000976562 700.000976562 c 0
 435.333984375 700.000976562 453.666992188 696.000976562 471 688.000976562 c 1
 451 634.000976562 l 1
 442 630.000976562 l 1
 424 637.333984375 402.166992188 641.000976562 376.5 641.000976562 c 0
 350.833007812 641.000976562 324.833007812 635.000976562 298.5 623.000976562 c 0
 272.166992188 611.000976562 248.666992188 595.333984375 228 576.000976562 c 0
 188.666992188 539.333984375 162.5 497.166992188 149.5 449.5 c 0
 136.5 401.833007812 129.666992188 354 129 306 c 1
 136 305 l 1
132 265.000976562 m 1
 132 207.000976562 140.666015625 156.66796875 157.999023438 114.000976562 c 0
 179.999023438 59.333984375 213.666015625 32.0009765625 258.999023438 32.0009765625 c 0
 304.33203125 32.0009765625 337.83203125 45.833984375 359.499023438 73.5009765625 c 0
 381.166015625 101.16796875 391.999023438 130.66796875 391.999023438 162.000976562 c 0
 391.999023438 193.333984375 386.166015625 219.833984375 374.499023438 241.500976562 c 0
 362.83203125 263.16796875 346.83203125 280.66796875 326.499023438 294.000976562 c 0
 306.166015625 307.333984375 285.999023438 314.000976562 265.999023438 314.000976562 c 0
 245.999023438 314.000976562 227.666015625 311.333984375 210.999023438 306.000976562 c 0
 173.666015625 294.000976562 147.333007812 280.333984375 132 265.000976562 c 1
EndSplineSet
Validated: 1
Substitution2: "'dnom' Denominators in Latin lookup 83 subtable" six.dnom
Substitution2: "'numr' Numerators in Latin lookup 82 subtable" six.numr
PairPos2: "'kern' Horizontal Kerning in Arabic lookup 14 subtable" uni062D dx=-195 dy=0 dh=-195 dv=0 dx=0 dy=0 dh=0 dv=0
EndChar

StartChar: seven
Encoding: 55 55 23
Width: 500
GlyphClass: 1
Flags: W
LayerCount: 2
Fore
SplineSet
70 694 m 1
 88.6669921875 688.666992188 160.666015625 686 285.999023438 686 c 2
 493.999023438 686 l 1
 493.999023438 674 l 1
 339.999023438 422 l 2
 250.666015625 274 192.333007812 137.333007812 165 12 c 1
 81 -8 l 1
 75 0 l 1
 93 62 147.333007812 170 238 324 c 1
 248 342 l 2
 254.666992188 354 264 370 276 390 c 0
 288 410 301 432 315 456 c 0
 349 514.666992188 376.666992188 560.666992188 398 594 c 1
 392 606 l 1
 56 606 l 1
 49 615 l 1
 70 694 l 1
EndSplineSet
Validated: 1
Substitution2: "'dnom' Denominators in Latin lookup 83 subtable" seven.dnom
Substitution2: "'numr' Numerators in Latin lookup 82 subtable" seven.numr
PairPos2: "'kern' Horizontal Kerning in Arabic lookup 14 subtable" uni062D dx=-195 dy=0 dh=-195 dv=0 dx=0 dy=0 dh=0 dv=0
EndChar

StartChar: eight
Encoding: 56 56 24
Width: 500
GlyphClass: 1
Flags: W
LayerCount: 2
Fore
SplineSet
435 568 m 0
 435 505.333007812 393.999023438 447.997070312 311.999023438 395.997070312 c 1
 311.999023438 384.997070312 l 1
 347.33203125 360.997070312 375.999023438 339.830078125 397.999023438 321.497070312 c 0
 419.999023438 303.1640625 435.999023438 284.497070312 445.999023438 265.497070312 c 0
 455.999023438 246.497070312 460.999023438 222.330078125 460.999023438 192.997070312 c 0
 460.999023438 163.6640625 454.166015625 136.1640625 440.499023438 110.497070312 c 0
 426.83203125 84.830078125 408.33203125 62.9970703125 384.999023438 44.9970703125 c 0
 337.666015625 8.330078125 282.333007812 -10.0029296875 219 -10.0029296875 c 0
 157.666992188 -10.0029296875 112 4.9970703125 82 34.9970703125 c 0
 54 62.9970703125 40 103.6640625 40 156.997070312 c 0
 40 188.330078125 46 214.497070312 58 235.497070312 c 0
 70 256.497070312 87.8330078125 275.997070312 111.5 293.997070312 c 0
 135.166992188 311.997070312 165 331.330078125 201 351.997070312 c 1
 201 362.997070312 l 1
 126.333007812 415.6640625 89 471.331054688 89 529.998046875 c 0
 89 587.331054688 118 633.331054688 176 667.998046875 c 0
 201.333007812 682.665039062 227.333007812 695.33203125 254 705.999023438 c 1
 263 705.999023438 l 2
 314.333007812 705.999023438 355.833007812 693.33203125 387.5 667.999023438 c 0
 419.166992188 642.666015625 435 609.333007812 435 568 c 0
278.999023438 411.997070312 m 1
 300.33203125 426.6640625 317.668945312 445.497070312 331.001953125 468.497070312 c 0
 344.334960938 491.497070312 351.001953125 513.830078125 351.001953125 535.497070312 c 0
 351.001953125 557.1640625 346.168945312 576.997070312 336.501953125 594.997070312 c 0
 326.834960938 612.997070312 312.66796875 628.1640625 294.000976562 640.497070312 c 0
 275.333984375 652.830078125 251.666992188 658.997070312 223 658.997070312 c 1
 200.333007812 644.330078125 185.166015625 629.330078125 177.499023438 613.997070312 c 0
 169.83203125 598.6640625 165.999023438 581.331054688 165.999023438 561.998046875 c 0
 165.999023438 543.331054688 171.666015625 524.6640625 182.999023438 505.997070312 c 0
 201.666015625 475.330078125 233.666015625 443.997070312 278.999023438 411.997070312 c 1
238.002929688 333.997070312 m 1
 203.3359375 315.997070312 175.504882812 294.995117188 154.504882812 270.995117188 c 0
 133.504882812 246.995117188 123.004882812 215.662109375 123.004882812 176.995117188 c 0
 123.004882812 153.662109375 127.671875 130.829101562 137.004882812 108.49609375 c 0
 146.337890625 86.1630859375 160.170898438 67.830078125 178.50390625 53.4970703125 c 0
 196.836914062 39.1640625 219.00390625 31.9970703125 245.00390625 31.9970703125 c 0
 286.336914062 31.9970703125 318.169921875 44.830078125 340.502929688 70.4970703125 c 0
 362.8359375 96.1640625 374.002929688 128.6640625 374.002929688 167.997070312 c 0
 374.002929688 211.997070312 352.669921875 250.6640625 310.002929688 283.997070312 c 0
 290.002929688 299.997070312 266.002929688 316.6640625 238.002929688 333.997070312 c 1
EndSplineSet
Validated: 1
Substitution2: "'dnom' Denominators in Latin lookup 83 subtable" eight.dnom
Substitution2: "'numr' Numerators in Latin lookup 82 subtable" eight.numr
PairPos2: "'kern' Horizontal Kerning in Arabic lookup 14 subtable" uni062D dx=-195 dy=0 dh=-195 dv=0 dx=0 dy=0 dh=0 dv=0
EndChar

StartChar: nine
Encoding: 57 57 25
Width: 500
GlyphClass: 1
Flags: W
LayerCount: 2
Fore
SplineSet
344 342 m 1
 288 313.333007812 237.997070312 299 193.997070312 299 c 0
 171.330078125 299 147.997070312 306.166992188 123.997070312 320.5 c 0
 99.9970703125 334.833007812 79.9970703125 354.666015625 63.9970703125 379.999023438 c 0
 47.9970703125 403.999023438 39.9970703125 430.666015625 39.9970703125 459.999023438 c 0
 39.9970703125 519.999023438 52.9970703125 565.999023438 78.9970703125 597.999023438 c 0
 105.6640625 629.999023438 161.331054688 664.666015625 245.998046875 701.999023438 c 1
 318.665039062 701.999023438 372.83203125 686.33203125 408.499023438 654.999023438 c 0
 444.166015625 623.666015625 461.999023438 581.333007812 461.999023438 528 c 0
 461.999023438 477.333007812 441.999023438 418.666015625 401.999023438 351.999023438 c 0
 384.666015625 322.666015625 367.333007812 295.333007812 350 270 c 0
 332.666992188 243.333007812 314 215.333007812 294 186 c 0
 248.666992188 116 222 57.6669921875 214 11 c 1
 129 -9 l 1
 119 -1 l 1
 134.333007812 35.6669921875 172 91.6669921875 232 167 c 2
 246 185 l 2
 257.333007812 199.666992188 275.333007812 225 300 261 c 0
 324.666992188 297 341 322 349 336 c 1
 344 342 l 1
187.997070312 376.5 m 0
 207.330078125 360.166992188 233.998046875 351.997070312 267.998046875 351.997070312 c 0
 301.998046875 351.997070312 329.665039062 362.6640625 350.998046875 383.997070312 c 0
 371.665039062 404.6640625 381.998046875 437.331054688 381.998046875 481.998046875 c 0
 381.998046875 509.998046875 375.998046875 536.331054688 363.998046875 560.998046875 c 0
 351.998046875 585.665039062 333.831054688 605.665039062 309.498046875 620.998046875 c 0
 285.165039062 636.331054688 254.998046875 643.998046875 218.998046875 643.998046875 c 0
 200.331054688 643.998046875 184.1640625 636.831054688 170.497070312 622.498046875 c 0
 156.830078125 608.165039062 146.497070312 590.998046875 139.497070312 570.998046875 c 0
 132.497070312 550.998046875 128.997070312 530.331054688 128.997070312 508.998046875 c 0
 128.997070312 487.665039062 133.997070312 464.33203125 143.997070312 438.999023438 c 0
 153.997070312 413.666015625 168.6640625 392.833007812 187.997070312 376.5 c 0
EndSplineSet
Validated: 1
Substitution2: "'dnom' Denominators in Latin lookup 83 subtable" nine.dnom
Substitution2: "'numr' Numerators in Latin lookup 82 subtable" nine.numr
PairPos2: "'kern' Horizontal Kerning in Arabic lookup 14 subtable" uni062D dx=-195 dy=0 dh=-195 dv=0 dx=0 dy=0 dh=0 dv=0
EndChar

StartChar: colon
Encoding: 58 58 26
Width: 184
GlyphClass: 1
Flags: W
LayerCount: 2
Fore
SplineSet
35 398 m 0
 35 413.333007812 40.6669921875 426.666015625 52 437.999023438 c 0
 62.6669921875 449.33203125 76 454.999023438 92 454.999023438 c 0
 108 454.999023438 121.5 449.33203125 132.5 437.999023438 c 0
 143.5 426.666015625 149 413.333007812 149 398 c 0
 149 382.666992188 143.5 369.333984375 132.5 358.000976562 c 0
 121.5 346.66796875 108 341.000976562 92 341.000976562 c 0
 76 341.000976562 62.5 346.66796875 51.5 358.000976562 c 0
 40.5 369.333984375 35 382.666992188 35 398 c 0
35 45 m 0
 35 60.3330078125 40.6669921875 73.666015625 52 84.9990234375 c 0
 62.6669921875 96.33203125 76 101.999023438 92 101.999023438 c 0
 108 101.999023438 121.5 96.33203125 132.5 84.9990234375 c 0
 143.5 73.666015625 149 60.3330078125 149 45 c 0
 149 29.6669921875 143.5 16.333984375 132.5 5.0009765625 c 0
 121.5 -6.33203125 108 -11.9990234375 92 -11.9990234375 c 0
 76 -11.9990234375 62.5 -6.33203125 51.5 5.0009765625 c 0
 40.5 16.333984375 35 29.6669921875 35 45 c 0
EndSplineSet
Validated: 1
PairPos2: "'kern' Horizontal Kerning in Arabic lookup 14 subtable" uni062D dx=-195 dy=0 dh=-195 dv=0 dx=0 dy=0 dh=0 dv=0
EndChar

StartChar: semicolon
Encoding: 59 59 27
Width: 193
GlyphClass: 1
Flags: W
LayerCount: 2
Fore
SplineSet
29 400 m 0
 29 415.333007812 34.6669921875 428.666015625 46 439.999023438 c 0
 57.3330078125 451.33203125 70.8330078125 456.999023438 86.5 456.999023438 c 0
 102.166992188 456.999023438 115.5 451.33203125 126.5 439.999023438 c 0
 137.5 428.666015625 143 415.333007812 143 400 c 0
 143 384.666992188 137.5 371.333984375 126.5 360.000976562 c 0
 115.5 348.66796875 102.166992188 343.000976562 86.5 343.000976562 c 0
 70.8330078125 343.000976562 57.3330078125 348.66796875 46 360.000976562 c 0
 34.6669921875 371.333984375 29 384.666992188 29 400 c 0
55 -177 m 1
 86.3330078125 -135 102.000976562 -97.3310546875 102.000976562 -63.998046875 c 0
 102.000976562 -53.998046875 97.66796875 -41.3310546875 89.0009765625 -25.998046875 c 2
 55.0009765625 25.001953125 l 2
 49.0009765625 34.3349609375 46.0009765625 42.3349609375 46.0009765625 49.001953125 c 0
 46.0009765625 67.6689453125 49.66796875 80.6689453125 57.0009765625 88.001953125 c 0
 66.333984375 95.3349609375 76.1669921875 99.001953125 86.5 99.001953125 c 0
 96.8330078125 99.001953125 106 94.6689453125 114 86.001953125 c 0
 123.333007812 77.3349609375 131.333007812 66.3349609375 138 53.001953125 c 0
 152.666992188 24.3349609375 160 -0.33203125 160 -20.9990234375 c 0
 160 -41.666015625 155.333007812 -61.8330078125 146 -81.5 c 0
 136.666992188 -101.166992188 125 -120 111 -138 c 0
 97 -156 83.3330078125 -173.333007812 70 -190 c 1
 55 -177 l 1
EndSplineSet
Validated: 1
PairPos2: "'kern' Horizontal Kerning in Arabic lookup 14 subtable" uni062D dx=-195 dy=0 dh=-195 dv=0 dx=0 dy=0 dh=0 dv=0
EndChar

StartChar: less
Encoding: 60 60 28
Width: 710
GlyphClass: 1
Flags: W
LayerCount: 2
Fore
SplineSet
662 505 m 1
 660 496 l 1
 138 255 l 1
 138 243 l 1
 657 2 l 1
 662 -8 l 1
 651 -31 l 1
 641 -36 l 1
 41 244 l 1
 41 256 l 1
 642 531 l 1
 653 528 l 1
 662 505 l 1
EndSplineSet
Validated: 1
PairPos2: "'kern' Horizontal Kerning in Arabic lookup 14 subtable" uni062D dx=-195 dy=0 dh=-195 dv=0 dx=0 dy=0 dh=0 dv=0
EndChar

StartChar: equal
Encoding: 61 61 29
Width: 823
GlyphClass: 1
Flags: W
LayerCount: 2
Fore
SplineSet
739 329 m 1
 77 329 l 1
 84 369 l 1
 745 369 l 1
 739 329 l 1
739 132 m 1
 77 132 l 1
 84 172 l 1
 745 172 l 1
 739 132 l 1
EndSplineSet
Validated: 1
PairPos2: "'kern' Horizontal Kerning in Arabic lookup 14 subtable" uni062D dx=-195 dy=0 dh=-195 dv=0 dx=0 dy=0 dh=0 dv=0
EndChar

StartChar: greater
Encoding: 62 62 30
Width: 711
GlyphClass: 1
Flags: W
LayerCount: 2
Fore
SplineSet
50 494 m 1
 48 504 l 1
 58 528 l 1
 68 531 l 1
 670 256 l 1
 670 244 l 1
 70 -36 l 1
 60 -31 l 1
 52 -7 l 1
 56 2 l 1
 574 245 l 1
 574 254 l 1
 50 494 l 1
EndSplineSet
Validated: 1
PairPos2: "'kern' Horizontal Kerning in Arabic lookup 14 subtable" uni062D dx=-195 dy=0 dh=-195 dv=0 dx=0 dy=0 dh=0 dv=0
EndChar

StartChar: question
Encoding: 63 63 31
Width: 353
GlyphClass: 1
Flags: W
LayerCount: 2
Fore
SplineSet
49 488 m 1
 30.3330078125 505.333007812 20.998046875 526.331054688 20.998046875 550.998046875 c 0
 20.998046875 575.665039062 26.8310546875 596.33203125 38.498046875 612.999023438 c 0
 50.1650390625 629.666015625 65.33203125 643.999023438 83.9990234375 655.999023438 c 0
 121.999023438 680.666015625 161.166015625 692.999023438 201.499023438 692.999023438 c 0
 241.83203125 692.999023438 273.999023438 681.33203125 297.999023438 657.999023438 c 0
 321.999023438 634.666015625 333.999023438 603.666015625 333.999023438 564.999023438 c 0
 333.999023438 539.666015625 325.999023438 513.499023438 309.999023438 486.499023438 c 0
 293.999023438 459.499023438 276.666015625 437.166015625 257.999023438 419.499023438 c 0
 239.33203125 401.83203125 220.665039062 384.83203125 201.998046875 368.499023438 c 0
 183.331054688 352.166015625 167.498046875 336.166015625 154.498046875 320.499023438 c 0
 141.498046875 304.83203125 134.998046875 287.83203125 134.998046875 269.499023438 c 0
 134.998046875 251.166015625 143.998046875 235.333007812 161.998046875 222 c 1
 161.998046875 211 l 1
 115.998046875 179 l 1
 104.665039062 186.333007812 94.83203125 196.333007812 86.4990234375 209 c 0
 78.166015625 221.666992188 73.9990234375 234 73.9990234375 246 c 0
 73.9990234375 274.666992188 99.9990234375 313.333984375 151.999023438 362.000976562 c 0
 170.666015625 379.333984375 188.666015625 396.666992188 205.999023438 414 c 0
 244.010742188 452.666992188 263.016601562 495.521484375 263.016601562 542.563476562 c 0
 263.016601562 562.166015625 258.344726562 580.978515625 249 599 c 0
 239.666992188 617 227.5 631.833007812 212.5 643.5 c 0
 197.5 655.166992188 181 661 163 661 c 0
 145 661 127.333007812 654.666992188 110 642 c 0
 92.6669921875 629.333007812 84 611.333007812 84 588 c 0
 84 564.666992188 94.6669921875 544.666992188 116 528 c 1
 49 488 l 1
81.998046875 45.998046875 m 0
 81.998046875 61.3310546875 87.498046875 74.6640625 98.498046875 85.9970703125 c 0
 109.498046875 97.330078125 122.831054688 102.997070312 138.498046875 102.997070312 c 0
 154.165039062 102.997070312 167.665039062 97.330078125 178.998046875 85.9970703125 c 0
 190.331054688 74.6640625 195.998046875 61.3310546875 195.998046875 45.998046875 c 0
 195.998046875 30.6650390625 190.331054688 17.33203125 178.998046875 5.9990234375 c 0
 167.665039062 -5.333984375 154.165039062 -11.0009765625 138.498046875 -11.0009765625 c 0
 122.831054688 -11.0009765625 109.498046875 -5.333984375 98.498046875 5.9990234375 c 0
 87.498046875 17.33203125 81.998046875 30.6650390625 81.998046875 45.998046875 c 0
EndSplineSet
Validated: 1
PairPos2: "'kern' Horizontal Kerning in Arabic lookup 14 subtable" uni062D dx=-195 dy=0 dh=-195 dv=0 dx=0 dy=0 dh=0 dv=0
EndChar

StartChar: at
Encoding: 64 64 32
Width: 728
GlyphClass: 1
Flags: W
LayerCount: 2
Fore
SplineSet
279.5 366.5 m 0
 307.166992188 385.5 339.83203125 395.002929688 377.499023438 395.002929688 c 0
 415.166015625 395.002929688 446.666015625 387.002929688 471.999023438 371.002929688 c 1
 513.999023438 393.002929688 l 1
 517.999023438 389.002929688 l 1
 515.33203125 354.3359375 513.999023438 319.668945312 513.999023438 285.001953125 c 0
 513.999023438 250.334960938 514.166015625 217.16796875 514.499023438 185.500976562 c 0
 514.83203125 153.833984375 516.499023438 132.500976562 519.499023438 121.500976562 c 0
 522.499023438 110.500976562 532.666015625 105.000976562 549.999023438 105.000976562 c 0
 567.33203125 105.66796875 582.33203125 114.000976562 594.999023438 130.000976562 c 0
 621.666015625 164.66796875 634.999023438 211.66796875 634.999023438 271.000976562 c 0
 634.999023438 349.000976562 604.33203125 411.333984375 542.999023438 458.000976562 c 0
 493.846679688 496.012695312 438.251953125 515.018554688 376.213867188 515.018554688 c 0
 375.14453125 515.018554688 374.073242188 515.012695312 373 515.000976562 c 0
 301 515.000976562 233.666992188 489.66796875 171 439.000976562 c 1
 123.666992188 381.66796875 100 313.000976562 100 233.000976562 c 0
 100 197.66796875 106 162.66796875 118 128.000976562 c 0
 130 93.333984375 148 62.6669921875 172 36 c 0
 219.333007812 -6.6669921875 275 -30.6669921875 339 -36 c 1
 353 -51 l 1
 310 -93 l 1
 243.333007812 -87.6669921875 184.666015625 -60.6669921875 133.999023438 -12 c 0
 81.9990234375 37.3330078125 51.33203125 95.666015625 41.9990234375 162.999023438 c 0
 40.666015625 173.666015625 39.9990234375 182.666015625 39.9990234375 189.999023438 c 0
 39.9990234375 222.666015625 42.9990234375 253.499023438 48.9990234375 282.499023438 c 0
 54.9990234375 311.499023438 66.9990234375 340.666015625 84.9990234375 369.999023438 c 0
 102.999023438 399.33203125 125.33203125 427.33203125 151.999023438 453.999023438 c 0
 228.666015625 531.33203125 311.999023438 570.33203125 401.999023438 570.999023438 c 0
 425.999023438 570.999023438 449.999023438 567.666015625 473.999023438 560.999023438 c 0
 516.666015625 549.666015625 554.999023438 530.333007812 588.999023438 503 c 0
 622.999023438 475.666992188 648.666015625 444 665.999023438 408 c 0
 683.33203125 372 691.999023438 335.333007812 691.999023438 298 c 0
 691.999023438 259.333007812 684.666015625 225.333007812 669.999023438 196 c 0
 640.666015625 134.666992188 597.999023438 92.6669921875 541.999023438 70 c 0
 527.453125 63.939453125 514.009765625 60.9091796875 501.66796875 60.9091796875 c 0
 500.43359375 60.9091796875 499.2109375 60.939453125 497.999023438 61 c 0
 474.666015625 61 460.999023438 74.6669921875 456.999023438 102 c 1
 444.999023438 105 l 1
 425.666015625 94.3330078125 405.166015625 84.3330078125 383.499023438 75 c 0
 361.83203125 65.6669921875 337.83203125 61 311.499023438 61 c 0
 285.166015625 61 263.333007812 68 246 82 c 0
 214.653320312 107.469726562 198.979492188 145.4140625 198.979492188 195.833007812 c 0
 198.979492188 231.247070312 205.486328125 263.802734375 218.5 293.5 c 0
 231.5 323.166992188 251.833007812 347.5 279.5 366.5 c 0
377.998046875 107.002929688 m 0
 397.331054688 107.002929688 422.999023438 117.3359375 454.999023438 138.002929688 c 1
 454.999023438 299.002929688 l 2
 455.666015625 308.3359375 455.333007812 317.3359375 454 326.002929688 c 0
 452.666992188 334.002929688 448.666992188 341.3359375 442 348.002929688 c 0
 426 362.669921875 405.833007812 370.169921875 381.5 370.502929688 c 0
 381.057617188 370.508789062 380.615234375 370.51171875 380.173828125 370.51171875 c 0
 356.336914062 370.51171875 333.9453125 361.67578125 313 344.002929688 c 0
 304.333007812 336.669921875 295.166015625 323.002929688 285.499023438 303.002929688 c 0
 275.83203125 283.002929688 270.665039062 255.3359375 269.998046875 220.002929688 c 2
 269.998046875 207.002929688 l 2
 269.998046875 181.002929688 277.498046875 157.8359375 292.498046875 137.502929688 c 0
 307.498046875 117.169921875 335.998046875 107.002929688 377.998046875 107.002929688 c 0
EndSplineSet
Validated: 1
PairPos2: "'kern' Horizontal Kerning in Arabic lookup 14 subtable" uni062D dx=-195 dy=0 dh=-195 dv=0 dx=0 dy=0 dh=0 dv=0
EndChar

StartChar: A
Encoding: 65 65 33
Width: 722
GlyphClass: 2
Flags: W
AnchorPoint: "Anchor-11" 331 0 basechar 0
AnchorPoint: "Anchor-10" 352 680 basechar 0
LayerCount: 2
Fore
SplineSet
613 79 m 0
 625.666992188 59 646.000976562 48.998046875 674.000976562 48.998046875 c 0
 684.66796875 48.998046875 700.000976562 49.998046875 720.000976562 51.998046875 c 1
 721.000976562 25.998046875 l 1
 617.000976562 -4.001953125 l 2
 602.333984375 -8.001953125 587.000976562 -10.001953125 571.000976562 -10.001953125 c 0
 555.000976562 -10.001953125 543.000976562 -1.1689453125 535.000976562 16.498046875 c 0
 527.000976562 34.1650390625 520.000976562 53.998046875 514.000976562 75.998046875 c 2
 460.000976562 263.998046875 l 2
 457.333984375 269.998046875 453.666992188 272.998046875 449 272.998046875 c 2
 224 272.998046875 l 2
 220 272.998046875 216.666992188 270.331054688 214 264.998046875 c 2
 97 16.998046875 l 1
 6 -2.001953125 l 1
 3 7.998046875 l 1
 135 231.331054688 248 435.331054688 342 619.998046875 c 0
 342.666992188 621.998046875 343 623.998046875 343 625.998046875 c 0
 343 632.665039062 339 636.665039062 331 637.998046875 c 2
 241 652.998046875 l 1
 241 679.998046875 l 1
 435 679.998046875 l 1
 446.333007812 622.665039062 462 557.83203125 482 485.499023438 c 0
 502 413.166015625 517.5 356.833007812 528.5 316.5 c 0
 539.5 276.166992188 551.833007812 234 565.5 190 c 0
 579.166992188 146 595 109 613 79 c 0
438.000976562 311.998046875 m 2
 442.66796875 311.998046875 444.66796875 314.498046875 444.000976562 319.498046875 c 0
 443.333984375 324.498046875 443.000976562 327.331054688 443.000976562 327.998046875 c 2
 373.000976562 571.998046875 l 2
 371.66796875 574.665039062 369.16796875 575.998046875 365.500976562 575.998046875 c 0
 361.833984375 575.998046875 360.000976562 574.665039062 360.000976562 571.998046875 c 2
 244.000976562 327.998046875 l 2
 243.333984375 327.998046875 243.000976562 326.665039062 243.000976562 323.998046875 c 2
 243.000976562 317.998046875 l 2
 243.000976562 313.998046875 245.333984375 311.998046875 250.000976562 311.998046875 c 2
 438.000976562 311.998046875 l 2
EndSplineSet
Validated: 1
PairPos2: "'kern' Horizontal Kerning in Arabic lookup 14 subtable" uni062D dx=-195 dy=0 dh=-195 dv=0 dx=0 dy=0 dh=0 dv=0
EndChar

StartChar: B
Encoding: 66 66 34
Width: 559
GlyphClass: 1
Flags: W
LayerCount: 2
Fore
SplineSet
355 9 m 0
 323.666992188 2.3330078125 300.500976562 -1 285.500976562 -1 c 0
 270.500976562 -1 237.16796875 -0.8330078125 185.500976562 -0.5 c 0
 133.833984375 -0.1669921875 100.666992188 0 86 0 c 2
 65 1 l 1
 64 11 l 1
 70.6669921875 21 75.6669921875 27.3330078125 79 30 c 0
 84.3330078125 34.6669921875 87 51.6669921875 87 81 c 2
 87 611 l 2
 87 630.333007812 72 644 42 652 c 2
 4 662 l 1
 5 679 l 1
 12 686 l 1
 259 686 l 2
 365 686 434.666992188 664 468 620 c 0
 481.333007812 602.666992188 488 579 488 549 c 0
 488 519 480.666992188 493.333007812 466 472 c 0
 442 436 398.333007812 404.666992188 335 378 c 1
 334 370 l 1
 407.333007812 360.666992188 458 342.5 486 315.5 c 0
 514 288.5 528 253 528 209 c 0
 528 165 520 130 504 104 c 0
 488 78 467 57.3330078125 441 42 c 0
 415 26.6669921875 386.333007812 15.6669921875 355 9 c 0
169.000976562 391 m 2
 170.333984375 386.333007812 173.834960938 383.500976562 179.501953125 382.500976562 c 0
 185.168945312 381.500976562 193.001953125 381.000976562 203.001953125 381.000976562 c 0
 281.668945312 381.000976562 339.001953125 404.000976562 375.001953125 450.000976562 c 0
 393.668945312 474.000976562 403.001953125 502.66796875 403.001953125 536.000976562 c 0
 402.334960938 569.333984375 394.66796875 593.666992188 380.000976562 609 c 0
 353.333984375 635 307.333984375 648 242.000976562 648 c 0
 215.333984375 648 197.000976562 646.666992188 187.000976562 644 c 0
 177.000976562 641.333007812 171.000976562 636.333007812 169.000976562 629 c 2
 169.000976562 391 l 2
169.001953125 66.0009765625 m 2
 169.001953125 54.66796875 173.168945312 47.333984375 181.501953125 44.0009765625 c 0
 189.834960938 40.66796875 210.834960938 39.0009765625 244.501953125 39.0009765625 c 0
 278.168945312 39.0009765625 309.668945312 45.0009765625 339.001953125 57.0009765625 c 0
 368.334960938 69.0009765625 392.001953125 87.5009765625 410.001953125 112.500976562 c 0
 428.001953125 137.500976562 437.001953125 167.16796875 437.001953125 201.500976562 c 0
 437.001953125 235.833984375 431.001953125 262.000976562 419.001953125 280.000976562 c 0
 407.668945312 298.66796875 392.001953125 312.66796875 372.001953125 322.000976562 c 0
 338.668945312 338.000976562 291.668945312 346.000976562 231.001953125 346.000976562 c 2
 188.001953125 346.000976562 l 2
 177.334960938 346.000976562 171.001953125 343.333984375 169.001953125 338.000976562 c 2
 169.001953125 66.0009765625 l 2
EndSplineSet
Validated: 1
PairPos2: "'kern' Horizontal Kerning in Arabic lookup 14 subtable" uni062D dx=-195 dy=0 dh=-195 dv=0 dx=0 dy=0 dh=0 dv=0
EndChar

StartChar: C
Encoding: 67 67 35
Width: 633
GlyphClass: 2
Flags: W
AnchorPoint: "Anchor-11" 357 0 basechar 0
AnchorPoint: "Anchor-10" 317 683 basechar 0
LayerCount: 2
Fore
SplineSet
388 38 m 0
 445.333007812 38 507.665039062 60.33203125 574.998046875 104.999023438 c 1
 591.998046875 75.9990234375 l 1
 555.998046875 51.33203125 517.998046875 29.9990234375 477.998046875 11.9990234375 c 0
 437.998046875 -6.0009765625 397.331054688 -15.0009765625 355.998046875 -15.0009765625 c 0
 257.998046875 -15.0009765625 184.331054688 9.666015625 134.998046875 58.9990234375 c 0
 70.998046875 124.33203125 38.998046875 213.33203125 38.998046875 325.999023438 c 0
 38.998046875 441.33203125 69.3310546875 529.33203125 129.998046875 589.999023438 c 0
 166.665039062 626.666015625 209.165039062 653.999023438 257.498046875 671.999023438 c 0
 305.831054688 689.999023438 353.998046875 698.999023438 401.998046875 698.999023438 c 0
 449.998046875 698.999023438 492.498046875 690.83203125 529.498046875 674.499023438 c 0
 566.498046875 658.166015625 597.998046875 628.666015625 623.998046875 585.999023438 c 1
 566.998046875 527.999023438 l 1
 552.998046875 528.999023438 l 1
 521.665039062 614.999023438 461.998046875 657.999023438 373.998046875 657.999023438 c 0
 288.665039062 657.999023438 224.998046875 624.666015625 182.998046875 557.999023438 c 0
 146.331054688 499.999023438 127.998046875 428.666015625 127.998046875 343.999023438 c 0
 127.998046875 286.666015625 143.331054688 229.666015625 173.998046875 172.999023438 c 0
 186.665039062 149.666015625 198.33203125 132.333007812 208.999023438 121 c 0
 236.33203125 93.6669921875 262.83203125 73 288.499023438 59 c 0
 314.166015625 45 347.333007812 38 388 38 c 0
EndSplineSet
Validated: 1
PairPos2: "'kern' Horizontal Kerning in Arabic lookup 14 subtable" uni062D dx=-195 dy=0 dh=-195 dv=0 dx=0 dy=0 dh=0 dv=0
EndChar

StartChar: D
Encoding: 68 68 36
Width: 737
GlyphClass: 1
Flags: W
LayerCount: 2
Fore
SplineSet
64 2 m 1
 64.00390625 11.9970703125 l 1
 74.00390625 19.330078125 80.00390625 27.6630859375 82.00390625 36.99609375 c 0
 84.00390625 46.3291015625 85.3369140625 60.3291015625 86.00390625 78.99609375 c 2
 86.00390625 572.99609375 l 2
 86.00390625 589.663085938 85.50390625 603.830078125 84.50390625 615.497070312 c 0
 83.50390625 627.1640625 78.6708984375 635.331054688 70.00390625 639.998046875 c 0
 61.3369140625 644.665039062 51.169921875 648.33203125 39.5029296875 650.999023438 c 0
 27.8359375 653.666015625 17.6689453125 656.333007812 9.001953125 659 c 1
 9.001953125 678 l 1
 16.001953125 686 l 1
 329.001953125 686 l 2
 475.001953125 686 574.668945312 658 628.001953125 602 c 0
 673.334960938 555.333007812 696.001953125 483 696.001953125 385 c 0
 696.001953125 321.666992188 689.168945312 267.166992188 675.501953125 221.5 c 0
 661.834960938 175.833007812 635.66796875 132.333007812 597.000976562 91 c 0
 542.333984375 31.6669921875 441.666992188 2 295 2 c 2
 64 2 l 1
170.00390625 574.997070312 m 2
 170.002929688 169.999023438 l 2
 170.669921875 156.666015625 171.336914062 141.999023438 172.00390625 125.999023438 c 0
 173.336914062 87.9990234375 178.669921875 63.666015625 188.002929688 52.9990234375 c 0
 194.669921875 46.33203125 206.169921875 42.4990234375 222.502929688 41.4990234375 c 0
 238.8359375 40.4990234375 253.668945312 39.9990234375 267.001953125 39.9990234375 c 0
 393.001953125 39.9990234375 482.668945312 75.33203125 536.001953125 145.999023438 c 0
 580.001953125 203.999023438 602.001953125 280.999023438 602.001953125 376.999023438 c 0
 602.001953125 428.33203125 592.334960938 477.33203125 573.001953125 523.999023438 c 0
 562.334960938 549.33203125 546.334960938 572.665039062 525.001953125 593.998046875 c 0
 503.668945312 615.331054688 468.8359375 629.1640625 420.502929688 635.497070312 c 0
 372.169921875 641.830078125 326.336914062 644.997070312 283.00390625 644.997070312 c 0
 239.670898438 644.997070312 213.170898438 644.6640625 203.50390625 643.997070312 c 0
 193.836914062 643.330078125 187.336914062 642.330078125 184.00390625 640.997070312 c 0
 180.670898438 640.330078125 178.00390625 639.330078125 176.00390625 637.997070312 c 0
 172.00390625 636.6640625 170.00390625 615.6640625 170.00390625 574.997070312 c 2
EndSplineSet
Validated: 1
PairPos2: "'kern' Horizontal Kerning in Arabic lookup 14 subtable" uni062D dx=-195 dy=0 dh=-195 dv=0 dx=0 dy=0 dh=0 dv=0
EndChar

StartChar: E
Encoding: 69 69 37
Width: 518
GlyphClass: 2
Flags: W
AnchorPoint: "Anchor-11" 259 0 basechar 0
AnchorPoint: "Anchor-10" 270 683 basechar 0
LayerCount: 2
Fore
SplineSet
184 384.5 m 0
 196.666992188 384.166992188 222.16796875 384 260.500976562 384 c 0
 298.833984375 384 349.000976562 386.333007812 411.000976562 391 c 1
 417.000976562 384 l 1
 411.000976562 336 l 1
 353.000976562 340 314.000976562 342 294.000976562 342 c 2
 229.000976562 342 l 2
 185.66796875 342 164.000976562 337 164.000976562 327 c 2
 164.000976562 188 l 2
 164.000976562 132 169.000976562 94.6669921875 179.000976562 76 c 0
 186.333984375 63.3330078125 196.500976562 54.8330078125 209.500976562 50.5 c 0
 222.500976562 46.1669921875 247.16796875 44 283.500976562 44 c 0
 319.833984375 44 395.000976562 48.6669921875 509.000976562 58 c 1
 514.000976562 53 l 1
 501.000976562 0 l 1
 113.000976562 0 l 1
 95.66796875 9.3330078125 87.0009765625 31.3330078125 87.0009765625 66 c 2
 87.0009765625 558 l 2
 86.333984375 588 84.0009765625 607.666992188 80.0009765625 617 c 0
 72.0009765625 635 46.0009765625 647.333007812 2.0009765625 654 c 1
 1.0009765625 674 l 1
 8.0009765625 681 l 1
 156.000976562 682 l 2
 179.333984375 682 205.333984375 682.666992188 234.000976562 684 c 2
 298.000976562 686 l 2
 342.000976562 687.333007812 372.000976562 688 388.000976562 688 c 2
 411.000976562 688 l 2
 426.333984375 688 437.333984375 687.666992188 444.000976562 687 c 1
 442.000976562 637 l 1
 438.000976562 630 l 1
 420.66796875 631.333007812 400.66796875 632.666015625 378.000976562 633.999023438 c 0
 355.333984375 633.999023438 332.666992188 634.666015625 310 635.999023438 c 0
 258.666992188 638.666015625 231.666992188 639.999023438 229 639.999023438 c 2
 189 639.999023438 l 2
 173 636.666015625 165 611.333007812 165 564 c 2
 165 398 l 2
 165 389.333007812 171.333007812 384.833007812 184 384.5 c 0
EndSplineSet
Validated: 1
PairPos2: "'kern' Horizontal Kerning in Arabic lookup 14 subtable" uni062D dx=-195 dy=0 dh=-195 dv=0 dx=0 dy=0 dh=0 dv=0
EndChar

StartChar: F
Encoding: 70 70 38
Width: 441
GlyphClass: 1
Flags: W
LayerCount: 2
Fore
SplineSet
80 -2 m 1
 84.6669921875 139.333007812 87.0009765625 260.000976562 87.0009765625 360.000976562 c 2
 89.0009765625 521.000976562 l 1
 89.0009765625 560.000976562 l 2
 89.0009765625 585.333984375 86.833984375 605.333984375 82.5009765625 620.000976562 c 0
 78.16796875 634.66796875 69.3349609375 643.66796875 56.001953125 647.000976562 c 2
 1.001953125 660.000976562 l 1
 1.001953125 681.000976562 l 1
 8.001953125 688.000976562 l 1
 192.001953125 688.000976562 l 2
 314.668945312 688.000976562 393.668945312 688.66796875 429.001953125 690.000976562 c 1
 429.001953125 637.000976562 l 1
 421.001953125 629.000976562 l 1
 385.001953125 631.66796875 349.001953125 635.66796875 313.001953125 641.000976562 c 0
 277.001953125 646.333984375 241.001953125 649.000976562 205.001953125 649.000976562 c 0
 188.334960938 649.000976562 177.66796875 641.333984375 173.000976562 626.000976562 c 0
 168.333984375 602.66796875 166.000976562 524.334960938 166.000976562 391.001953125 c 0
 166.000976562 382.334960938 170.333984375 378.001953125 179.000976562 378.001953125 c 0
 215.66796875 378.001953125 255.000976562 379.668945312 297.000976562 383.001953125 c 0
 339.000976562 386.334960938 378.000976562 388.66796875 414.000976562 390.000976562 c 1
 413.000976562 341.000976562 l 1
 408.000976562 336.000976562 l 1
 350.000976562 339.333984375 273.66796875 341.000976562 179.000976562 341.000976562 c 0
 176.333984375 341.000976562 173.666992188 340.000976562 171 338.000976562 c 0
 168.333007812 336.000976562 167 333.333984375 167 330.000976562 c 0
 167 203.333984375 168.666992188 97.6669921875 172 13 c 1
 80 -2 l 1
EndSplineSet
Validated: 1
PairPos2: "'kern' Horizontal Kerning in Arabic lookup 14 subtable" uni062D dx=-195 dy=0 dh=-195 dv=0 dx=0 dy=0 dh=0 dv=0
EndChar

StartChar: G
Encoding: 71 71 39
Width: 661
GlyphClass: 1
Flags: MW
HStem: -16.998 51.9893<311.334 404.649> 265 31<325 331> 650.001 49<385 388.334>
VStem: 39 89.9854<302.001 380.057 297.181 384.667> 522 84<33.002 118.001 33.002 154.001>
LayerCount: 2
Fore
SplineSet
325 296 m 1
 601 307.001953125 l 1
 601.666992188 284.334960938 602.166992188 257.501953125 602.5 226.501953125 c 0
 602.833007812 195.501953125 603.5 165.334960938 604.5 136.001953125 c 0
 605.5 106.668945312 606 82.001953125 606 62.001953125 c 2
 606 33.001953125 l 1
 514 9.6689453125 452.333007812 -4.498046875 421 -9.498046875 c 0
 389.666992188 -14.498046875 358.333984375 -16.998046875 327.000976562 -16.998046875 c 0
 295.66796875 -16.998046875 262.16796875 -10.3310546875 226.500976562 3.001953125 c 0
 190.833984375 16.3349609375 157.666992188 38.16796875 127 68.5009765625 c 0
 96.3330078125 98.833984375 74 137.333984375 60 184.000976562 c 0
 46 230.66796875 39 278.000976562 39 326.000976562 c 0
 39 443.333984375 69.6669921875 532.333984375 131 593.000976562 c 0
 168.333007812 630.333984375 212 657.333984375 262 674.000976562 c 0
 312 690.66796875 361 699.000976562 409 699.000976562 c 0
 457 699.000976562 498.333007812 690.333984375 533 673.000976562 c 0
 567.666992188 655.66796875 598.333984375 626.66796875 625.000976562 586.000976562 c 1
 567.000976562 529.000976562 l 1
 555.000976562 530.000976562 l 1
 533.000976562 574.000976562 507.000976562 605.000976562 477.000976562 623.000976562 c 0
 447.000976562 641.000976562 410.16796875 650.000976562 366.500976562 650.000976562 c 0
 322.833984375 650.000976562 285.333984375 641.333984375 254.000976562 624.000976562 c 0
 223.333984375 606.66796875 198.666992188 582.66796875 180 552.000976562 c 0
 145.990234375 495.544921875 128.985351562 423.686523438 128.985351562 336.426757812 c 0
 128.985351562 257.934570312 150.657226562 189.79296875 194.000976562 132.001953125 c 0
 242.17578125 67.328125 312.235351562 34.9912109375 404.1796875 34.9912109375 c 0
 405.118164062 34.9912109375 406.05859375 34.994140625 407.000976562 35.0009765625 c 0
 440.333984375 35.0009765625 471.666992188 38.333984375 501 45.0009765625 c 0
 515 48.333984375 522 65.0009765625 522 95.0009765625 c 1
 522 94.333984375 522 102.000976562 522 118.000976562 c 2
 522 154.000976562 l 1
 522 178.000976562 l 1
 522 201.000976562 l 2
 518.666992188 236.333984375 509 254.666992188 493 256 c 0
 442.333007812 260.666992188 388.333007812 263.666992188 331 265 c 1
 325 270 l 1
 325 296 l 1
EndSplineSet
Validated: 5
PairPos2: "'kern' Horizontal Kerning in Arabic lookup 14 subtable" uni062D dx=-195 dy=0 dh=-195 dv=0 dx=0 dy=0 dh=0 dv=0
EndChar

StartChar: H
Encoding: 72 72 40
Width: 706
GlyphClass: 1
Flags: W
LayerCount: 2
Fore
SplineSet
629 684 m 1
 621.666992188 588.666992188 617.999023438 484.331054688 617.999023438 370.998046875 c 0
 617.999023438 257.665039062 619.33203125 160.33203125 621.999023438 78.9990234375 c 0
 621.999023438 56.9990234375 642.666015625 41.9990234375 683.999023438 33.9990234375 c 0
 691.999023438 32.666015625 696.999023438 31.9990234375 698.999023438 31.9990234375 c 2
 699.999023438 13.9990234375 l 1
 693.999023438 -0.0009765625 l 1
 544.999023438 -0.0009765625 l 1
 533.999023438 20.9990234375 l 1
 537.33203125 142.33203125 538.999023438 246.665039062 538.999023438 333.998046875 c 0
 538.999023438 341.998046875 534.999023438 345.998046875 526.999023438 345.998046875 c 2
 183.999023438 345.998046875 l 2
 175.33203125 345.998046875 170.999023438 341.998046875 170.999023438 333.998046875 c 1
 170.33203125 333.998046875 169.999023438 291.998046875 169.999023438 207.998046875 c 0
 169.999023438 123.998046875 171.999023438 63.3310546875 175.999023438 25.998046875 c 1
 83.9990234375 -2.001953125 l 1
 77.9990234375 2.998046875 l 1
 84.666015625 73.6650390625 87.9990234375 162.33203125 87.9990234375 268.999023438 c 0
 87.9990234375 375.666015625 87.83203125 449.833007812 87.4990234375 491.5 c 0
 87.166015625 533.166992188 85.3330078125 574.666992188 82 616 c 0
 81.3330078125 625.333007812 78.8330078125 631.666015625 74.5 634.999023438 c 0
 70.1669921875 638.33203125 63 641.499023438 53 644.499023438 c 0
 43 647.499023438 28.3330078125 652.33203125 9 658.999023438 c 1
 8 677.999023438 l 1
 15 684.999023438 l 1
 177 684.999023438 l 1
 182 679.999023438 l 1
 173.333007812 630.666015625 169 536.333007812 169 397 c 0
 169 389 173 385 181 385 c 2
 527 385 l 2
 535 385 539 389 539 397 c 2
 536 673 l 1
 624 690 l 1
 629 684 l 1
EndSplineSet
Validated: 1
PairPos2: "'kern' Horizontal Kerning in Arabic lookup 14 subtable" uni062D dx=-195 dy=0 dh=-195 dv=0 dx=0 dy=0 dh=0 dv=0
EndChar

StartChar: I
Encoding: 73 73 41
Width: 280
GlyphClass: 2
Flags: W
AnchorPoint: "Anchor-11" 141 0 basechar 0
AnchorPoint: "Anchor-10" 137 683 basechar 0
LayerCount: 2
Fore
SplineSet
201 641 m 2
 187.666992188 637.666992188 179.83203125 627.666015625 177.499023438 610.999023438 c 0
 175.166015625 594.33203125 173.999023438 575.999023438 173.999023438 555.999023438 c 2
 173.999023438 532.999023438 l 2
 173.999023438 412.999023438 174.666015625 320.666015625 175.999023438 255.999023438 c 0
 177.33203125 190.666015625 177.999023438 153.999023438 177.999023438 145.999023438 c 2
 177.999023438 115.999023438 l 2
 177.999023438 95.9990234375 179.83203125 79.33203125 183.499023438 65.9990234375 c 0
 187.166015625 52.666015625 195.999023438 43.9990234375 209.999023438 39.9990234375 c 0
 231.999023438 33.9990234375 249.666015625 29.33203125 262.999023438 25.9990234375 c 2
 274.999023438 22.9990234375 l 1
 272.999023438 -1.0009765625 l 1
 7.9990234375 -1.0009765625 l 1
 7.9990234375 24.9990234375 l 1
 32.666015625 29.666015625 50.9990234375 34.166015625 62.9990234375 38.4990234375 c 0
 74.9990234375 42.83203125 83.166015625 48.4990234375 87.4990234375 55.4990234375 c 0
 91.83203125 62.4990234375 94.33203125 72.166015625 94.9990234375 84.4990234375 c 0
 95.666015625 96.83203125 96.3330078125 113.33203125 97 133.999023438 c 2
 97 496.999023438 l 2
 97.060546875 504.575195312 97.0908203125 511.833984375 97.0908203125 518.776367188 c 0
 97.0908203125 588.198242188 94.060546875 625.939453125 88 632 c 0
 84 636 75.8330078125 639.333007812 63.5 642 c 0
 51.1669921875 644.666992188 31.6669921875 649 5 655 c 1
 5 677 l 1
 12 683 l 1
 262 683 l 1
 268 677 l 1
 268 656 l 1
 201 641 l 2
EndSplineSet
Validated: 1
PairPos2: "'kern' Horizontal Kerning in Arabic lookup 14 subtable" uni062D dx=-195 dy=0 dh=-195 dv=0 dx=0 dy=0 dh=0 dv=0
EndChar

StartChar: J
Encoding: 74 74 42
Width: 265
GlyphClass: 1
Flags: W
LayerCount: 2
Fore
SplineSet
175 608 m 2
 175 90.9970703125 l 2
 175 13.6640625 159.166992188 -51.1689453125 127.5 -103.501953125 c 0
 95.8330078125 -155.834960938 46.3330078125 -199.334960938 -21 -234.001953125 c 1
 -35 -216.001953125 l 1
 8.3330078125 -189.334960938 39 -156.66796875 57 -118.000976562 c 0
 79 -70.66796875 90 0.6650390625 90 95.998046875 c 2
 90 607.998046875 l 2
 90 613.331054688 88.8330078125 620.498046875 86.5 629.498046875 c 0
 84.1669921875 638.498046875 80 643.665039062 74 644.998046875 c 2
 2 662.998046875 l 1
 2 683.998046875 l 1
 9 689.998046875 l 1
 259 689.998046875 l 1
 266 683.998046875 l 1
 264 659.998046875 l 1
 196 645.998046875 l 2
 190 644.665039062 185 640.33203125 181 632.999023438 c 0
 177 625.666015625 175 617.333007812 175 608 c 2
EndSplineSet
Validated: 1
PairPos2: "'kern' Horizontal Kerning in Arabic lookup 14 subtable" uni062D dx=-195 dy=0 dh=-195 dv=0 dx=0 dy=0 dh=0 dv=0
EndChar

StartChar: K
Encoding: 75 75 43
Width: 593
GlyphClass: 1
Flags: W
LayerCount: 2
Fore
SplineSet
169 318 m 1
 169 195.333007812 170.998046875 97.6669921875 174.998046875 25 c 1
 93.998046875 -4 l 1
 85.998046875 1 l 1
 85.998046875 595 l 2
 85.998046875 607.666992188 84.6650390625 617.333984375 81.998046875 624.000976562 c 0
 79.3310546875 630.66796875 71.998046875 636.66796875 59.998046875 642.000976562 c 0
 34.6650390625 652.66796875 16.6650390625 658.334960938 5.998046875 659.001953125 c 1
 7.998046875 676.001953125 l 1
 15.998046875 683.001953125 l 1
 173.998046875 683.001953125 l 1
 180.998046875 676.001953125 l 1
 173.665039062 653.334960938 169.33203125 611.501953125 167.999023438 550.501953125 c 0
 166.666015625 489.501953125 165.999023438 425.334960938 165.999023438 358.001953125 c 1
 173.999023438 357.001953125 l 1
 460.999023438 683.001953125 l 1
 550.999023438 683.001953125 l 1
 549.999023438 674.001953125 l 1
 258.999023438 380.001953125 l 2
 253.666015625 374.668945312 250.999023438 370.668945312 250.999023438 368.001953125 c 0
 251.666015625 365.334960938 259.333007812 356.66796875 274 342.000976562 c 2
 333 283.000976562 l 2
 372.333007812 243.66796875 408 208.66796875 440 178.000976562 c 0
 516 103.333984375 565.666992188 55.6669921875 589 35 c 1
 588 24 l 1
 503 -7 l 1
 450.333007812 49 396.5 103.666992188 341.5 157 c 0
 286.5 210.333007812 232 264.333007812 178 319 c 1
 169 318 l 1
EndSplineSet
Validated: 1
PairPos2: "'kern' Horizontal Kerning in Arabic lookup 14 subtable" uni062D dx=-195 dy=0 dh=-195 dv=0 dx=0 dy=0 dh=0 dv=0
EndChar

StartChar: L
Encoding: 76 76 44
Width: 494
GlyphClass: 1
Flags: W
LayerCount: 2
Fore
SplineSet
65 16 m 1
 79.6669921875 36.6669921875 86.9990234375 78.998046875 86.9990234375 142.998046875 c 2
 86.9990234375 620.998046875 l 2
 86.9990234375 640.331054688 79.9990234375 651.331054688 65.9990234375 653.998046875 c 0
 59.33203125 655.331054688 51.33203125 656.998046875 41.9990234375 658.998046875 c 0
 20.666015625 663.665039062 9.3330078125 665.998046875 8 665.998046875 c 1
 9 682.998046875 l 1
 16 689.998046875 l 1
 253 689.998046875 l 1
 259 683.998046875 l 1
 259 662.998046875 l 2
 259 662.331054688 255 661.331054688 247 659.998046875 c 0
 225 656.665039062 209.166992188 653.83203125 199.5 651.499023438 c 0
 189.833007812 649.166015625 183.666015625 645.333007812 180.999023438 640 c 0
 178.33203125 634.666992188 176.665039062 629.333984375 175.998046875 624.000976562 c 0
 171.998046875 552.000976562 169.998046875 481.333984375 169.998046875 412.000976562 c 0
 169.998046875 301.333984375 172.331054688 182.666992188 176.998046875 56 c 0
 177.665039062 53.3330078125 179.33203125 50.5 181.999023438 47.5 c 0
 184.666015625 44.5 187.333007812 43 190 43 c 0
 261.333007812 43 327.5 45.5 388.5 50.5 c 0
 449.5 55.5 480.666992188 58 482 58 c 2
 492 48 l 1
 478 -5 l 1
 434.666992188 -0.3330078125 363.666992188 2 265 2 c 2
 65 2 l 1
 65 16 l 1
EndSplineSet
Validated: 1
PairPos2: "'kern' Horizontal Kerning in Arabic lookup 14 subtable" uni062D dx=-195 dy=0 dh=-195 dv=0 dx=0 dy=0 dh=0 dv=0
EndChar

StartChar: M
Encoding: 77 77 45
Width: 962
GlyphClass: 1
Flags: W
LayerCount: 2
Fore
SplineSet
961 28 m 1
 898.333007812 5.3330078125 856.333984375 -5.998046875 835.000976562 -5.998046875 c 0
 786.333984375 -5.998046875 762.000976562 5.6689453125 762.000976562 29.001953125 c 2
 762.000976562 211.001953125 l 2
 762.000976562 216.334960938 761.66796875 229.001953125 761.000976562 249.001953125 c 0
 760.333984375 269.001953125 759.666992188 293.168945312 759 321.501953125 c 0
 758.333007812 349.834960938 757.5 378.834960938 756.5 408.501953125 c 0
 755.5 438.168945312 754.666992188 465.501953125 754 490.501953125 c 0
 753.333007812 515.501953125 752.833007812 533.834960938 752.5 545.501953125 c 0
 752.166992188 557.168945312 749.666992188 563.001953125 745 563.001953125 c 0
 740.333007812 563.001953125 736.333007812 560.334960938 733 555.001953125 c 2
 447 1.001953125 l 1
 417 1.001953125 l 1
 398.333007812 45.6689453125 378.666015625 92.6689453125 357.999023438 142.001953125 c 0
 336.666015625 191.334960938 315.999023438 240.334960938 295.999023438 289.001953125 c 0
 251.999023438 394.334960938 214.999023438 477.334960938 184.999023438 538.001953125 c 0
 180.999023438 544.668945312 177.33203125 548.001953125 173.999023438 548.001953125 c 0
 170.666015625 548.001953125 166.999023438 537.334960938 162.999023438 516.001953125 c 0
 158.999023438 494.668945312 154.83203125 466.668945312 150.499023438 432.001953125 c 0
 146.166015625 397.334960938 141.999023438 359.66796875 137.999023438 319.000976562 c 0
 133.999023438 278.333984375 130.166015625 238.166992188 126.499023438 198.5 c 0
 122.83203125 158.833007812 119.83203125 123.5 117.499023438 92.5 c 0
 115.166015625 61.5 113.333007812 38.3330078125 112 23 c 1
 37 -3 l 1
 30 0 l 1
 72.6669921875 216 106 413 130 591 c 0
 130.666992188 593 131 595 131 597 c 2
 131 607 l 2
 131 613.666992188 128.666992188 620.5 124 627.5 c 0
 119.333007812 634.5 112.333007812 639.333007812 103 642 c 2
 35 661 l 1
 37 683 l 1
 44 690 l 1
 220 690 l 1
 256 586.666992188 296.833007812 486 342.5 388 c 0
 388.166992188 290 418.166992188 225.666992188 432.5 195 c 0
 446.833007812 164.333007812 455 147.166015625 457 143.499023438 c 0
 459 139.83203125 461.833007812 137.999023438 465.5 137.999023438 c 0
 469.166992188 137.999023438 472.333984375 140.999023438 475.000976562 146.999023438 c 2
 751.000976562 689.999023438 l 1
 854.000976562 689.999023438 l 1
 854.000976562 677.999023438 l 1
 840.66796875 671.33203125 833.16796875 659.33203125 831.500976562 641.999023438 c 0
 829.833984375 624.666015625 829.000976562 589.999023438 829.000976562 537.999023438 c 0
 829.000976562 360.666015625 835.000976562 215.333007812 847.000976562 102 c 0
 848.333984375 87.3330078125 854.166992188 74.3330078125 864.5 63 c 0
 874.833007812 51.6669921875 888.333007812 46 905 46 c 2
 961 52 l 1
 961 28 l 1
EndSplineSet
Validated: 1
PairPos2: "'kern' Horizontal Kerning in Arabic lookup 14 subtable" uni062D dx=-195 dy=0 dh=-195 dv=0 dx=0 dy=0 dh=0 dv=0
EndChar

StartChar: N
Encoding: 78 78 46
Width: 732
GlyphClass: 2
Flags: W
AnchorPoint: "Anchor-11" 366 0 basechar 0
AnchorPoint: "Anchor-10" 395 683 basechar 0
LayerCount: 2
Fore
SplineSet
601 173 m 0
 601 281.666992188 592.999023438 450 576.999023438 678 c 1
 656.999023438 694 l 1
 662.999023438 686 l 1
 652.999023438 516 647.999023438 287.333007812 647.999023438 0 c 1
 611.999023438 0 l 1
 586.666015625 30 564.333007812 56.6669921875 545 80 c 2
 386 278 l 2
 320 360.666992188 242 453 152 555 c 0
 148 561 144 564 140 564 c 0
 136 564 134 558.333007812 134 547 c 0
 134 459 142 285 158 25 c 1
 88 -5 l 1
 79 4 l 1
 87.6669921875 176 92 334.333007812 92 479 c 2
 92 549 l 2
 92 595.666992188 91.3330078125 621 90 625 c 0
 88 633.666992188 60 644 6 656 c 1
 2 683 l 1
 10 690 l 1
 172 690 l 1
 325.333007812 488 425 359.166992188 471 303.5 c 0
 517 247.833007812 547.666992188 211.833007812 563 195.5 c 0
 578.333007812 179.166992188 587 170 589 168 c 0
 591 166 593 165 595 165 c 0
 599 165 601 167.666992188 601 173 c 0
EndSplineSet
Validated: 1
PairPos2: "'kern' Horizontal Kerning in Arabic lookup 14 subtable" uni062D dx=-195 dy=0 dh=-195 dv=0 dx=0 dy=0 dh=0 dv=0
EndChar

StartChar: O
Encoding: 79 79 47
Width: 737
GlyphClass: 2
Flags: W
AnchorPoint: "Anchor-11" 369 0 basechar 0
AnchorPoint: "Anchor-10" 381 693 basechar 0
LayerCount: 2
Fore
SplineSet
142 612 m 0
 197.333007812 670.666992188 284.33203125 699.999023438 402.999023438 699.999023438 c 0
 440.33203125 699.999023438 477.665039062 694.166015625 514.998046875 682.499023438 c 0
 551.665039062 670.83203125 581.998046875 652.999023438 605.998046875 628.999023438 c 0
 629.998046875 605.666015625 647.998046875 579.333007812 659.998046875 550 c 0
 682.665039062 496 694.33203125 434 694.999023438 364 c 0
 694.999023438 331.333007812 693.166015625 298 689.499023438 264 c 0
 685.83203125 230 674.999023438 194.666992188 656.999023438 158 c 0
 638.999023438 120.666992188 613.666015625 89.333984375 580.999023438 64.0009765625 c 0
 510.999023438 9.333984375 423.999023438 -17.9990234375 319.999023438 -17.9990234375 c 0
 223.999023438 -17.9990234375 151.999023438 17.333984375 103.999023438 88.0009765625 c 0
 62.3310546875 150.50390625 41.4970703125 235.530273438 41.4970703125 343.081054688 c 0
 41.4970703125 449.388671875 74.998046875 539.028320312 142 612 c 0
212.999023438 99.9990234375 m 0
 242.999023438 66.666015625 272.33203125 45.4970703125 300.999023438 36.4970703125 c 0
 329.666015625 27.4970703125 353.666015625 22.9970703125 372.999023438 22.9970703125 c 0
 450.33203125 23.6640625 508.999023438 57.3310546875 548.999023438 123.998046875 c 0
 583.666015625 182.665039062 600.999023438 253.33203125 600.999023438 335.999023438 c 0
 600.999023438 417.33203125 583.666015625 489.33203125 548.999023438 551.999023438 c 0
 508.999023438 623.999023438 449.666015625 659.999023438 370.999023438 659.999023438 c 0
 290.33203125 659.999023438 229.33203125 626.999023438 187.999023438 560.999023438 c 0
 151.999023438 502.999023438 133.999023438 426.33203125 133.999023438 330.999023438 c 0
 133.999023438 235.666015625 160.33203125 158.666015625 212.999023438 99.9990234375 c 0
EndSplineSet
Validated: 1
PairPos2: "'kern' Horizontal Kerning in Arabic lookup 14 subtable" uni062D dx=-195 dy=0 dh=-195 dv=0 dx=0 dy=0 dh=0 dv=0
EndChar

StartChar: P
Encoding: 80 80 48
Width: 527
GlyphClass: 1
Flags: W
LayerCount: 2
Fore
SplineSet
82 1 m 1
 86.6669921875 246.333007812 88.998046875 385.330078125 88.998046875 417.997070312 c 0
 88.998046875 465.997070312 87.3310546875 526.6640625 83.998046875 599.997070312 c 0
 82.6650390625 619.997070312 74.83203125 633.330078125 60.4990234375 639.997070312 c 0
 46.166015625 646.6640625 29.3330078125 651.331054688 10 653.998046875 c 1
 10 671.998046875 l 1
 17 678.998046875 l 1
 274 678.998046875 l 2
 356 678.998046875 415 664.831054688 451 636.498046875 c 0
 487 608.165039062 505 565.33203125 505 507.999023438 c 0
 505 450.666015625 483.666992188 400.666015625 441 357.999023438 c 0
 419 335.33203125 391.333007812 319.499023438 358 310.499023438 c 0
 324.666992188 300.83203125 297.333984375 295.33203125 276.000976562 293.999023438 c 0
 254.66796875 292.666015625 236.66796875 291.999023438 222.000976562 291.999023438 c 0
 183.989257812 291.34375 164.983398438 285.534179688 164.983398438 274.5703125 c 0
 164.983398438 265.158203125 166.155273438 229.134765625 168.5 166.5 c 0
 170.833007812 104.166992188 172 56 172 22 c 1
 89 -6 l 1
 82 1 l 1
408.998046875 505.997070312 m 0
 408.998046875 595.330078125 351.331054688 639.999023438 235.998046875 639.999023438 c 2
 179.998046875 639.999023438 l 2
 173.998046875 639.999023438 170.998046875 636.33203125 170.998046875 628.999023438 c 0
 166.998046875 540.999023438 164.998046875 444.999023438 164.998046875 340.999023438 c 0
 164.998046875 336.33203125 166.331054688 333.165039062 168.998046875 331.498046875 c 0
 171.665039062 329.831054688 173.998046875 328.998046875 175.998046875 328.998046875 c 0
 245.331054688 328.998046875 301.498046875 344.665039062 344.498046875 375.998046875 c 0
 387.498046875 407.331054688 408.998046875 450.6640625 408.998046875 505.997070312 c 0
EndSplineSet
Validated: 1
PairPos2: "'kern' Horizontal Kerning in Arabic lookup 14 subtable" uni062D dx=-195 dy=0 dh=-195 dv=0 dx=0 dy=0 dh=0 dv=0
EndChar

StartChar: Q
Encoding: 81 81 49
Width: 740
GlyphClass: 1
Flags: W
LayerCount: 2
Fore
SplineSet
561 -176.5 m 0
 581 -184.833007812 603.66796875 -189.000976562 629.000976562 -189.000976562 c 0
 654.333984375 -189.000976562 685.333984375 -184.000976562 722.000976562 -174.000976562 c 1
 729.000976562 -194.000976562 l 1
 663.000976562 -221.333984375 613.500976562 -235.000976562 580.500976562 -235.000976562 c 0
 547.500976562 -235.000976562 518.833984375 -228.500976562 494.500976562 -215.500976562 c 0
 470.16796875 -202.500976562 448.000976562 -185.333984375 428.000976562 -164.000976562 c 0
 395.333984375 -129.333984375 359.666992188 -80.0009765625 321 -16.0009765625 c 1
 286.333007812 -16.0009765625 251.333007812 -10.66796875 216 -0.0009765625 c 0
 180.666992188 10.666015625 149.833984375 30.666015625 123.500976562 59.9990234375 c 0
 97.16796875 89.33203125 76.66796875 125.33203125 62.0009765625 167.999023438 c 0
 47.9716796875 208.810546875 40.95703125 256.33203125 40.95703125 310.5625 c 0
 40.95703125 313.02734375 40.9716796875 315.505859375 41.0009765625 317.999023438 c 0
 41.0009765625 441.999023438 74.66796875 538.999023438 142.000976562 608.999023438 c 0
 176.000976562 644.33203125 215.66796875 667.999023438 261.000976562 679.999023438 c 0
 306.333984375 691.999023438 350.500976562 697.999023438 393.500976562 697.999023438 c 0
 436.500976562 697.999023438 476.66796875 692.666015625 514.000976562 681.999023438 c 0
 551.333984375 671.33203125 584.333984375 651.33203125 613.000976562 621.999023438 c 0
 651.000976562 584.666015625 676.000976562 528.999023438 688.000976562 454.999023438 c 0
 693.333984375 423.666015625 696.000976562 392.999023438 696.000976562 362.999023438 c 0
 696.000976562 332.999023438 695.333984375 309.33203125 694.000976562 291.999023438 c 0
 691.333984375 250.666015625 678.000976562 203.333007812 654.000976562 150 c 0
 646.000976562 131.333007812 630.66796875 110 608.000976562 86 c 0
 568.000976562 42 509.000976562 11 431.000976562 -7 c 1
 427.000976562 -17 l 1
 457.000976562 -71.6669921875 476.16796875 -104.5 484.500976562 -115.5 c 0
 492.833984375 -126.5 502.666992188 -137.333007812 514 -148 c 0
 525.333007812 -158.666992188 541 -168.166992188 561 -176.5 c 0
365.000976562 21.9990234375 m 0
 451.000976562 21.9990234375 513.33203125 57.3330078125 551.999023438 128 c 0
 583.999023438 186 600.33203125 256 600.999023438 338 c 0
 600.999023438 422 582.33203125 495.333007812 544.999023438 558 c 0
 503.666015625 626 447.333007812 660 376 660 c 0
 287.333007812 660 223 624 183 552 c 0
 150.333007812 493.333007812 134 420.666015625 134 333.999023438 c 0
 134 231.999023438 162.333007812 151.33203125 219 91.9990234375 c 0
 238.333007812 71.9990234375 260.833007812 55.33203125 286.5 41.9990234375 c 0
 312.166992188 28.666015625 338.333984375 21.9990234375 365.000976562 21.9990234375 c 0
EndSplineSet
Validated: 1
PairPos2: "'kern' Horizontal Kerning in Arabic lookup 14 subtable" uni062D dx=-195 dy=0 dh=-195 dv=0 dx=0 dy=0 dh=0 dv=0
EndChar

StartChar: R
Encoding: 82 82 50
Width: 548
GlyphClass: 1
Flags: W
LayerCount: 2
Fore
SplineSet
79 3 m 1
 85 112.333007812 87.9990234375 212.331054688 87.9990234375 302.998046875 c 0
 87.9990234375 393.665039062 86.9990234375 496.33203125 84.9990234375 610.999023438 c 0
 85.666015625 628.999023438 67.9990234375 642.666015625 31.9990234375 651.999023438 c 0
 19.9990234375 654.666015625 11.9990234375 655.999023438 7.9990234375 655.999023438 c 1
 8.9990234375 672.999023438 l 1
 14.9990234375 678.999023438 l 1
 286.999023438 678.999023438 l 2
 348.33203125 678.999023438 397.499023438 667.33203125 434.499023438 643.999023438 c 0
 471.499023438 620.666015625 489.999023438 585.833007812 489.999023438 539.5 c 0
 489.999023438 493.166992188 480.33203125 455.333984375 460.999023438 426.000976562 c 0
 426.33203125 373.333984375 364.33203125 341.666992188 274.999023438 331 c 1
 272.999023438 323 l 1
 535.999023438 27 l 1
 535.999023438 18 l 1
 436.999023438 -8 l 1
 413.666015625 22 388.999023438 53.5 362.999023438 86.5 c 0
 336.999023438 119.5 311.999023438 151.333007812 287.999023438 182 c 0
 237.999023438 246 207.33203125 283.666992188 195.999023438 295 c 0
 184.666015625 306.333007812 175.333007812 312 168 312 c 1
 168 179.333007812 169.666992188 83 173 23 c 1
 90 -6 l 1
 79 3 l 1
166.999023438 369.998046875 m 0
 166.999023438 359.998046875 169.997070312 354.999023438 175.997070312 354.999023438 c 0
 177.147460938 354.990234375 178.293945312 354.985351562 179.436523438 354.985351562 c 0
 261.682617188 354.985351562 322.203125 378.65625 360.998046875 425.999023438 c 0
 381.665039062 451.33203125 391.998046875 481.999023438 391.998046875 517.999023438 c 0
 391.998046875 552.666015625 383.331054688 578.666015625 365.998046875 595.999023438 c 0
 336.665039062 625.33203125 289.665039062 639.999023438 224.998046875 639.999023438 c 2
 184.998046875 639.999023438 l 2
 177.665039062 639.999023438 173.665039062 632.499023438 172.998046875 617.499023438 c 0
 172.331054688 602.499023438 171.831054688 584.999023438 171.498046875 564.999023438 c 0
 171.165039062 544.999023438 170.665039062 523.999023438 169.998046875 501.999023438 c 0
 169.331054688 479.999023438 168.831054688 459.166015625 168.498046875 439.499023438 c 0
 168.165039062 419.83203125 167.83203125 403.665039062 167.499023438 390.998046875 c 0
 167.166015625 378.331054688 166.999023438 371.331054688 166.999023438 369.998046875 c 0
EndSplineSet
Validated: 33
PairPos2: "'kern' Horizontal Kerning in Arabic lookup 14 subtable" uni062D dx=-195 dy=0 dh=-195 dv=0 dx=0 dy=0 dh=0 dv=0
EndChar

StartChar: S
Encoding: 83 83 51
Width: 484
GlyphClass: 1
Flags: W
LayerCount: 2
Fore
SplineSet
451 606 m 1
 388.000976562 549.999023438 l 1
 375.000976562 552.999023438 l 1
 355.66796875 627.666015625 315.000976562 664.999023438 253.000976562 664.999023438 c 0
 221.000976562 664.999023438 194.500976562 653.499023438 173.500976562 630.499023438 c 0
 152.500976562 607.499023438 142.000976562 581.33203125 142.000976562 551.999023438 c 0
 142.000976562 522.666015625 149.333984375 498.333007812 164.000976562 479 c 0
 188.66796875 446.333007812 229.834960938 417.5 287.501953125 392.5 c 0
 345.168945312 367.5 387.3359375 340.666992188 414.002929688 312 c 0
 440.669921875 283.333007812 454.002929688 250.833007812 454.002929688 214.5 c 0
 454.002929688 178.166992188 446.002929688 146 430.002929688 118 c 0
 414.002929688 91.3330078125 392.3359375 68 365.002929688 48 c 0
 308.3359375 6.6669921875 247.002929688 -14.3330078125 181.002929688 -15 c 0
 146.3359375 -15 113.668945312 -7.1669921875 83.001953125 8.5 c 0
 52.3349609375 24.1669921875 30.001953125 50.333984375 16.001953125 87.0009765625 c 1
 73.001953125 153.000976562 l 1
 90.001953125 152.000976562 l 1
 100.668945312 117.333984375 116.668945312 88.5009765625 138.001953125 65.5009765625 c 0
 159.334960938 42.5009765625 185.334960938 31.0009765625 216.001953125 31.0009765625 c 0
 246.668945312 31.0009765625 272.8359375 37.5009765625 294.502929688 50.5009765625 c 0
 316.169921875 63.5009765625 333.502929688 81.0009765625 346.502929688 103.000976562 c 0
 359.502929688 125.000976562 366.002929688 147.66796875 366.002929688 171.000976562 c 0
 366.002929688 194.333984375 360.002929688 214.666992188 348.002929688 232 c 0
 325.3359375 266 292.502929688 292.5 249.502929688 311.5 c 0
 206.502929688 330.5 171.3359375 349 144.002929688 367 c 0
 116.669921875 385 96.169921875 405.5 82.5029296875 428.5 c 0
 68.8359375 451.5 62.0029296875 481.666992188 62.0029296875 519 c 0
 62.0029296875 556.333007812 72.169921875 589 92.5029296875 617 c 0
 112.8359375 645 139.168945312 666.166992188 171.501953125 680.5 c 0
 203.834960938 694.833007812 235.16796875 702 265.500976562 702 c 0
 295.833984375 702 321.666992188 700 343 696 c 0
 388.333007812 686.666992188 424.333007812 656.666992188 451 606 c 1
EndSplineSet
Validated: 1
PairPos2: "'kern' Horizontal Kerning in Arabic lookup 14 subtable" uni062D dx=-195 dy=0 dh=-195 dv=0 dx=0 dy=0 dh=0 dv=0
EndChar

StartChar: T
Encoding: 84 84 52
Width: 551
GlyphClass: 1
Flags: W
LayerCount: 2
Fore
SplineSet
193.5 687 m 0
 216.5 686.333007812 243.833007812 686.000976562 275.5 686.000976562 c 0
 307.166992188 686.000976562 396.333984375 689.333984375 543.000976562 696.000976562 c 1
 549.000976562 689.000976562 l 1
 549.000976562 641.000976562 l 1
 541.000976562 634.000976562 l 1
 499.000976562 636.000976562 465.333984375 637.66796875 440.000976562 639.000976562 c 0
 414.66796875 640.333984375 395.000976562 641.333984375 381.000976562 642.000976562 c 2
 360.000976562 643.000976562 l 2
 346.000976562 643.66796875 336.000976562 644.000976562 330.000976562 644.000976562 c 0
 324.000976562 644.000976562 320.500976562 624.833984375 319.500976562 586.500976562 c 0
 318.500976562 548.16796875 318.000976562 487.66796875 318.000976562 405.000976562 c 0
 318.000976562 322.333984375 322.333984375 193.000976562 331.000976562 17.0009765625 c 1
 231.000976562 -9.9990234375 l 1
 222.000976562 -0.9990234375 l 1
 230.66796875 136.333984375 235.000976562 239.333984375 235.000976562 308.000976562 c 2
 235.000976562 379.000976562 l 2
 235.000976562 426.333984375 234.333984375 512.000976562 233.000976562 636.000976562 c 0
 233.000976562 640.000976562 228.16796875 642.000976562 218.500976562 642.000976562 c 0
 208.833984375 642.000976562 139.333984375 639.66796875 10.0009765625 635.000976562 c 1
 2.0009765625 642.000976562 l 1
 2.0009765625 690.000976562 l 1
 9.0009765625 697.000976562 l 1
 31.66796875 696.333984375 54.66796875 695.000976562 78.0009765625 693.000976562 c 0
 101.333984375 691.000976562 120.666992188 689.66796875 136 689.000976562 c 0
 151.333007812 688.333984375 170.5 687.666992188 193.5 687 c 0
EndSplineSet
Validated: 1
PairPos2: "'kern' Horizontal Kerning in Arabic lookup 14 subtable" uni062D dx=-195 dy=0 dh=-195 dv=0 dx=0 dy=0 dh=0 dv=0
EndChar

StartChar: U
Encoding: 85 85 53
Width: 712
GlyphClass: 2
Flags: W
AnchorPoint: "Anchor-11" 356 0 basechar 0
AnchorPoint: "Anchor-10" 367 683 basechar 0
LayerCount: 2
Fore
SplineSet
95 127 m 0
 89.6669921875 164.333007812 87.0009765625 203.834960938 87.0009765625 245.501953125 c 0
 87.0009765625 287.168945312 87.66796875 386.001953125 89.0009765625 542.001953125 c 2
 89.0009765625 601.001953125 l 2
 89.0009765625 618.334960938 76.0009765625 632.001953125 50.0009765625 642.001953125 c 0
 30.66796875 649.334960938 14.3349609375 653.001953125 1.001953125 653.001953125 c 1
 -0.998046875 673.001953125 l 1
 7.001953125 680.001953125 l 1
 176.001953125 680.001953125 l 1
 183.001953125 674.001953125 l 1
 181.001953125 664.668945312 179.501953125 647.668945312 178.501953125 623.001953125 c 0
 177.501953125 598.334960938 176.668945312 579.66796875 176.001953125 567.000976562 c 0
 175.334960938 554.333984375 175.001953125 546.000976562 175.001953125 542.000976562 c 2
 167.001953125 269.000976562 l 2
 167.001953125 165.66796875 196.334960938 100.000976562 255.001953125 72.0009765625 c 0
 281.668945312 58.66796875 311.001953125 52.0009765625 343.001953125 52.0009765625 c 0
 395.001953125 52.0009765625 453.668945312 71.66796875 519.001953125 111.000976562 c 1
 519.001953125 202.333984375 519.501953125 293.833984375 520.501953125 385.500976562 c 0
 521.501953125 477.16796875 522.334960938 568.334960938 523.001953125 659.001953125 c 1
 611.001953125 694.001953125 l 1
 617.001953125 687.001953125 l 1
 606.334960938 610.334960938 601.001953125 448.66796875 601.001953125 202.000976562 c 0
 601.001953125 134.000976562 605.001953125 91.333984375 613.001953125 74.0009765625 c 0
 621.001953125 56.66796875 631.501953125 48.0009765625 644.501953125 48.0009765625 c 0
 657.501953125 48.0009765625 668.668945312 49.16796875 678.001953125 51.5009765625 c 0
 687.334960938 53.833984375 697.001953125 55.333984375 707.001953125 56.0009765625 c 1
 711.001953125 39.0009765625 l 1
 706.001953125 32.0009765625 l 1
 628.668945312 7.333984375 577.668945312 -4.9990234375 553.001953125 -4.9990234375 c 0
 531.001953125 -4.9990234375 520.001953125 7.66796875 520.001953125 33.0009765625 c 2
 520.001953125 64.0009765625 l 1
 512.001953125 70.0009765625 l 1
 431.334960938 17.333984375 353.66796875 -8.9990234375 279.000976562 -8.9990234375 c 0
 197.000976562 -8.9990234375 143.333984375 16.0009765625 118.000976562 66.0009765625 c 0
 107.333984375 87.333984375 99.6669921875 107.666992188 95 127 c 0
EndSplineSet
Validated: 1
PairPos2: "'kern' Horizontal Kerning in Arabic lookup 14 subtable" uni062D dx=-195 dy=0 dh=-195 dv=0 dx=0 dy=0 dh=0 dv=0
EndChar

StartChar: V
Encoding: 86 86 54
Width: 707
GlyphClass: 1
Flags: W
LayerCount: 2
Fore
SplineSet
614 680 m 1
 699.999023438 696.999023438 l 1
 705.999023438 677.999023438 l 1
 664.666015625 625.999023438 624.333007812 565.999023438 585 497.999023438 c 0
 500.333007812 351.999023438 427 189.33203125 365 9.9990234375 c 1
 297 -16.0009765625 l 1
 287 -9.0009765625 l 1
 144 472.999023438 l 2
 123.333007812 538.999023438 108.166015625 582.33203125 98.4990234375 602.999023438 c 0
 88.83203125 623.666015625 77.1650390625 636.499023438 63.498046875 641.499023438 c 0
 49.8310546875 646.499023438 28.998046875 650.999023438 0.998046875 654.999023438 c 1
 -0.001953125 681.999023438 l 1
 6.998046875 687.999023438 l 1
 181.998046875 697.999023438 l 1
 221.331054688 505.999023438 276.331054688 319.33203125 346.998046875 137.999023438 c 0
 348.331054688 135.999023438 349.831054688 134.499023438 351.498046875 133.499023438 c 0
 353.165039062 132.499023438 354.33203125 131.666015625 354.999023438 130.999023438 c 0
 358.33203125 132.33203125 365.83203125 145.33203125 377.499023438 169.999023438 c 0
 389.166015625 194.666015625 405.333007812 229.333007812 426 274 c 2
 545 548 l 2
 559 582.666992188 582 626.666992188 614 680 c 1
EndSplineSet
Validated: 1
PairPos2: "'kern' Horizontal Kerning in Arabic lookup 14 subtable" uni062D dx=-195 dy=0 dh=-195 dv=0 dx=0 dy=0 dh=0 dv=0
EndChar

StartChar: W
Encoding: 87 87 55
Width: 1050
GlyphClass: 1
Flags: W
LayerCount: 2
Fore
SplineSet
965 675 m 1
 1046.00195312 689.000976562 l 1
 1046.00195312 668.000976562 l 1
 931.001953125 480.000976562 l 2
 891.001953125 416.000976562 833.668945312 304.000976562 759.001953125 144.000976562 c 0
 737.668945312 98.66796875 719.001953125 56.0009765625 703.001953125 16.0009765625 c 1
 643.001953125 -10.9990234375 l 1
 631.001953125 -2.9990234375 l 1
 602.334960938 161.000976562 566.001953125 340.66796875 522.001953125 536.000976562 c 0
 522.001953125 544.000976562 519.668945312 548.000976562 515.001953125 548.000976562 c 0
 513.001953125 548.000976562 510.001953125 544.000976562 506.001953125 536.000976562 c 2
 478.001953125 473.000976562 l 2
 389.334960938 276.333984375 328.66796875 124.666992188 296.000976562 18 c 1
 232.000976562 -11 l 1
 221.000976562 -6 l 1
 194.333984375 144 172.166992188 255.166992188 154.5 327.5 c 0
 136.833007812 399.833007812 122.666015625 456 111.999023438 496 c 0
 101.33203125 536 88.33203125 575.333007812 72.9990234375 614 c 0
 67.666015625 628 58.166015625 637.666992188 44.4990234375 643 c 0
 30.83203125 648.333007812 16.33203125 652.333007812 0.9990234375 655 c 1
 -1.0009765625 679 l 1
 6.9990234375 686 l 1
 162.999023438 689 l 1
 166.33203125 673 170.999023438 650.166992188 176.999023438 620.5 c 0
 182.999023438 590.833007812 189.999023438 557.333007812 197.999023438 520 c 0
 205.999023438 481.333007812 214.666015625 441.333007812 223.999023438 400 c 0
 241.33203125 318.666992188 258.665039062 239.666992188 275.998046875 163 c 0
 276.665039062 159 278.83203125 157 282.499023438 157 c 0
 286.166015625 157 288.666015625 158.333007812 289.999023438 161 c 0
 335.33203125 248.333007812 396.665039062 384.333007812 473.998046875 569 c 0
 488.665039062 605 500.33203125 635.666992188 508.999023438 661 c 1
 584.999023438 690 l 1
 591.999023438 684 l 1
 591.999023438 646.666992188 599.83203125 589.666992188 615.499023438 513 c 0
 631.166015625 436.333007812 642.333007812 382.333007812 649 351 c 0
 655.666992188 319.666992188 660.833984375 293.666992188 664.500976562 273 c 0
 668.16796875 252.333007812 672.16796875 231.833007812 676.500976562 211.5 c 0
 680.833984375 191.166992188 685.166992188 174 689.5 160 c 0
 693.833007812 146 698.333007812 139 703 139 c 0
 709.666992188 139 714 141.333007812 716 146 c 2
 796 316 l 1
 905 558 l 2
 917 584.666992188 937 623.666992188 965 675 c 1
EndSplineSet
Validated: 1
PairPos2: "'kern' Horizontal Kerning in Arabic lookup 14 subtable" uni062D dx=-195 dy=0 dh=-195 dv=0 dx=0 dy=0 dh=0 dv=0
EndChar

StartChar: X
Encoding: 88 88 56
Width: 624
GlyphClass: 1
Flags: W
LayerCount: 2
Fore
SplineSet
612 672 m 1
 425 465.999023438 l 2
 415 454.666015625 405.166992188 442.666015625 395.5 429.999023438 c 0
 385.833007812 417.33203125 377.5 406.499023438 370.5 397.499023438 c 0
 363.5 388.499023438 359.333007812 382.666015625 358 379.999023438 c 0
 358 373.33203125 375.666992188 341.999023438 411 285.999023438 c 0
 467 197.999023438 501.333007812 146.33203125 514 130.999023438 c 2
 574 58.9990234375 l 2
 577.333007812 55.666015625 583.333007812 51.3330078125 592 46 c 0
 600.666992188 40.6669921875 607 37.333984375 611 36.0009765625 c 2
 616 32.0009765625 l 1
 616 16.0009765625 l 1
 506 -10.9990234375 l 1
 492 -4.9990234375 l 1
 477.333007812 11.0009765625 462 31.66796875 446 57.0009765625 c 2
 303 296.000976562 l 1
 291 296.000976562 l 1
 245 240.000976562 194.666992188 168.000976562 140 80.0009765625 c 0
 124 53.333984375 111 30.333984375 101 11.0009765625 c 1
 7 0.0009765625 l 1
 7 16.0009765625 l 1
 278 345.000976562 l 1
 276 345.000976562 266.166992188 360.16796875 248.5 390.500976562 c 0
 230.833007812 420.833984375 215.666015625 446.666992188 202.999023438 468 c 0
 171.666015625 521.333007812 149.499023438 559.833007812 136.499023438 583.5 c 0
 123.499023438 607.166992188 107.33203125 622.666992188 87.9990234375 630 c 0
 68.666015625 637.333007812 48.666015625 643.666015625 27.9990234375 648.999023438 c 1
 27.9990234375 673.999023438 l 1
 34.9990234375 679.999023438 l 1
 43.666015625 680.666015625 56.666015625 681.333007812 73.9990234375 682 c 0
 91.33203125 682.666992188 109.83203125 683.666992188 129.499023438 685 c 0
 149.166015625 686.333007812 166.333007812 687.333007812 181 688 c 1
 328 422 l 1
 337 422 l 1
 353.666992188 438.666992188 382 475.666992188 422 533 c 0
 479.333007812 615.666992188 511 662.666992188 517 674 c 1
 612 687 l 1
 612 672 l 1
EndSplineSet
Validated: 1
PairPos2: "'kern' Horizontal Kerning in Arabic lookup 14 subtable" uni062D dx=-195 dy=0 dh=-195 dv=0 dx=0 dy=0 dh=0 dv=0
EndChar

StartChar: Y
Encoding: 89 89 57
Width: 592
GlyphClass: 2
Flags: W
AnchorPoint: "Anchor-11" 296 0 basechar 0
AnchorPoint: "Anchor-10" 336 683 basechar 0
LayerCount: 2
Fore
SplineSet
231 -2 m 1
 233 72.6669921875 233.997070312 173.002929688 233.997070312 299.002929688 c 1
 84.9970703125 594.002929688 l 2
 73.6640625 616.669921875 61.4970703125 631.169921875 48.4970703125 637.502929688 c 0
 35.4970703125 643.8359375 18.9970703125 648.3359375 -1.0029296875 651.002929688 c 1
 -1.0029296875 679.002929688 l 1
 5.9970703125 686.002929688 l 1
 150.997070312 686.002929688 l 1
 291.997070312 361.002929688 l 1
 295.997070312 357.002929688 l 2
 298.6640625 354.3359375 301.331054688 353.002929688 303.998046875 353.002929688 c 0
 306.665039062 352.3359375 311.33203125 357.3359375 317.999023438 368.002929688 c 0
 333.999023438 390.669921875 347.83203125 412.502929688 359.499023438 433.502929688 c 0
 371.166015625 454.502929688 381.999023438 473.669921875 391.999023438 491.002929688 c 0
 402.666015625 508.3359375 414.666015625 528.668945312 427.999023438 552.001953125 c 0
 454.666015625 597.334960938 479.333007812 638.66796875 502 676.000976562 c 1
 587 693.000976562 l 1
 591 675.000976562 l 1
 499 555.000976562 438.333007812 474.16796875 409 432.500976562 c 0
 379.666992188 390.833984375 351 348.666992188 323 306 c 1
 332 18 l 1
 242 -11 l 1
 231 -2 l 1
EndSplineSet
Validated: 1
PairPos2: "'kern' Horizontal Kerning in Arabic lookup 14 subtable" uni062D dx=-195 dy=0 dh=-195 dv=0 dx=0 dy=0 dh=0 dv=0
EndChar

StartChar: Z
Encoding: 90 90 58
Width: 603
GlyphClass: 1
Flags: W
LayerCount: 2
Fore
SplineSet
107 695 m 1
 233.666992188 687 382 683.000976562 552 683.000976562 c 1
 552 664.000976562 l 1
 476.666992188 558.000976562 397 439.66796875 313 309.000976562 c 0
 229 178.333984375 175.666992188 95.6669921875 153 61 c 1
 159 68 l 1
 588 68 l 1
 597 59 l 1
 579 -12 l 1
 502.333007812 -4 361.333007812 0 156 0 c 2
 4 0 l 1
 3 21 l 1
 427 627 l 1
 420 637 l 1
 269.333007812 637 164 634 104 628 c 1
 98 633 l 1
 98 687 l 1
 107 695 l 1
EndSplineSet
Validated: 1
PairPos2: "'kern' Horizontal Kerning in Arabic lookup 14 subtable" uni062D dx=-195 dy=0 dh=-195 dv=0 dx=0 dy=0 dh=0 dv=0
EndChar

StartChar: bracketleft
Encoding: 91 91 59
Width: 258
GlyphClass: 1
Flags: W
LayerCount: 2
Fore
SplineSet
88 741 m 1
 112 737.666992188 165 736 247 736 c 1
 247 712 l 1
 128 699 l 1
 128 -83 l 1
 247 -96 l 1
 247 -120 l 1
 173.666992188 -120 120.666992188 -121.666992188 88 -125 c 1
 88 741 l 1
EndSplineSet
Validated: 1
PairPos2: "'kern' Horizontal Kerning in Arabic lookup 14 subtable" uni062D dx=-195 dy=0 dh=-195 dv=0 dx=0 dy=0 dh=0 dv=0
EndChar

StartChar: backslash
Encoding: 92 92 60
Width: 390
GlyphClass: 1
Flags: W
LayerCount: 2
Fore
SplineSet
372 -192 m 1
 -17 704 l 1
 -12 715 l 1
 19 722 l 1
 407 -171 l 1
 404 -184 l 1
 372 -192 l 1
EndSplineSet
Validated: 1
PairPos2: "'kern' Horizontal Kerning in Arabic lookup 14 subtable" uni062D dx=-195 dy=0 dh=-195 dv=0 dx=0 dy=0 dh=0 dv=0
EndChar

StartChar: bracketright
Encoding: 93 93 61
Width: 258
GlyphClass: 1
Flags: W
LayerCount: 2
Fore
SplineSet
170 -125 m 1
 137.333007812 -121.666992188 84.3330078125 -120 11 -120 c 1
 11 -96 l 1
 130 -83 l 1
 130 699 l 1
 11 712 l 1
 11 736 l 1
 93 736 146 737.666992188 170 741 c 1
 170 -125 l 1
EndSplineSet
Validated: 1
PairPos2: "'kern' Horizontal Kerning in Arabic lookup 14 subtable" uni062D dx=-195 dy=0 dh=-195 dv=0 dx=0 dy=0 dh=0 dv=0
EndChar

StartChar: underscore
Encoding: 95 95 62
Width: 756
GlyphClass: 1
Flags: W
LayerCount: 2
Fore
SplineSet
756 -114 m 1
 0 -114 l 1
 0 -74 l 1
 756 -74 l 1
 756 -114 l 1
EndSplineSet
Validated: 1
PairPos2: "'kern' Horizontal Kerning in Arabic lookup 14 subtable" uni062D dx=-195 dy=0 dh=-195 dv=0 dx=0 dy=0 dh=0 dv=0
EndChar

StartChar: grave
Encoding: 96 96 63
Width: 520
GlyphClass: 1
Flags: W
LayerCount: 2
Fore
SplineSet
232 511 m 1
 70 665 l 1
 117 701 l 1
 130 699 l 1
 250 542 l 1
 232 511 l 1
EndSplineSet
Validated: 1
PairPos2: "'kern' Horizontal Kerning in Arabic lookup 14 subtable" uni062D dx=-195 dy=0 dh=-195 dv=0 dx=0 dy=0 dh=0 dv=0
EndChar

StartChar: a
Encoding: 97 97 64
Width: 548
GlyphClass: 2
Flags: W
AnchorPoint: "Anchor-11" 274 0 basechar 0
AnchorPoint: "Anchor-10" 274 500 basechar 0
LayerCount: 2
Fore
SplineSet
169 442.5 m 0
 199 458.166992188 234.333984375 466.000976562 275.000976562 466.000976562 c 0
 315.66796875 466.000976562 352.334960938 454.333984375 385.001953125 431.000976562 c 1
 438.001953125 462.000976562 l 1
 443.001953125 457.000976562 l 1
 439.001953125 384.333984375 437.001953125 328.500976562 437.001953125 289.500976562 c 2
 437.001953125 227.000976562 l 2
 437.001953125 224.333984375 436.668945312 209.000976562 436.001953125 181.000976562 c 0
 435.735351562 169.80078125 435.6015625 159.587890625 435.6015625 150.361328125 c 0
 435.6015625 136.521484375 435.901367188 124.901367188 436.500976562 115.500976562 c 0
 437.500976562 99.833984375 441.000976562 85.333984375 447.000976562 72.0009765625 c 0
 453.000976562 58.66796875 462.16796875 52.0009765625 474.500976562 52.0009765625 c 0
 486.833984375 52.0009765625 509.000976562 58.0009765625 541.000976562 70.0009765625 c 1
 548.000976562 46.0009765625 l 1
 506.66796875 21.333984375 478.000976562 5.5009765625 462.000976562 -1.4990234375 c 0
 446.000976562 -8.4990234375 430.66796875 -11.9990234375 416.000976562 -11.9990234375 c 0
 390.000976562 -11.9990234375 373.000976562 7.66796875 365.000976562 47.0009765625 c 1
 350.000976562 51.0009765625 l 1
 325.333984375 35.0009765625 299.333984375 20.5009765625 272.000976562 7.5009765625 c 0
 244.66796875 -5.4990234375 216.66796875 -11.9990234375 188.000976562 -11.9990234375 c 0
 159.333984375 -11.9990234375 135.666992188 -5.9990234375 117 6.0009765625 c 0
 98.3330078125 18.0009765625 83.3330078125 33.66796875 72 53.0009765625 c 0
 50.6669921875 89.66796875 40 129.66796875 40 173.000976562 c 0
 40 216.333984375 44.5 254.666992188 53.5 288 c 0
 62.5 321.333007812 76.5 351.5 95.5 378.5 c 0
 114.5 405.5 139 426.833007812 169 442.5 c 0
257.000976562 54.0009765625 m 0
 289.000976562 54.0009765625 324.334960938 69.00390625 363.001953125 99.00390625 c 1
 363.001953125 329.00390625 l 2
 363.001953125 342.336914062 362.334960938 355.00390625 361.001953125 367.00390625 c 0
 359.001953125 378.336914062 354.001953125 388.669921875 346.001953125 398.002929688 c 0
 326.001953125 419.3359375 303.668945312 430.3359375 279.001953125 431.002929688 c 0
 242.334960938 431.002929688 210.66796875 418.3359375 184.000976562 393.002929688 c 0
 172.66796875 382.3359375 161.16796875 362.668945312 149.500976562 334.001953125 c 0
 137.833984375 305.334960938 131.333984375 265.66796875 130.000976562 215.000976562 c 2
 130.000976562 196.000976562 l 2
 130.000976562 156.000976562 139.333984375 122.333984375 158.000976562 95.0009765625 c 0
 175.333984375 67.66796875 208.333984375 54.0009765625 257.000976562 54.0009765625 c 0
EndSplineSet
Validated: 1
PairPos2: "'kern' Horizontal Kerning in Arabic lookup 14 subtable" uni062D dx=-195 dy=0 dh=-195 dv=0 dx=0 dy=0 dh=0 dv=0
EndChar

StartChar: b
Encoding: 98 98 65
Width: 522
GlyphClass: 1
Flags: W
LayerCount: 2
Fore
SplineSet
167 677 m 1
 157.666992188 582.333007812 152.998046875 500.665039062 152.998046875 431.998046875 c 2
 152.998046875 398.998046875 l 1
 161.998046875 393.998046875 l 1
 188.665039062 413.998046875 216.665039062 431.331054688 245.998046875 445.998046875 c 0
 275.331054688 460.665039062 306.331054688 467.998046875 338.998046875 467.998046875 c 0
 371.665039062 467.998046875 398.33203125 460.498046875 418.999023438 445.498046875 c 0
 439.666015625 430.498046875 455.333007812 410.831054688 466 386.498046875 c 0
 476.666992188 362.165039062 482 337.33203125 482 311.999023438 c 0
 482 258.666015625 476 213.999023438 464 177.999023438 c 0
 452 141.999023438 432.166992188 109.83203125 404.5 81.4990234375 c 0
 376.833007812 53.166015625 344.833007812 30.8330078125 308.5 14.5 c 0
 272.166992188 -1.8330078125 235 -10 197 -10 c 0
 152.333007812 -10 119.333007812 6.3330078125 98 39 c 0
 86 58.3330078125 80 86.3330078125 80 123 c 2
 80 599 l 2
 80 611 78.1669921875 619 74.5 623 c 0
 70.8330078125 627 62.3330078125 629.833007812 49 631.5 c 0
 35.6669921875 633.166992188 14.6669921875 636 -14 640 c 1
 -14 661 l 1
 -8 666 l 1
 161 684 l 1
 167 677 l 1
293.998046875 405.999023438 m 0
 246.665039062 405.999023438 200.999023438 386.331054688 156.999023438 346.998046875 c 1
 156.33203125 330.331054688 155.499023438 311.331054688 154.499023438 289.998046875 c 0
 153.499023438 268.665039062 152.999023438 243.83203125 152.999023438 215.499023438 c 0
 152.999023438 187.166015625 155.166015625 158.499023438 159.499023438 129.499023438 c 0
 163.83203125 100.499023438 172.999023438 77.9990234375 186.999023438 61.9990234375 c 0
 200.999023438 45.9990234375 223.999023438 37.9990234375 255.999023438 37.9990234375 c 0
 289.33203125 37.9990234375 316.665039062 47.33203125 337.998046875 65.9990234375 c 0
 378.674804688 100.771484375 399.013671875 153.299804688 399.013671875 223.583984375 c 0
 399.013671875 287.178710938 389.008789062 333.650390625 368.998046875 362.999023438 c 0
 349.665039062 391.666015625 324.665039062 405.999023438 293.998046875 405.999023438 c 0
EndSplineSet
Validated: 1
PairPos2: "'kern' Horizontal Kerning in Arabic lookup 14 subtable" uni062D dx=-195 dy=0 dh=-195 dv=0 dx=0 dy=0 dh=0 dv=0
EndChar

StartChar: c
Encoding: 99 99 66
Width: 455
GlyphClass: 2
Flags: W
AnchorPoint: "Anchor-11" 252 -10 basechar 0
AnchorPoint: "Anchor-10" 232 462 basechar 0
LayerCount: 2
Fore
SplineSet
425 116 m 1
 434 113.997070312 l 1
 445 95.9970703125 l 1
 414.333007812 65.330078125 380.5 38.4970703125 343.5 15.4970703125 c 0
 306.5 -7.5029296875 266.666992188 -19.0029296875 224 -19.0029296875 c 0
 181.333007812 -19.0029296875 148.333007812 -11.5029296875 125 3.4970703125 c 0
 101.666992188 18.4970703125 84.6669921875 37.9970703125 74 61.9970703125 c 0
 56.6669921875 99.330078125 48 146.997070312 48 204.997070312 c 0
 48 262.997070312 58.8330078125 311.497070312 80.5 350.497070312 c 0
 102.166992188 389.497070312 132 419.997070312 170 441.997070312 c 0
 208 463.997070312 251.666992188 474.997070312 301 474.997070312 c 0
 333.666992188 474.997070312 360.5 465.830078125 381.5 447.497070312 c 0
 402.5 429.1640625 414.333007812 405.6640625 417 376.997070312 c 1
 363 323.997070312 l 1
 346 329.997070312 l 1
 341.333007812 363.330078125 331.333007812 389.330078125 316 407.997070312 c 0
 300.666992188 426.6640625 280.666992188 435.997070312 256 435.997070312 c 0
 231.333007812 435.997070312 209.333007812 426.497070312 190 407.497070312 c 0
 170.666992188 388.497070312 156 364.497070312 146 335.497070312 c 0
 136 306.497070312 131 279.330078125 131 253.997070312 c 0
 131 228.6640625 133 204.331054688 137 180.998046875 c 0
 141 157.665039062 148 135.998046875 158 115.998046875 c 0
 180.666992188 70.6650390625 217.333984375 47.83203125 268.000976562 47.4990234375 c 0
 268.365234375 47.4970703125 268.729492188 47.49609375 269.09375 47.49609375 c 0
 319.419921875 47.49609375 371.388671875 70.3310546875 425 116 c 1
EndSplineSet
Validated: 1
PairPos2: "'kern' Horizontal Kerning in Arabic lookup 14 subtable" uni062D dx=-195 dy=0 dh=-195 dv=0 dx=0 dy=0 dh=0 dv=0
EndChar

StartChar: d
Encoding: 100 100 67
Width: 551
GlyphClass: 1
Flags: W
LayerCount: 2
Fore
SplineSet
171.5 438 m 0
 201.166992188 454 232.831054688 462 266.498046875 462 c 0
 300.165039062 462 331.33203125 457 359.999023438 447 c 1
 366.999023438 451 l 1
 366.999023438 537 364.999023438 586.666992188 360.999023438 600 c 0
 357.666015625 613.333007812 350.666015625 622.666015625 339.999023438 627.999023438 c 0
 325.33203125 634.666015625 301.665039062 637.999023438 268.998046875 637.999023438 c 1
 267.998046875 659.999023438 l 1
 272.998046875 663.999023438 l 1
 435.998046875 683.999023438 l 1
 443.998046875 674.999023438 l 1
 443.998046875 109.999023438 l 2
 445.331054688 95.33203125 448.331054688 81.33203125 452.998046875 67.9990234375 c 0
 457.665039062 54.666015625 465.998046875 47.9990234375 477.998046875 47.9990234375 c 0
 489.998046875 47.9990234375 511.665039062 54.33203125 542.998046875 66.9990234375 c 1
 550.998046875 43.9990234375 l 1
 531.665039062 30.666015625 510.165039062 16.8330078125 486.498046875 2.5 c 0
 462.831054688 -11.8330078125 441.331054688 -19 421.998046875 -19 c 0
 402.665039062 -19 388.33203125 -11.1669921875 378.999023438 4.5 c 0
 369.666015625 20.1669921875 364.333007812 36.6669921875 363 54 c 1
 293 6 235 -18 189 -18 c 0
 136.333007812 -18 97.3330078125 4 72 48 c 0
 50.6669921875 85.3330078125 40 125.5 40 168.5 c 0
 40 211.5 44.8330078125 249.666992188 54.5 283 c 0
 64.1669921875 316.333007812 78.6669921875 346.5 98 373.5 c 0
 117.333007812 400.5 141.833007812 422 171.5 438 c 0
362.997070312 95 m 1
 366.997070312 310 l 2
 366.997070312 357.333007812 356.330078125 390.666015625 334.997070312 409.999023438 c 0
 321.6640625 421.999023438 300.997070312 427.999023438 272.997070312 427.999023438 c 0
 244.997070312 427.999023438 221.6640625 420.83203125 202.997070312 406.499023438 c 0
 184.330078125 392.166015625 169.330078125 373.666015625 157.997070312 350.999023438 c 0
 146.6640625 328.33203125 138.6640625 303.83203125 133.997070312 277.499023438 c 0
 129.330078125 251.166015625 126.997070312 226.333007812 126.997070312 203 c 0
 126.997070312 179.666992188 130.6640625 156 137.997070312 132 c 0
 145.330078125 108 157.497070312 88 174.497070312 72 c 0
 191.497070312 56 211.830078125 48 235.497070312 48 c 0
 259.1640625 48 282.997070312 52.5 306.997070312 61.5 c 0
 330.997070312 70.5 349.6640625 81.6669921875 362.997070312 95 c 1
EndSplineSet
Validated: 1
PairPos2: "'kern' Horizontal Kerning in Arabic lookup 14 subtable" uni062D dx=-195 dy=0 dh=-195 dv=0 dx=0 dy=0 dh=0 dv=0
EndChar

StartChar: e
Encoding: 101 101 68
Width: 462
GlyphClass: 2
Flags: W
AnchorPoint: "Anchor-11" 236 0 basechar 0
AnchorPoint: "Anchor-10" 256 462 basechar 0
LayerCount: 2
Fore
SplineSet
442 104 m 1
 359.333007812 26.6669921875 283.333007812 -11.9970703125 214 -11.9970703125 c 0
 152 -11.9970703125 107.666992188 13.3359375 81 64.0029296875 c 0
 59 106.002929688 48 160.002929688 48 226.002929688 c 0
 48 335.3359375 94.6669921875 411.3359375 188 454.002929688 c 0
 222.666992188 470.002929688 260.166992188 478.002929688 300.5 478.002929688 c 0
 340.833007812 478.002929688 373.833007812 464.669921875 399.5 438.002929688 c 0
 425.166992188 411.3359375 438 378.668945312 438 340.001953125 c 0
 438 334.001953125 435.833007812 329.668945312 431.5 327.001953125 c 0
 427.166992188 324.334960938 422.333984375 321.66796875 417.000976562 319.000976562 c 2
 135.000976562 197.000976562 l 1
 139.66796875 144.333984375 158.66796875 104.666992188 192.000976562 78 c 0
 210.66796875 63.3330078125 234.66796875 56 264.000976562 56 c 0
 307.333984375 56 358.666992188 78.6669921875 418 124 c 1
 429 122 l 1
 442 104 l 1
261 438.002929688 m 0
 227.666992188 438.002929688 199.666992188 424.001953125 177 396.001953125 c 0
 157.666992188 375.334960938 145.333984375 353.66796875 140.000976562 331.000976562 c 0
 134.66796875 307.66796875 131.66796875 289.334960938 131.000976562 276.001953125 c 0
 131.000976562 260.001953125 131.66796875 248.668945312 133.000976562 242.001953125 c 2
 137.000976562 238.001953125 l 1
 339.000976562 318.001953125 l 2
 347.66796875 321.334960938 352.000976562 330.001953125 352.000976562 344.001953125 c 0
 352.000976562 358.001953125 348.333984375 372.334960938 341.000976562 387.001953125 c 0
 333.66796875 401.668945312 323.16796875 413.8359375 309.500976562 423.502929688 c 0
 295.833984375 433.169921875 279.666992188 438.002929688 261 438.002929688 c 0
EndSplineSet
Validated: 1
PairPos2: "'kern' Horizontal Kerning in Arabic lookup 14 subtable" uni062D dx=-195 dy=0 dh=-195 dv=0 dx=0 dy=0 dh=0 dv=0
EndChar

StartChar: f
Encoding: 102 102 69
Width: 329
GlyphClass: 1
Flags: W
LayerCount: 2
Fore
SplineSet
109 -1 m 1
 117.666992188 127 121.999023438 221.666015625 121.999023438 282.999023438 c 2
 121.999023438 390.999023438 l 1
 115.999023438 398.999023438 l 1
 3.9990234375 398.999023438 l 1
 -1.0009765625 405.999023438 l 1
 2.9990234375 427.999023438 l 1
 9.9990234375 433.999023438 l 1
 114.999023438 433.999023438 l 1
 120.999023438 439.999023438 l 1
 120.999023438 494.666015625 127.83203125 537.499023438 141.499023438 568.499023438 c 0
 155.166015625 599.499023438 175.833007812 623.999023438 203.5 641.999023438 c 0
 231.166992188 659.999023438 259.666992188 668.999023438 289 668.999023438 c 0
 318.333007812 668.999023438 340 663.33203125 354 651.999023438 c 0
 368 640.666015625 378.333007812 628.333007812 385 615 c 1
 327 561 l 1
 315 565 l 1
 310.333007812 589.666992188 303.5 606.5 294.5 615.5 c 0
 285.5 624.5 273.5 629 258.5 629 c 0
 243.5 629 231.333007812 620.333007812 222 603 c 0
 205.30859375 571.54296875 196.962890625 519.995117188 196.962890625 448.35546875 c 0
 196.962890625 445.599609375 196.975585938 442.814453125 197 440 c 2
 201 434 l 1
 325 434 l 1
 330 427 l 1
 323 405 l 1
 316 399 l 1
 201 399 l 1
 195 393 l 1
 195 282 l 2
 195 183.333007812 198.333007812 93.3330078125 205 12 c 1
 126 -12 l 1
 109 -1 l 1
EndSplineSet
Validated: 1
Substitution2: "Single Substitution lookup 81 subtable" glyph576
PairPos2: "'kern' Horizontal Kerning in Arabic lookup 14 subtable" uni062D dx=-195 dy=0 dh=-195 dv=0 dx=0 dy=0 dh=0 dv=0
EndChar

StartChar: g
Encoding: 103 103 70
Width: 511
GlyphClass: 1
Flags: W
LayerCount: 2
Fore
SplineSet
451 454 m 1
 445 352 441.998046875 259.668945312 441.998046875 177.001953125 c 0
 441.998046875 95.001953125 440.665039062 38.001953125 437.998046875 6.001953125 c 0
 436.665039062 -25.998046875 431.33203125 -54.6650390625 421.999023438 -79.998046875 c 0
 407.999023438 -119.331054688 382.999023438 -152.331054688 346.999023438 -178.998046875 c 0
 299.666015625 -214.998046875 245.666015625 -232.998046875 184.999023438 -232.998046875 c 0
 162.999023438 -232.998046875 140.666015625 -229.331054688 117.999023438 -221.998046875 c 0
 95.33203125 -214.665039062 71.6650390625 -199.665039062 46.998046875 -176.998046875 c 1
 95.998046875 -114.998046875 l 1
 109.998046875 -114.998046875 l 1
 121.998046875 -140.331054688 142.665039062 -161.998046875 171.998046875 -179.998046875 c 0
 185.331054688 -187.998046875 197.998046875 -191.998046875 209.998046875 -191.998046875 c 0
 244.665039062 -191.998046875 273.33203125 -181.331054688 295.999023438 -159.998046875 c 0
 338.666015625 -119.331054688 361.666015625 -50.998046875 364.999023438 45.001953125 c 1
 355.999023438 52.001953125 l 1
 329.999023438 37.3349609375 302.83203125 23.16796875 274.499023438 9.5009765625 c 0
 246.166015625 -4.166015625 217.333007812 -10.9990234375 188 -10.9990234375 c 0
 158.666992188 -10.9990234375 133 -2.83203125 111 13.5009765625 c 0
 89 29.833984375 71.6669921875 52.6669921875 59 82 c 0
 46.3330078125 111.333007812 40 150.5 40 199.5 c 0
 40 248.5 50.1669921875 294 70.5 336 c 0
 90.8330078125 378 118.333007812 410 153 432 c 0
 187.666992188 454 227.666992188 465 273 465 c 0
 318.333007812 465 356 453.666992188 386 431 c 1
 437 460 l 1
 451 454 l 1
364.998046875 99.001953125 m 1
 364.994140625 363.002929688 l 2
 363.661132812 386.3359375 353.828125 403.502929688 335.495117188 414.502929688 c 0
 317.162109375 425.502929688 295.329101562 431.002929688 269.99609375 431.002929688 c 0
 244.663085938 431.002929688 222.330078125 423.502929688 202.997070312 408.502929688 c 0
 183.6640625 393.502929688 168.331054688 374.002929688 156.998046875 350.002929688 c 0
 136.331054688 306.669921875 125.998046875 257.669921875 125.998046875 203.002929688 c 0
 125.998046875 173.002929688 131.998046875 146.669921875 143.998046875 124.002929688 c 0
 155.998046875 101.3359375 170.831054688 83.6689453125 188.498046875 71.001953125 c 0
 206.165039062 58.3349609375 222.998046875 52.001953125 238.998046875 52.001953125 c 0
 255.665039062 52.001953125 271.998046875 54.6689453125 287.998046875 60.001953125 c 0
 321.331054688 70.6689453125 346.998046875 83.6689453125 364.998046875 99.001953125 c 1
EndSplineSet
Validated: 1
PairPos2: "'kern' Horizontal Kerning in Arabic lookup 14 subtable" uni062D dx=-195 dy=0 dh=-195 dv=0 dx=0 dy=0 dh=0 dv=0
EndChar

StartChar: h
Encoding: 104 104 71
Width: 592
GlyphClass: 1
Flags: W
LayerCount: 2
Fore
SplineSet
499 62 m 0
 527 62 557.001953125 76.99609375 589.001953125 106.99609375 c 1
 602.001953125 96.99609375 l 1
 602.001953125 85.99609375 l 1
 580.001953125 62.6630859375 555.834960938 40.830078125 529.501953125 20.4970703125 c 0
 503.168945312 0.1640625 476.668945312 -10.0029296875 450.001953125 -10.0029296875 c 0
 423.334960938 -10.0029296875 404.834960938 0.330078125 394.501953125 20.9970703125 c 0
 384.168945312 41.6640625 379.001953125 64.3310546875 379.001953125 88.998046875 c 2
 383.001953125 265.998046875 l 2
 382.334960938 325.998046875 372.001953125 365.998046875 352.001953125 385.998046875 c 0
 340.001953125 397.998046875 321.001953125 403.998046875 295.001953125 403.998046875 c 0
 269.001953125 403.998046875 244.001953125 397.498046875 220.001953125 384.498046875 c 0
 196.001953125 371.498046875 174.334960938 357.998046875 155.001953125 343.998046875 c 1
 153.001953125 15.998046875 l 1
 81.001953125 -6.001953125 l 1
 75.001953125 3.998046875 l 1
 83.001953125 169.331054688 87.3349609375 289.331054688 88.001953125 363.998046875 c 0
 88.6689453125 438.665039062 89.001953125 494.83203125 89.001953125 532.499023438 c 0
 89.001953125 570.166015625 82.3349609375 597.999023438 69.001953125 615.999023438 c 0
 62.3349609375 624.666015625 36.66796875 633.333007812 -7.9990234375 642 c 1
 -7.9990234375 660 l 1
 -2.9990234375 664 l 1
 155.000976562 681 l 1
 161.000976562 674 l 1
 158.333984375 617.333007812 157.000976562 525.333007812 157.000976562 398 c 1
 165.000976562 390 l 1
 194.333984375 408 226.000976562 425.166992188 260.000976562 441.5 c 0
 294.000976562 457.833007812 329.333984375 466 366.000976562 466 c 0
 373.333984375 466 383.666992188 463.666992188 397 459 c 0
 435 445 454 414.666992188 454 368 c 0
 454 336 454.333007812 300 455 260 c 2
 455 186 l 2
 454.333007812 176 454 167 454 159 c 2
 454 144 l 2
 454 89.3330078125 469 62 499 62 c 0
EndSplineSet
Validated: 1
PairPos2: "'kern' Horizontal Kerning in Arabic lookup 14 subtable" uni062D dx=-195 dy=0 dh=-195 dv=0 dx=0 dy=0 dh=0 dv=0
EndChar

StartChar: i
Encoding: 105 105 72
Width: 323
GlyphClass: 1
Flags: W
LayerCount: 2
Fore
SplineSet
192 665.5 m 0
 201.01171875 654.235351562 205.517578125 640.951171875 205.517578125 625.647460938 c 0
 205.517578125 608.854492188 199.51171875 595.138671875 187.5 584.5 c 0
 175.833007812 574.166992188 162 569 146 569 c 0
 130 569 116.333007812 574.666992188 105 586 c 0
 93.6669921875 597.333007812 88 611.333007812 88 628 c 0
 88 644.666992188 95 658 109 668 c 0
 123 678 138 683 154 683 c 0
 170 683 182.666992188 677.166992188 192 665.5 c 0
-10 396 m 1
 52.6669921875 446 99.3349609375 471.000976562 130.001953125 471.000976562 c 0
 152.668945312 471.000976562 168.668945312 463.333984375 178.001953125 448.000976562 c 0
 187.334960938 432.66796875 192.001953125 414.000976562 192.001953125 392.000976562 c 2
 184.001953125 182.000976562 l 2
 184.001953125 145.333984375 187.001953125 116.666992188 193.001953125 96 c 0
 199.001953125 75.3330078125 211.168945312 65 229.501953125 65 c 0
 247.834960938 65 264.16796875 69.5 278.500976562 78.5 c 0
 292.833984375 87.5 306.666992188 98 320 110 c 1
 333 100 l 1
 333 89 l 1
 283 24.3330078125 236 -8 192 -8 c 0
 158 -8 135 5 123 31 c 0
 115.666992188 47 112 71.3330078125 112 104 c 2
 118 325 l 2
 118 351 115.5 371.666992188 110.5 387 c 0
 105.5 402.333007812 95 410 79 410 c 0
 63 410 37.6669921875 399.333007812 3 378 c 1
 -10 396 l 1
EndSplineSet
Validated: 1
PairPos2: "'kern' Horizontal Kerning in Arabic lookup 14 subtable" uni062D dx=-195 dy=0 dh=-195 dv=0 dx=0 dy=0 dh=0 dv=0
EndChar

StartChar: j
Encoding: 106 106 73
Width: 291
GlyphClass: 1
Flags: W
LayerCount: 2
Fore
SplineSet
117.5 666 m 0
 129.166992188 677.333007812 142.83203125 683 158.499023438 683 c 0
 174.166015625 683 187.833007812 678 199.5 668 c 0
 211.166992188 658 217 644.833007812 217 628.5 c 0
 217 612.166992188 211.166992188 597.5 199.5 584.5 c 0
 187.833007812 571.5 173.5 565 156.5 565 c 0
 139.5 565 125.833007812 571 115.5 583 c 0
 105.166992188 595 100 609 100 625 c 0
 100 641 105.833007812 654.666992188 117.5 666 c 0
17.998046875 375 m 1
 5 393 l 1
 45.6669921875 424.333007812 75.6669921875 444.666015625 95 453.999023438 c 0
 114.333007812 463.33203125 133.666015625 467.999023438 152.999023438 467.999023438 c 0
 185.666015625 467.999023438 203.666015625 445.666015625 206.999023438 400.999023438 c 0
 211.666015625 376.33203125 213.999023438 331.33203125 213.999023438 265.999023438 c 2
 213.999023438 179.999023438 l 2
 213.999023438 122.666015625 213.33203125 83.3330078125 211.999023438 62 c 0
 209.33203125 4 205.999023438 -30.3330078125 201.999023438 -41 c 0
 175.999023438 -118.333007812 110.666015625 -181.666015625 5.9990234375 -230.999023438 c 1
 -10.0009765625 -214.999023438 l 1
 61.9990234375 -172.999023438 104.666015625 -126.666015625 117.999023438 -75.9990234375 c 0
 127.999023438 -38.666015625 134.33203125 23.0009765625 136.999023438 109.000976562 c 0
 137.666015625 128.333984375 137.999023438 155.833984375 137.999023438 191.500976562 c 0
 137.999023438 227.16796875 137.33203125 262.16796875 135.999023438 296.500976562 c 0
 134.666015625 330.833984375 132.499023438 356.000976562 129.499023438 372.000976562 c 0
 126.499023438 388.000976562 122.166015625 398.000976562 116.499023438 402.000976562 c 0
 110.83203125 406.000976562 103.665039062 408.000976562 94.998046875 408.000976562 c 0
 86.3310546875 408.000976562 74.498046875 404.16796875 59.498046875 396.500976562 c 0
 44.498046875 388.833984375 30.6650390625 381.666992188 17.998046875 375 c 1
EndSplineSet
Validated: 1
PairPos2: "'kern' Horizontal Kerning in Arabic lookup 14 subtable" uni062D dx=-195 dy=0 dh=-195 dv=0 dx=0 dy=0 dh=0 dv=0
EndChar

StartChar: k
Encoding: 107 107 74
Width: 516
GlyphClass: 1
Flags: W
LayerCount: 2
Fore
SplineSet
433 73 m 0
 460.333007812 73 486.333984375 85.9990234375 511.000976562 111.999023438 c 1
 530.000976562 91.9990234375 l 1
 501.333984375 53.9990234375 477.500976562 27.9990234375 458.500976562 13.9990234375 c 0
 439.500976562 -0.0009765625 421.833984375 -7.0009765625 405.500976562 -7.0009765625 c 0
 389.16796875 -7.0009765625 375.66796875 -3.5009765625 365.000976562 3.4990234375 c 0
 354.333984375 10.4990234375 340.666992188 23.33203125 324 41.9990234375 c 2
 310 61.9990234375 l 2
 296 81.9990234375 272.666992188 111.83203125 240 151.499023438 c 0
 207.333007812 191.166015625 182 220.999023438 164 240.999023438 c 1
 152 233.999023438 l 1
 152 12.9990234375 l 1
 81 -7.0009765625 l 1
 75 -0.0009765625 l 1
 77 78.666015625 79.5 156.666015625 82.5 233.999023438 c 0
 85.5 311.33203125 87 375.999023438 87 427.999023438 c 0
 87 514.666015625 84 569.999023438 78 593.999023438 c 0
 73.3330078125 609.33203125 64.5 619.83203125 51.5 625.499023438 c 0
 38.5 631.166015625 18.6669921875 635.333007812 -8 638 c 1
 -8 659 l 1
 -3 663 l 1
 157 686 l 1
 154 679 l 1
 154 266 l 1
 167 266 l 1
 301 389 l 2
 349.666992188 433.666992188 378.666992188 459.666992188 388 467 c 0
 397.333007812 474.333007812 406 480.333007812 414 485 c 1
 460 456 l 1
 460 445 l 1
 386 401 315 350.666992188 247 294 c 0
 235 284.666992188 229 278.333984375 229 275.000976562 c 0
 229 271.66796875 230 268.66796875 232 266.000976562 c 0
 234 263.333984375 235.666992188 260.666992188 237 258 c 0
 299.666992188 178 352 122.333007812 394 91 c 0
 410 79 423 73 433 73 c 0
EndSplineSet
Validated: 1
PairPos2: "'kern' Horizontal Kerning in Arabic lookup 14 subtable" uni062D dx=-195 dy=0 dh=-195 dv=0 dx=0 dy=0 dh=0 dv=0
EndChar

StartChar: l
Encoding: 108 108 75
Width: 301
GlyphClass: 1
Flags: W
LayerCount: 2
Fore
SplineSet
311 100 m 1
 262.333007812 26 211.66796875 -11.00390625 159.000976562 -11.00390625 c 0
 158.346679688 -11.015625 157.696289062 -11.021484375 157.049804688 -11.021484375 c 0
 122.1328125 -11.021484375 98.783203125 6.6513671875 87.0009765625 41.9970703125 c 0
 80.333984375 61.9970703125 77.0009765625 91.330078125 77.0009765625 129.997070312 c 2
 84.0009765625 507.997070312 l 2
 84.0009765625 559.997070312 82.66796875 592.330078125 80.0009765625 604.997070312 c 0
 77.333984375 617.6640625 71.0009765625 625.831054688 61.0009765625 629.498046875 c 0
 51.0009765625 633.165039062 39.66796875 635.33203125 27.0009765625 635.999023438 c 0
 14.333984375 636.666015625 2.6669921875 637.333007812 -8 638 c 1
 -8 661 l 1
 -2 666 l 1
 163 686 l 1
 169 679 l 1
 167 609 164.166992188 539 160.5 469 c 0
 156.833007812 399 155 346.5 155 311.5 c 0
 155 276.5 154.666992188 226.666992188 154 162 c 0
 154 134 157.333007812 111 164 93 c 0
 170.666992188 75 183 65.8330078125 201 65.5 c 0
 201.5625 65.4892578125 202.123046875 65.484375 202.681640625 65.484375 c 0
 219.998046875 65.484375 235.4375 70.4892578125 249 80.5 c 0
 263 90.8330078125 276.333007812 101.333007812 289 112 c 1
 300 112 l 1
 311 100 l 1
EndSplineSet
Validated: 1
PairPos2: "'kern' Horizontal Kerning in Arabic lookup 14 subtable" uni062D dx=-195 dy=0 dh=-195 dv=0 dx=0 dy=0 dh=0 dv=0
EndChar

StartChar: m
Encoding: 109 109 76
Width: 873
GlyphClass: 1
Flags: W
LayerCount: 2
Fore
SplineSet
655 59 m 2
 660.001953125 268.997070312 l 2
 660.001953125 310.330078125 654.001953125 342.497070312 642.001953125 365.497070312 c 0
 630.001953125 388.497070312 609.668945312 399.997070312 581.001953125 399.997070312 c 0
 552.334960938 399.997070312 529.001953125 396.330078125 511.001953125 388.997070312 c 0
 493.001953125 381.6640625 477.001953125 373.997070312 463.001953125 365.997070312 c 1
 461.668945312 320.6640625 461.001953125 268.6640625 461.001953125 209.997070312 c 0
 461.001953125 151.330078125 463.001953125 87.330078125 467.001953125 17.9970703125 c 1
 393.001953125 -10.0029296875 l 1
 383.001953125 -4.0029296875 l 1
 383.668945312 6.6640625 384.668945312 26.3310546875 386.001953125 54.998046875 c 0
 391.021484375 135.939453125 393.53125 200.493164062 393.53125 248.659179688 c 0
 393.53125 251.669921875 393.521484375 254.616210938 393.501953125 257.499023438 c 0
 393.168945312 306.499023438 387.668945312 342.499023438 377.001953125 365.499023438 c 0
 366.334960938 388.499023438 344.334960938 399.999023438 311.001953125 399.999023438 c 0
 283.668945312 399.999023438 252.668945312 389.999023438 218.001953125 369.999023438 c 0
 205.334960938 362.666015625 197.334960938 357.999023438 194.001953125 355.999023438 c 0
 190.668945312 265.999023438 189.001953125 196.83203125 189.001953125 148.499023438 c 0
 189.001953125 100.166015625 189.668945312 55.3330078125 191.001953125 14 c 1
 124.001953125 -10 l 1
 110.001953125 -2 l 1
 110.668945312 44 112.001953125 90 114.001953125 136 c 0
 116.001953125 182 117.001953125 222.666992188 117.001953125 258 c 0
 117.001953125 293.333007812 116.501953125 321.5 115.501953125 342.5 c 0
 114.501953125 363.5 111.334960938 380.333007812 106.001953125 393 c 0
 100.668945312 405.666992188 90.1689453125 412 74.501953125 412 c 0
 58.8349609375 412 34.66796875 402.333007812 2.0009765625 383 c 1
 -9.9990234375 402 l 1
 10.0009765625 418 31.66796875 433.333007812 55.0009765625 448 c 0
 78.333984375 462.666992188 102.500976562 470.166992188 127.500976562 470.5 c 0
 128.033203125 470.506835938 128.561523438 470.510742188 129.0859375 470.510742188 c 0
 153.200195312 470.510742188 169.171875 463.006835938 177.001953125 448 c 0
 185.001953125 432.666992188 189.001953125 415.666992188 189.001953125 397 c 1
 197.001953125 391 l 1
 223.001953125 405 250.668945312 419.833007812 280.001953125 435.5 c 0
 309.334960938 451.166992188 336.001953125 459 360.001953125 459 c 0
 405.334960938 459 438.334960938 441.666992188 459.001953125 407 c 1
 475.001953125 405 l 1
 517.668945312 427.666992188 550.168945312 442.5 572.501953125 449.5 c 0
 594.834960938 456.5 614.66796875 460 632.000976562 460 c 0
 669.333984375 460 695.666992188 452.166992188 711 436.5 c 0
 726.333007812 420.833007812 734 398 734 368 c 2
 734 117 l 2
 734 73.6669921875 751 52 785 52 c 0
 799.666992188 52 825.333984375 65.3330078125 862.000976562 92 c 1
 876.000976562 92 l 1
 883.000976562 71 l 1
 841.66796875 33.6669921875 809.66796875 9.5 787.000976562 -1.5 c 0
 764.333984375 -12.5 742.166992188 -18 720.5 -18 c 0
 698.833007812 -18 682.5 -9.8330078125 671.5 6.5 c 0
 660.5 22.8330078125 655 40.3330078125 655 59 c 2
EndSplineSet
Validated: 1
PairPos2: "'kern' Horizontal Kerning in Arabic lookup 14 subtable" uni062D dx=-195 dy=0 dh=-195 dv=0 dx=0 dy=0 dh=0 dv=0
EndChar

StartChar: n
Encoding: 110 110 77
Width: 631
GlyphClass: 2
Flags: W
AnchorPoint: "Anchor-11" 317 0 basechar 0
AnchorPoint: "Anchor-10" 317 462 basechar 0
LayerCount: 2
Fore
SplineSet
198 349 m 1
 194 241 191.999023438 173.833984375 191.999023438 147.500976562 c 0
 191.999023438 121.16796875 192.999023438 78.0009765625 194.999023438 18.0009765625 c 1
 124.999023438 -5.9990234375 l 1
 109.999023438 1.0009765625 l 1
 115.999023438 115.000976562 118.999023438 201.333984375 118.999023438 260.000976562 c 0
 118.999023438 318.66796875 116.999023438 358.834960938 112.999023438 380.501953125 c 0
 108.999023438 402.168945312 98.666015625 413.001953125 81.9990234375 413.001953125 c 0
 71.33203125 413.001953125 59.83203125 409.501953125 47.4990234375 402.501953125 c 0
 35.166015625 395.501953125 21.666015625 387.334960938 6.9990234375 378.001953125 c 1
 -10.0009765625 400.001953125 l 1
 32.666015625 430.001953125 62.8330078125 449.334960938 80.5 458.001953125 c 0
 98.1669921875 466.668945312 113 471.001953125 125 471.001953125 c 0
 150.333007812 471.001953125 168 464.334960938 178 451.001953125 c 0
 188 437.668945312 194.333007812 421.668945312 197 403.001953125 c 1
 205 397.001953125 l 1
 233 414.334960938 263.5 430.66796875 296.5 446.000976562 c 0
 329.5 461.333984375 362 469.000976562 394 469.000976562 c 0
 429.333007812 469.000976562 455 459.333984375 471 440.000976562 c 0
 484.333007812 424.000976562 491 362.66796875 491 256.000976562 c 0
 491 206.000976562 491.166992188 166.66796875 491.5 138.000976562 c 0
 491.833007812 109.333984375 495.166015625 89.1669921875 501.499023438 77.5 c 0
 507.83203125 65.8330078125 519.999023438 60 537.999023438 60 c 0
 555.999023438 60 582.999023438 73.3330078125 618.999023438 100 c 1
 631.999023438 100 l 1
 640.999023438 79 l 1
 618.33203125 56.3330078125 592.499023438 35.8330078125 563.499023438 17.5 c 0
 534.499023438 -0.8330078125 507.999023438 -10 483.999023438 -10 c 0
 435.999023438 -10 411.999023438 19.3330078125 411.999023438 78 c 2
 416.999023438 249 l 2
 416.999023438 299 410.83203125 338.333007812 398.499023438 367 c 0
 386.166015625 395.666992188 362.333007812 410 327 410 c 0
 291 410 248 389.666992188 198 349 c 1
EndSplineSet
Validated: 1
PairPos2: "'kern' Horizontal Kerning in Arabic lookup 14 subtable" uni062D dx=-195 dy=0 dh=-195 dv=0 dx=0 dy=0 dh=0 dv=0
EndChar

StartChar: o
Encoding: 111 111 78
Width: 537
GlyphClass: 2
Flags: W
AnchorPoint: "Anchor-11" 269 0 basechar 0
AnchorPoint: "Anchor-10" 269 462 basechar 0
LayerCount: 2
Fore
SplineSet
431 59 m 0
 388.333007812 10.3330078125 322.665039062 -14.0009765625 233.998046875 -14.0009765625 c 0
 193.998046875 -14.0009765625 159.998046875 -4.0009765625 131.998046875 15.9990234375 c 0
 82.6650390625 51.9990234375 54.6650390625 111.999023438 47.998046875 195.999023438 c 0
 47.998046875 230.666015625 51.1650390625 265.333007812 57.498046875 300 c 0
 63.8310546875 334.666992188 78.8310546875 365 102.498046875 391 c 0
 126.165039062 417 154.83203125 435.833007812 188.499023438 447.5 c 0
 222.166015625 459.166992188 259.999023438 465 301.999023438 465 c 0
 343.999023438 465 379.33203125 454 407.999023438 432 c 0
 436.666015625 410 457.333007812 381.666992188 470 347 c 0
 482.666992188 311.666992188 489 276.666992188 489 242 c 0
 489 163.333007812 469.666992188 102.333007812 431 59 c 0
191.999023438 398.999023438 m 0
 153.33203125 369.666015625 133.998046875 316.330078125 133.998046875 238.997070312 c 0
 133.998046875 187.6640625 142.665039062 141.997070312 159.998046875 101.997070312 c 0
 181.998046875 52.6640625 218.331054688 27.6640625 268.998046875 26.9970703125 c 0
 338.998046875 26.9970703125 380.665039062 69.6640625 393.998046875 154.997070312 c 0
 397.998046875 177.6640625 399.998046875 199.331054688 399.998046875 219.998046875 c 0
 399.998046875 240.665039062 398.331054688 262.83203125 394.998046875 286.499023438 c 0
 391.665039062 310.166015625 385.33203125 332.666015625 375.999023438 353.999023438 c 0
 355.999023438 401.999023438 319.999023438 425.999023438 267.999023438 425.999023438 c 0
 241.33203125 425.999023438 215.999023438 416.999023438 191.999023438 398.999023438 c 0
EndSplineSet
Validated: 1
PairPos2: "'kern' Horizontal Kerning in Arabic lookup 14 subtable" uni062D dx=-195 dy=0 dh=-195 dv=0 dx=0 dy=0 dh=0 dv=0
EndChar

StartChar: p
Encoding: 112 112 79
Width: 562
GlyphClass: 1
Flags: W
LayerCount: 2
Fore
SplineSet
201 391 m 1
 264.333007812 440.333007812 325.666015625 465 384.999023438 465 c 0
 418.999023438 465 445.999023438 456.333007812 465.999023438 439 c 0
 485.999023438 421.666992188 500.33203125 400.166992188 508.999023438 374.5 c 0
 517.666015625 348.833007812 521.999023438 320.5 521.999023438 289.5 c 0
 521.999023438 258.5 515.83203125 224.666992188 503.499023438 188 c 0
 491.166015625 151.333007812 473.499023438 118 450.499023438 88 c 0
 427.499023438 58 399.999023438 34 367.999023438 16 c 0
 335.999023438 -2 300.666015625 -11 261.999023438 -11 c 0
 242.666015625 -11 222.999023438 -8.3330078125 202.999023438 -3 c 1
 192.999023438 -11 l 1
 193.666015625 -26.3330078125 194.333007812 -46 195 -70 c 0
 196.333007812 -128.666992188 199 -174 203 -206 c 1
 122 -237 l 1
 112 -226 l 1
 116 -192 118 -133 118 -49 c 2
 118 315 l 2
 118 351.666992188 112.666992188 379 102 397 c 0
 96.6669921875 407 87.1669921875 412 73.5 412 c 0
 59.8330078125 412 37.3330078125 402.333007812 6 383 c 1
 -8 402 l 1
 48.6669921875 447.333007812 94 470 128 470 c 0
 150.666992188 470 166.666992188 463 176 449 c 0
 185.333007812 435 191 417 193 395 c 1
 201 391 l 1
196 345 m 0
 196 344.333007812 195.33203125 328.666992188 193.999023438 298 c 0
 193.465820312 285.733398438 193.19921875 266 193.19921875 238.799804688 c 0
 193.19921875 198 193.798828125 140.400390625 194.999023438 66 c 1
 222.999023438 41.3330078125 252.166015625 29 282.499023438 29 c 0
 312.83203125 29 337.999023438 35.3330078125 357.999023438 48 c 0
 377.999023438 60 393.999023438 76.6669921875 405.999023438 98 c 0
 427.33203125 136.666992188 437.999023438 183.666992188 437.999023438 239 c 0
 437.999023438 301 421.999023438 348 389.999023438 380 c 0
 374.666015625 395.333007812 356.333007812 403 335 403 c 0
 290.333007812 403 244 383.666992188 196 345 c 0
EndSplineSet
Validated: 1
PairPos2: "'kern' Horizontal Kerning in Arabic lookup 14 subtable" uni062D dx=-195 dy=0 dh=-195 dv=0 dx=0 dy=0 dh=0 dv=0
EndChar

StartChar: q
Encoding: 113 113 80
Width: 508
GlyphClass: 1
Flags: W
LayerCount: 2
Fore
SplineSet
453 500 m 1
 443.666992188 384 439.000976562 258.331054688 439.000976562 122.998046875 c 0
 439.000976562 -12.3349609375 443.000976562 -124.66796875 451.000976562 -214.000976562 c 1
 370.000976562 -243.000976562 l 1
 354.000976562 -227.000976562 l 2
 354.000976562 -223.66796875 356.66796875 -130.000976562 362.000976562 53.9990234375 c 1
 355.000976562 58.9990234375 l 1
 295.000976562 14.9990234375 237.66796875 -7.0009765625 183.000976562 -7.0009765625 c 0
 134.333984375 -7.0009765625 97.333984375 14.666015625 72.0009765625 57.9990234375 c 0
 50.66796875 94.666015625 40.0009765625 133.833007812 40.0009765625 175.5 c 0
 40.0009765625 217.166992188 44.66796875 254.666992188 54.0009765625 288 c 0
 63.333984375 321.333007812 77.6669921875 352 97 380 c 0
 139 440 200 470.333007812 280 471 c 0
 310.666992188 471 343.666992188 461.666992188 379 443 c 1
 388 445 l 1
 432 504 l 1
 453 500 l 1
246.000976562 54.998046875 m 0
 285.333984375 54.998046875 324.000976562 71.6650390625 362.000976562 104.998046875 c 1
 362.000976562 330.998046875 l 2
 362.000976562 343.665039062 361.333984375 356.665039062 360.000976562 369.998046875 c 0
 358.66796875 383.331054688 354.000976562 394.331054688 346.000976562 402.998046875 c 0
 326.000976562 423.665039062 303.66796875 433.998046875 279.000976562 433.998046875 c 0
 241.000976562 433.998046875 211.333984375 423.331054688 190.000976562 401.998046875 c 0
 151.333984375 363.331054688 132.000976562 300.331054688 132.000976562 212.998046875 c 0
 132.000976562 150.331054688 148.000976562 104.998046875 180.000976562 76.998046875 c 0
 196.66796875 62.3310546875 218.66796875 54.998046875 246.000976562 54.998046875 c 0
EndSplineSet
Validated: 1
PairPos2: "'kern' Horizontal Kerning in Arabic lookup 14 subtable" uni062D dx=-195 dy=0 dh=-195 dv=0 dx=0 dy=0 dh=0 dv=0
EndChar

StartChar: r
Encoding: 114 114 81
Width: 416
GlyphClass: 1
Flags: W
LayerCount: 2
Fore
SplineSet
0 398 m 1
 62.6669921875 448 106.334960938 472.998046875 131.001953125 472.998046875 c 0
 175.668945312 472.998046875 201.001953125 448.998046875 207.001953125 400.998046875 c 1
 217.001953125 396.998046875 l 1
 249.001953125 426.998046875 272.334960938 446.165039062 287.001953125 454.498046875 c 0
 301.668945312 462.831054688 315.001953125 466.998046875 327.001953125 466.998046875 c 0
 374.334960938 466.998046875 400.66796875 440.665039062 406.000976562 387.998046875 c 1
 352.000976562 338.998046875 l 1
 340.000976562 343.998046875 l 1
 332.66796875 382.665039062 315.000976562 401.998046875 287.000976562 401.998046875 c 0
 266.333984375 401.998046875 249.666992188 394.998046875 237 380.998046875 c 0
 224.333007812 366.998046875 215.333007812 353.998046875 210 341.998046875 c 0
 204.666992188 328.665039062 202 309.33203125 202 283.999023438 c 2
 202 239.999023438 l 2
 202 210.666015625 202.166992188 179.166015625 202.5 145.499023438 c 0
 202.833007812 111.83203125 204 69.33203125 206 17.9990234375 c 1
 136 -3.0009765625 l 1
 121 5.9990234375 l 1
 129 90.666015625 133 157.833007812 133 207.5 c 0
 133 257.166992188 132.666992188 295 132 321 c 0
 130.666992188 381.666992188 116.666992188 412 90 412 c 0
 74 412 48 401.666992188 12 381 c 1
 0 398 l 1
EndSplineSet
Validated: 1
PairPos2: "'kern' Horizontal Kerning in Arabic lookup 14 subtable" uni062D dx=-195 dy=0 dh=-195 dv=0 dx=0 dy=0 dh=0 dv=0
EndChar

StartChar: s
Encoding: 115 115 82
Width: 379
GlyphClass: 1
Flags: W
LayerCount: 2
Fore
SplineSet
342 383 m 1
 286.999023438 346.000976562 l 1
 274.999023438 353.000976562 l 1
 271.666015625 405.000976562 249.999023438 431.000976562 209.999023438 431.000976562 c 0
 186.666015625 431.000976562 167.166015625 423.333984375 151.499023438 408.000976562 c 0
 135.83203125 392.66796875 127.999023438 374.16796875 127.999023438 352.500976562 c 0
 127.999023438 330.833984375 137.33203125 312.666992188 155.999023438 298 c 0
 174.666015625 283.333007812 202.666015625 268.333007812 239.999023438 253 c 0
 315.337890625 221.278320312 353.0078125 183.333007812 353.0078125 139.1640625 c 0
 353.0078125 104.395507812 343.504882812 75.5078125 324.499023438 52.5009765625 c 0
 305.499023438 29.5009765625 281.33203125 12.0009765625 251.999023438 0.0009765625 c 0
 224.209960938 -11.3671875 196.420898438 -17.0517578125 168.631835938 -17.0517578125 c 2
 164 -16.9990234375 l 2
 96 -16.9990234375 47.3330078125 10.66796875 18 66.0009765625 c 1
 67 137.000976562 l 1
 81 136.000976562 l 1
 83 105.333984375 94.6669921875 78.5009765625 116 55.5009765625 c 0
 137.333007812 32.5009765625 161.166015625 21.0009765625 187.499023438 21.0009765625 c 0
 213.83203125 21.0009765625 235.83203125 28.5009765625 253.499023438 43.5009765625 c 0
 271.166015625 58.5009765625 279.999023438 75.5009765625 279.999023438 94.5009765625 c 0
 279.999023438 113.500976562 274.999023438 129.000976562 264.999023438 141.000976562 c 0
 248.999023438 160.333984375 225.83203125 176.333984375 195.499023438 189.000976562 c 0
 165.166015625 201.66796875 140.333007812 213.66796875 121 225.000976562 c 0
 77.6669921875 250.333984375 56 283.000976562 56 323.000976562 c 0
 56 353.000976562 64.6669921875 378.66796875 82 400.000976562 c 0
 99.3330078125 421.333984375 121.333007812 437.666992188 148 449 c 0
 174.666992188 460.333007812 199.333984375 466 222.000976562 466 c 0
 243.333984375 466 262.666992188 463.333007812 280 458 c 0
 320 445.333007812 340.666992188 420.333007812 342 383 c 1
EndSplineSet
Validated: 1
PairPos2: "'kern' Horizontal Kerning in Arabic lookup 14 subtable" uni062D dx=-195 dy=0 dh=-195 dv=0 dx=0 dy=0 dh=0 dv=0
EndChar

StartChar: t
Encoding: 116 116 83
Width: 385
GlyphClass: 1
Flags: W
LayerCount: 2
Fore
SplineSet
382 79 m 1
 319.333007812 20.3330078125 264.668945312 -9 218.001953125 -9 c 0
 172.668945312 -9 143.668945312 11.3330078125 131.001953125 52 c 0
 125.668945312 69.3330078125 123.001953125 119.666015625 123.001953125 202.999023438 c 2
 123.001953125 392.999023438 l 1
 117.001953125 399.999023438 l 1
 5.001953125 399.999023438 l 1
 0.001953125 404.999023438 l 1
 7.001953125 428.999023438 l 1
 13.001953125 434.999023438 l 1
 117.001953125 434.999023438 l 1
 123.001953125 440.999023438 l 1
 123.001953125 501.999023438 l 2
 123.001953125 542.666015625 122.334960938 569.333007812 121.001953125 582 c 1
 205.001953125 611 l 1
 212.001953125 606 l 1
 205.334960938 537.333007812 201.66796875 482 201.000976562 440 c 1
 207.000976562 435 l 1
 335.000976562 435 l 1
 340.000976562 431 l 1
 332.000976562 405 l 1
 326.000976562 400 l 1
 207.000976562 400 l 1
 201.000976562 394 l 1
 201.000976562 205 l 2
 201.66796875 144.333007812 210.000976562 102 226.000976562 78 c 0
 236.66796875 63.3330078125 251.500976562 55.8330078125 270.500976562 55.5 c 0
 270.729492188 55.49609375 270.959960938 55.494140625 271.192382812 55.494140625 c 0
 290.245117188 55.494140625 320.84765625 68.99609375 363 96 c 1
 375 94 l 1
 382 79 l 1
EndSplineSet
Validated: 1
PairPos2: "'kern' Horizontal Kerning in Arabic lookup 14 subtable" uni062D dx=-195 dy=0 dh=-195 dv=0 dx=0 dy=0 dh=0 dv=0
EndChar

StartChar: u
Encoding: 117 117 84
Width: 638
GlyphClass: 2
Flags: W
AnchorPoint: "Anchor-11" 319 0 basechar 0
AnchorPoint: "Anchor-10" 319 462 basechar 0
LayerCount: 2
Fore
SplineSet
505.5 81.5 m 0
 512.5 70.5 524.998046875 64.998046875 542.998046875 64.998046875 c 0
 560.998046875 64.998046875 588.998046875 78.998046875 626.998046875 106.998046875 c 1
 634.998046875 104.998046875 l 1
 645.998046875 85.998046875 l 1
 602.665039062 48.6650390625 569.33203125 23.6650390625 545.999023438 10.998046875 c 0
 522.666015625 -1.6689453125 500.999023438 -8.001953125 480.999023438 -8.001953125 c 0
 460.999023438 -8.001953125 445.666015625 -1.1689453125 434.999023438 12.498046875 c 0
 424.33203125 26.1650390625 417.999023438 43.33203125 415.999023438 63.9990234375 c 1
 407.999023438 64.9990234375 l 1
 357.999023438 34.33203125 319.166015625 14.1650390625 291.499023438 4.498046875 c 0
 263.83203125 -5.1689453125 237.999023438 -10.001953125 213.999023438 -10.001953125 c 0
 188.666015625 -10.001953125 168.666015625 -3.6689453125 153.999023438 8.998046875 c 0
 127.33203125 30.998046875 114.33203125 65.3310546875 114.999023438 111.998046875 c 2
 118.999023438 274.998046875 l 2
 118.999023438 330.998046875 117.33203125 363.998046875 113.999023438 373.998046875 c 0
 110.666015625 383.998046875 106.499023438 391.665039062 101.499023438 396.998046875 c 0
 96.4990234375 402.331054688 87.33203125 404.998046875 73.9990234375 404.998046875 c 0
 60.666015625 404.998046875 36.9990234375 394.998046875 2.9990234375 374.998046875 c 1
 -10.0009765625 394.998046875 l 1
 31.33203125 425.665039062 60.83203125 445.498046875 78.4990234375 454.498046875 c 0
 96.166015625 463.498046875 111.999023438 467.998046875 125.999023438 467.998046875 c 0
 151.33203125 467.998046875 168.33203125 460.998046875 176.999023438 446.998046875 c 0
 185.666015625 432.998046875 190.333007812 409.831054688 191 377.498046875 c 0
 191.666992188 345.165039062 192 306.33203125 192 260.999023438 c 0
 192 215.666015625 193.166992188 178.333007812 195.5 149 c 0
 197.833007812 119.666992188 205.166015625 96 217.499023438 78 c 0
 229.83203125 60 249.33203125 51 275.999023438 51 c 0
 302.666015625 51 327.333007812 56.8330078125 350 68.5 c 0
 372.666992188 80.1669921875 393.666992188 92 413 104 c 0
 413.666992188 104 414 147.333007812 414 234 c 2
 414 391.5 l 2
 414 409.833007812 413.666992188 424.333007812 413 435 c 1
 490 470 l 1
 503 459 l 1
 495 366.333007812 491 291.833007812 491 235.5 c 0
 491 179.166992188 491.666992188 142.166992188 493 124.5 c 0
 494.333007812 106.833007812 498.5 92.5 505.5 81.5 c 0
EndSplineSet
Validated: 33
PairPos2: "'kern' Horizontal Kerning in Arabic lookup 14 subtable" uni062D dx=-195 dy=0 dh=-195 dv=0 dx=0 dy=0 dh=0 dv=0
EndChar

StartChar: v
Encoding: 118 118 85
Width: 493
GlyphClass: 1
Flags: W
LayerCount: 2
Fore
SplineSet
-20 411 m 1
 34.6669921875 449.666992188 76.3330078125 468.998046875 105 468.998046875 c 0
 122.333007812 468.998046875 136 461.831054688 146 447.498046875 c 0
 156 433.165039062 164.833007812 412.83203125 172.5 386.499023438 c 0
 180.166992188 360.166015625 187.333984375 334.333007812 194.000976562 309 c 0
 200.66796875 283.666992188 206.66796875 259.166992188 212.000976562 235.5 c 0
 217.333984375 211.833007812 223.333984375 188.333007812 230.000976562 165 c 0
 245.333984375 109.666992188 257.333984375 82 266.000976562 82 c 0
 268.66796875 82 272.334960938 84.6669921875 277.001953125 90 c 0
 281.668945312 95.3330078125 289.3359375 104 300.002929688 116 c 0
 310.669921875 128 324.002929688 145.333007812 340.002929688 168 c 0
 378.014648438 221.084960938 397.020507812 268.37109375 397.020507812 309.859375 c 0
 397.020507812 327.26171875 393.014648438 344.641601562 385.002929688 361.999023438 c 0
 377.002929688 379.33203125 370.669921875 392.165039062 366.002929688 400.498046875 c 0
 361.3359375 408.831054688 359.002929688 414.331054688 359.002929688 416.998046875 c 0
 359.002929688 419.665039062 360.3359375 422.33203125 363.002929688 424.999023438 c 2
 413.002929688 459.999023438 l 2
 415.002929688 461.33203125 417.669921875 461.999023438 421.002929688 461.999023438 c 0
 430.3359375 461.999023438 440.3359375 452.666015625 451.002929688 433.999023438 c 0
 461.669921875 415.33203125 467.002929688 391.83203125 467.002929688 363.499023438 c 0
 467.002929688 335.83203125 461.3359375 309.33203125 450.002929688 283.999023438 c 0
 439.3359375 258.666015625 424.668945312 231.333007812 406.001953125 202 c 0
 372.668945312 148.666992188 321.668945312 87 253.001953125 17 c 2
 240.001953125 4 l 2
 231.334960938 -4.6669921875 225.66796875 -9.6669921875 223.000976562 -11 c 2
 199.000976562 -11 l 1
 130.000976562 247 l 2
 113.333984375 311.666992188 97.0009765625 358 81.0009765625 386 c 0
 72.333984375 400.666992188 62.6669921875 408 52 408 c 0
 34 408 13 401 -11 387 c 1
 -20 411 l 1
EndSplineSet
Validated: 1
PairPos2: "'kern' Horizontal Kerning in Arabic lookup 14 subtable" uni062D dx=-195 dy=0 dh=-195 dv=0 dx=0 dy=0 dh=0 dv=0
EndChar

StartChar: w
Encoding: 119 119 86
Width: 801
GlyphClass: 1
Flags: W
LayerCount: 2
Fore
SplineSet
72 412 m 0
 54 412 26.3349609375 401.672851562 -10.998046875 381.005859375 c 1
 -19.998046875 401.005859375 l 1
 23.3349609375 431.672851562 53.16796875 450.672851562 69.5009765625 458.005859375 c 0
 85.833984375 465.338867188 102.000976562 469.005859375 118.000976562 469.005859375 c 0
 118.86328125 469.044921875 119.71875 469.064453125 120.567382812 469.064453125 c 0
 134.149414062 469.064453125 145.959960938 464.044921875 155.999023438 454.005859375 c 0
 172.666015625 437.338867188 184.666015625 409.671875 191.999023438 371.004882812 c 0
 199.33203125 332.337890625 204.83203125 292.670898438 208.499023438 252.00390625 c 0
 212.166015625 211.336914062 216.333007812 170.669921875 221 130.002929688 c 1
 232 128.002929688 l 1
 298 246.002929688 353.333007812 350.3359375 398 441.002929688 c 1
 450 467.002929688 l 1
 462 464.002929688 l 1
 475.333007812 401.3359375 489.333007812 339.168945312 504 277.501953125 c 0
 518.666992188 215.834960938 537 155.334960938 559 96.001953125 c 0
 563 86.001953125 569 81.001953125 577 81.001953125 c 0
 582.333007812 81.001953125 587.333007812 84.3349609375 592 91.001953125 c 0
 639.333007812 149.001953125 670.166015625 193.668945312 684.499023438 225.001953125 c 0
 698.83203125 256.334960938 705.999023438 282.66796875 705.999023438 304.000976562 c 0
 705.999023438 336.66796875 693.33203125 374.000976562 667.999023438 416.000976562 c 0
 667.33203125 417.333984375 666.999023438 419.666992188 666.999023438 423 c 0
 666.999023438 426.333007812 667.666015625 428.333007812 668.999023438 429 c 2
 725.999023438 464 l 2
 726.666015625 464.666992188 728.666015625 465 731.999023438 465 c 0
 747.999023438 465 760.666015625 444.666992188 769.999023438 404 c 0
 773.427734375 390.857421875 775.141601562 380.408203125 775.141601562 372.653320312 c 0
 775.141601562 343.09375 769.260742188 315.375976562 757.499023438 289.5 c 0
 745.83203125 263.833007812 730.665039062 236 711.998046875 206 c 0
 675.331054688 146 624.998046875 81.6669921875 560.998046875 13 c 0
 546.998046875 -1 536.331054688 -8 528.998046875 -8 c 0
 521.665039062 -8 515.33203125 -5.6669921875 509.999023438 -1 c 0
 504.666015625 3.6669921875 500.666015625 10.1669921875 497.999023438 18.5 c 0
 495.33203125 26.8330078125 490.33203125 43.8330078125 482.999023438 69.5 c 0
 475.666015625 95.1669921875 467.666015625 124.333984375 458.999023438 157.000976562 c 0
 446.999023438 201.000976562 435.499023438 244.66796875 424.499023438 288.000976562 c 0
 413.499023438 331.333984375 407.33203125 354.166992188 405.999023438 356.5 c 0
 404.666015625 358.833007812 401.833007812 360 397.5 360 c 0
 393.166992188 360 390.333984375 358.333007812 389.000976562 355 c 0
 313.000976562 215 253.333984375 98.3330078125 210.000976562 5 c 1
 168.000976562 -8 l 1
 161.000976562 -2 l 1
 137.000976562 222 l 2
 124.333984375 335.333007812 106.666992188 397.333007812 84 408 c 0
 78.6669921875 410.666992188 74.6669921875 412 72 412 c 0
EndSplineSet
Validated: 1
PairPos2: "'kern' Horizontal Kerning in Arabic lookup 14 subtable" uni062D dx=-195 dy=0 dh=-195 dv=0 dx=0 dy=0 dh=0 dv=0
EndChar

StartChar: x
Encoding: 120 120 87
Width: 490
GlyphClass: 1
Flags: W
LayerCount: 2
Fore
SplineSet
-10 400 m 1
 44.6669921875 442.666992188 83.9990234375 463.999023438 107.999023438 463.999023438 c 0
 132.666015625 463.999023438 150.666015625 457.666015625 161.999023438 444.999023438 c 0
 171.999023438 434.999023438 187.33203125 411.999023438 207.999023438 375.999023438 c 0
 228.666015625 339.999023438 243.666015625 312.666015625 252.999023438 293.999023438 c 1
 258.999023438 292.999023438 l 1
 296.33203125 342.999023438 342.665039062 399.33203125 397.998046875 461.999023438 c 0
 398.665039062 463.33203125 400.498046875 463.999023438 403.498046875 463.999023438 c 0
 406.498046875 463.999023438 408.665039062 463.33203125 409.998046875 461.999023438 c 2
 440.998046875 432.999023438 l 2
 442.998046875 430.999023438 443.998046875 429.33203125 443.998046875 427.999023438 c 0
 443.998046875 426.666015625 442.998046875 425.333007812 440.998046875 424 c 0
 389.665039062 388.666992188 332.33203125 333.666992188 268.999023438 259 c 1
 329.666015625 128.333007812 377.666015625 63 412.999023438 63 c 0
 430.999023438 63 454.666015625 75.6669921875 483.999023438 101 c 1
 491.999023438 101 l 1
 499.999023438 82 l 1
 467.33203125 45.3330078125 441.33203125 20.5 421.999023438 7.5 c 0
 402.666015625 -5.5 385.999023438 -12 371.999023438 -12 c 0
 346.666015625 -12 323.499023438 5.6669921875 302.499023438 41 c 0
 281.499023438 76.3330078125 254.33203125 126.333007812 220.999023438 191 c 1
 213.999023438 191 l 1
 194.666015625 161 175.499023438 130 156.499023438 98 c 0
 137.499023438 66 120.33203125 30.6669921875 104.999023438 -8 c 1
 88.9990234375 -12 l 1
 60.9990234375 13 l 1
 60.9990234375 21 l 1
 96.9990234375 79.6669921875 144.33203125 147 202.999023438 223 c 1
 175.666015625 279.666992188 155.333007812 318.666992188 142 340 c 0
 114 384.666992188 89.3330078125 407 68 407 c 0
 51.3330078125 407 30 398.666992188 4 382 c 1
 -10 400 l 1
EndSplineSet
Validated: 1
PairPos2: "'kern' Horizontal Kerning in Arabic lookup 14 subtable" uni062D dx=-195 dy=0 dh=-195 dv=0 dx=0 dy=0 dh=0 dv=0
EndChar

StartChar: y
Encoding: 121 121 88
Width: 572
GlyphClass: 2
Flags: W
AnchorPoint: "Anchor-11" 277 0 basechar 0
AnchorPoint: "Anchor-10" 277 462 basechar 0
LayerCount: 2
Fore
SplineSet
413 108 m 1
 414.333007812 142.666992188 414.99609375 187.333984375 414.99609375 242.000976562 c 0
 414.99609375 296.66796875 412.329101562 358.66796875 406.99609375 428.000976562 c 1
 485.99609375 466.000976562 l 1
 497.99609375 462.000976562 l 1
 493.99609375 401.333984375 491.663085938 325.333984375 490.99609375 234.000976562 c 0
 490.329101562 142.66796875 489.162109375 78.66796875 487.495117188 42.0009765625 c 0
 485.828125 5.333984375 482.328125 -24.9990234375 476.995117188 -48.9990234375 c 0
 453.662109375 -130.999023438 405.995117188 -185.999023438 333.995117188 -213.999023438 c 0
 300.662109375 -226.666015625 269.329101562 -232.999023438 239.99609375 -232.999023438 c 0
 210.663085938 -232.999023438 183.99609375 -227.999023438 159.99609375 -217.999023438 c 0
 135.99609375 -207.999023438 117.329101562 -195.999023438 103.99609375 -181.999023438 c 1
 101.99609375 -170.999023438 l 1
 145.99609375 -114.999023438 l 1
 158.99609375 -114.999023438 l 1
 169.663085938 -133.666015625 183.99609375 -151.166015625 201.99609375 -167.499023438 c 0
 219.99609375 -183.83203125 241.329101562 -191.999023438 265.99609375 -191.999023438 c 0
 290.663085938 -191.999023438 311.663085938 -186.499023438 328.99609375 -175.499023438 c 0
 346.329101562 -164.499023438 359.99609375 -150.666015625 369.99609375 -133.999023438 c 0
 384.663085938 -109.33203125 394.830078125 -82.33203125 400.497070312 -52.9990234375 c 0
 406.1640625 -23.666015625 409.331054688 -0.8330078125 409.998046875 15.5 c 0
 410.665039062 31.8330078125 411.33203125 48 411.999023438 64 c 1
 405.999023438 69 l 1
 377.999023438 51.6669921875 347.666015625 34.5 314.999023438 17.5 c 0
 282.33203125 0.5 251.999023438 -8 223.999023438 -8 c 0
 195.999023438 -8 174.999023438 -2.6669921875 160.999023438 8 c 0
 146.999023438 18.6669921875 136.666015625 32.6669921875 129.999023438 50 c 0
 119.33203125 77.3330078125 113.999023438 113 113.999023438 157 c 2
 117.999023438 294 l 2
 117.999023438 330 115.499023438 358.333007812 110.499023438 379 c 0
 105.499023438 399.666992188 92.666015625 410 71.9990234375 410 c 0
 59.9990234375 410 36.33203125 400.666992188 0.9990234375 382 c 1
 -10.0009765625 401 l 1
 0.666015625 409 16.3330078125 419.333007812 37 432 c 0
 78.3330078125 456 109.333007812 468 130 468 c 0
 150.666992188 468 166.166992188 461 176.5 447 c 0
 186.833007812 433 192 416.666992188 192 398 c 2
 188 226 l 1
 190.666992188 168 194.666992188 131.333007812 200 116 c 0
 205.333007812 100 211.333007812 88 218 80 c 0
 230.666992188 64 250 56 276 56 c 0
 302 56 326.666992188 62 350 74 c 0
 373.333007812 86 394.333007812 97.3330078125 413 108 c 1
EndSplineSet
Validated: 1
PairPos2: "'kern' Horizontal Kerning in Arabic lookup 14 subtable" uni062D dx=-195 dy=0 dh=-195 dv=0 dx=0 dy=0 dh=0 dv=0
EndChar

StartChar: z
Encoding: 122 122 89
Width: 463
GlyphClass: 1
Flags: W
LayerCount: 2
Fore
SplineSet
270 439 m 0
 290.666992188 433.666992188 311.500976562 431.001953125 332.500976562 431.001953125 c 0
 353.500976562 431.001953125 376.66796875 441.334960938 402.000976562 462.001953125 c 1
 408.000976562 462.001953125 l 1
 422.000976562 449.001953125 l 1
 338.000976562 359.001953125 241.333984375 240.668945312 132.000976562 94.001953125 c 1
 137.000976562 86.001953125 l 1
 221.66796875 77.3349609375 290.000976562 73.001953125 342.000976562 73.001953125 c 0
 370.66796875 73.001953125 393.16796875 81.501953125 409.500976562 98.501953125 c 0
 425.833984375 115.501953125 439.666992188 133.001953125 451 151.001953125 c 1
 473 139.001953125 l 1
 432 59.001953125 l 2
 422 39.001953125 409.833007812 22.8349609375 395.5 10.501953125 c 0
 381.166992188 -1.8310546875 362.333984375 -7.998046875 339.000976562 -7.998046875 c 2
 334.000976562 -7.998046875 l 2
 331.333984375 -7.998046875 322.333984375 -7.3310546875 307.000976562 -5.998046875 c 0
 291.66796875 -4.6650390625 274.66796875 -2.83203125 256.000976562 -0.4990234375 c 0
 237.333984375 1.833984375 220.666992188 3.6669921875 206 5 c 2
 89 16 l 2
 67.6669921875 16 47 1.6669921875 27 -27 c 1
 21 -27 l 1
 6 -8 l 1
 301 373 l 1
 291.666992188 371.666992188 280.166992188 371 266.5 371 c 0
 252.833007812 371 234.666015625 374.166992188 211.999023438 380.5 c 0
 189.33203125 386.833007812 168.83203125 390 150.499023438 390 c 0
 132.166015625 390 116.666015625 383.5 103.999023438 370.5 c 0
 91.33203125 357.5 77.33203125 340.333007812 61.9990234375 319 c 1
 41.9990234375 332 l 1
 91.9990234375 421 l 2
 101.999023438 436.333007812 111.166015625 447 119.499023438 453 c 0
 127.83203125 459 139.999023438 462 155.999023438 462 c 0
 171.999023438 462 189.83203125 459.5 209.499023438 454.5 c 0
 229.166015625 449.5 249.333007812 444.333007812 270 439 c 0
EndSplineSet
Validated: 1
PairPos2: "'kern' Horizontal Kerning in Arabic lookup 14 subtable" uni062D dx=-195 dy=0 dh=-195 dv=0 dx=0 dy=0 dh=0 dv=0
EndChar

StartChar: braceleft
Encoding: 123 123 90
Width: 313
GlyphClass: 1
Flags: W
LayerCount: 2
Fore
SplineSet
303 -154 m 1
 302.999023438 -178.002929688 l 1
 243.666015625 -178.002929688 203.333007812 -175.3359375 182 -170.002929688 c 0
 160.666992188 -164.669921875 145.333984375 -152.169921875 136.000976562 -132.502929688 c 0
 126.66796875 -112.8359375 121.66796875 -88.5029296875 121.000976562 -59.5029296875 c 0
 120.333984375 -30.5029296875 120.000976562 -2.0029296875 120.000976562 25.9970703125 c 0
 120.000976562 53.9970703125 119.66796875 81.9970703125 119.000976562 109.997070312 c 0
 117.66796875 177.997070312 109.66796875 219.997070312 95.0009765625 235.997070312 c 0
 85.66796875 246.6640625 72.66796875 253.1640625 56.0009765625 255.497070312 c 0
 39.333984375 257.830078125 23.333984375 258.997070312 8.0009765625 258.997070312 c 1
 8.0009765625 284.997070312 l 1
 27.333984375 284.997070312 43.6669921875 285.997070312 57 287.997070312 c 0
 70.3330078125 289.997070312 82.3330078125 295.6640625 93 304.997070312 c 0
 103.666992188 314.330078125 110.666992188 329.497070312 114 350.497070312 c 0
 117.333007812 371.497070312 119 396.330078125 119 424.997070312 c 2
 119 509.997070312 l 2
 119 566.6640625 121.166992188 609.6640625 125.5 638.997070312 c 0
 129.833007812 668.330078125 138.333007812 689.497070312 151 702.497070312 c 0
 163.666992188 715.497070312 182.166992188 723.330078125 206.5 725.997070312 c 0
 230.833007812 728.6640625 263 729.997070312 303 729.997070312 c 1
 303 705.997070312 l 1
 266.333007812 705.997070312 239.5 703.830078125 222.5 699.497070312 c 0
 205.5 695.1640625 193.833007812 686.6640625 187.5 673.997070312 c 0
 181.166992188 661.330078125 176.666992188 645.997070312 174 627.997070312 c 0
 171.333007812 604.6640625 170 563.831054688 170 505.498046875 c 0
 170 447.165039062 163.833007812 396.83203125 151.5 354.499023438 c 0
 139.166992188 312.166015625 117 285.333007812 85 274 c 1
 85 273 l 1
 140.333007812 255 168.666015625 198 169.999023438 102 c 2
 169.999023438 13 l 2
 169.999023438 -21 172.33203125 -50.6669921875 176.999023438 -76 c 0
 181.666015625 -101.333007812 189.333007812 -119.5 200 -130.5 c 0
 210.666992188 -141.5 224.5 -148.166992188 241.5 -150.5 c 0
 258.5 -152.833007812 279 -154 303 -154 c 1
EndSplineSet
Validated: 1
PairPos2: "'kern' Horizontal Kerning in Arabic lookup 14 subtable" uni062D dx=-195 dy=0 dh=-195 dv=0 dx=0 dy=0 dh=0 dv=0
EndChar

StartChar: bar
Encoding: 124 124 91
Width: 216
GlyphClass: 1
Flags: W
LayerCount: 2
Fore
SplineSet
128 -159 m 1
 88 -167 l 1
 88 730 l 1
 128 738 l 1
 128 -159 l 1
EndSplineSet
Validated: 1
PairPos2: "'kern' Horizontal Kerning in Arabic lookup 14 subtable" uni062D dx=-195 dy=0 dh=-195 dv=0 dx=0 dy=0 dh=0 dv=0
EndChar

StartChar: braceright
Encoding: 125 125 92
Width: 313
GlyphClass: 1
Flags: W
LayerCount: 2
Fore
SplineSet
10 -175 m 1
 10.0009765625 -150.99609375 l 1
 46.0009765625 -150.99609375 71.833984375 -149.163085938 87.5009765625 -145.49609375 c 0
 103.16796875 -141.829101562 114.66796875 -133.99609375 122.000976562 -121.99609375 c 0
 130.000976562 -108.663085938 135.333984375 -93.330078125 138.000976562 -75.9970703125 c 0
 141.693359375 -56.3046875 143.5390625 -30.080078125 143.5390625 2.677734375 c 0
 143.5390625 5.4072265625 143.526367188 8.1826171875 143.500976562 11.0029296875 c 0
 143.333984375 29.3359375 143.250976562 46.1689453125 143.250976562 61.501953125 c 0
 143.250976562 76.8349609375 143.333984375 90.66796875 143.500976562 103.000976562 c 0
 143.833984375 127.66796875 146.333984375 151.66796875 151.000976562 175.000976562 c 0
 161.66796875 227.66796875 187.334960938 261.334960938 228.001953125 276.001953125 c 1
 228.001953125 277.001953125 l 1
 209.334960938 283.668945312 192.66796875 297.001953125 178.000976562 317.001953125 c 0
 155.333984375 349.001953125 144.000976562 408.334960938 144.000976562 495.001953125 c 2
 144.000976562 542.001953125 l 2
 144.000976562 623.334960938 133.333984375 672.66796875 112.000976562 690.000976562 c 0
 100.000976562 699.333984375 85.16796875 704.833984375 67.5009765625 706.500976562 c 0
 49.833984375 708.16796875 30.6669921875 709.000976562 10 709.000976562 c 1
 10 733.000976562 l 1
 49.3330078125 732.333984375 82.166015625 731.166992188 108.499023438 729.5 c 0
 134.83203125 727.833007812 153.999023438 719.333007812 165.999023438 704 c 0
 177.999023438 688.666992188 185.666015625 674.166992188 188.999023438 660.5 c 0
 192.33203125 646.833007812 193.999023438 629 193.999023438 607 c 2
 193.999023438 526 l 2
 193.999023438 472 194.83203125 429.833007812 196.499023438 399.5 c 0
 198.166015625 369.166992188 202.499023438 346 209.499023438 330 c 0
 216.499023438 314 227.499023438 303 242.499023438 297 c 0
 257.499023438 291 278.33203125 288 304.999023438 288 c 1
 304.999023438 262 l 1
 289.999023438 262 l 2
 279.999023438 262 265.999023438 260 247.999023438 256 c 0
 229.999023438 252 216.999023438 239 208.999023438 217 c 0
 200.999023438 195 196.33203125 168.166992188 194.999023438 136.5 c 0
 193.666015625 104.833007812 192.999023438 67 192.999023438 23 c 0
 192.999023438 -21 190.33203125 -57.5 184.999023438 -86.5 c 0
 179.666015625 -115.5 170.333007812 -136.333007812 157 -149 c 0
 143.666992188 -161.666992188 125.166992188 -169.166992188 101.5 -171.5 c 0
 77.8330078125 -173.833007812 47.3330078125 -175 10 -175 c 1
EndSplineSet
Validated: 1
PairPos2: "'kern' Horizontal Kerning in Arabic lookup 14 subtable" uni062D dx=-195 dy=0 dh=-195 dv=0 dx=0 dy=0 dh=0 dv=0
EndChar

StartChar: asciitilde
Encoding: 126 126 93
Width: 672
GlyphClass: 1
Flags: W
LayerCount: 2
Fore
SplineSet
342 291 m 2
 415.999023438 245 l 2
 445.33203125 227.666992188 469.999023438 219 489.999023438 219 c 0
 509.999023438 219 525.83203125 225.5 537.499023438 238.5 c 0
 549.166015625 251.5 559.999023438 267.333007812 569.999023438 286 c 1
 590.999023438 275 l 1
 580.999023438 251 566.666015625 228.833007812 547.999023438 208.5 c 0
 529.33203125 188.166992188 508.665039062 178 485.998046875 178 c 0
 448.665039062 178 411.33203125 190 373.999023438 214 c 2
 274.999023438 277 l 2
 244.33203125 295.666992188 218.33203125 305 196.999023438 305 c 0
 175.666015625 305 158.666015625 298.833007812 145.999023438 286.5 c 0
 133.33203125 274.166992188 119.665039062 254.666992188 104.998046875 228 c 1
 82.998046875 240 l 1
 97.6650390625 269.333007812 114.665039062 294.5 133.998046875 315.5 c 0
 153.331054688 336.5 175.831054688 347 201.498046875 347 c 0
 227.165039062 347 251.83203125 340.833007812 275.499023438 328.5 c 0
 299.166015625 316.166992188 321.333007812 303.666992188 342 291 c 2
EndSplineSet
Validated: 1
PairPos2: "'kern' Horizontal Kerning in Arabic lookup 14 subtable" uni062D dx=-195 dy=0 dh=-195 dv=0 dx=0 dy=0 dh=0 dv=0
EndChar

StartChar: exclamdown
Encoding: 161 161 95
Width: 216
GlyphClass: 1
Flags: W
LayerCount: 2
Fore
SplineSet
54 442 m 0
 54 457.333007812 59.6669921875 470.666015625 71 481.999023438 c 0
 82.3330078125 493.33203125 95.8330078125 498.999023438 111.5 498.999023438 c 0
 127.166992188 498.999023438 140.5 493.33203125 151.5 481.999023438 c 0
 162.5 470.666015625 168 457.333007812 168 442 c 0
 168 426.666992188 162.5 413.333984375 151.5 402.000976562 c 0
 140.5 390.66796875 127.166992188 385.000976562 111.5 385.000976562 c 0
 95.8330078125 385.000976562 82.3330078125 390.66796875 71 402.000976562 c 0
 59.6669921875 413.333984375 54 426.666992188 54 442 c 0
153 -156 m 0
 153 -186.666992188 140.666992188 -201.999023438 116 -201.999023438 c 0
 100 -201.999023438 87.6669921875 -197.499023438 79 -188.499023438 c 0
 70.3330078125 -179.499023438 66 -162.33203125 66 -136.999023438 c 0
 65.3330078125 -128.33203125 65.5 -118.83203125 66.5 -108.499023438 c 0
 67.5 -98.166015625 68.3330078125 -88.3330078125 69 -79 c 2
 96 304 l 1
 112 302 l 1
 148 -69 l 2
 151.333007812 -105.666992188 153 -134.666992188 153 -156 c 0
EndSplineSet
Validated: 1
PairPos2: "'kern' Horizontal Kerning in Arabic lookup 14 subtable" uni062D dx=-195 dy=0 dh=-195 dv=0 dx=0 dy=0 dh=0 dv=0
EndChar

StartChar: cent
Encoding: 162 162 96
Width: 461
GlyphClass: 1
Flags: W
LayerCount: 2
Fore
SplineSet
438 96 m 1
 375.333007812 35.3330078125 316.998046875 -0.9990234375 262.998046875 -12.9990234375 c 1
 262.998046875 -158.999023438 l 1
 222.998046875 -166.999023438 l 1
 222.998046875 -18.9990234375 l 1
 213.998046875 -18.9990234375 l 2
 140.665039062 -18.9990234375 91.33203125 8.0009765625 65.9990234375 62.0009765625 c 0
 48.9931640625 98.6298828125 40.490234375 148.25390625 40.490234375 210.874023438 c 0
 40.490234375 277.169921875 57.3271484375 332.87890625 91 378.000976562 c 0
 124.333007812 422.66796875 168.333007812 452.000976562 223 466.000976562 c 1
 223 634.000976562 l 1
 263 642.000976562 l 1
 263 473.000976562 l 1
 273 474.333984375 283.333007812 475.000976562 294 475.000976562 c 0
 326.666992188 475.000976562 353.5 465.833984375 374.5 447.500976562 c 0
 395.5 429.16796875 407.333007812 405.66796875 410 377.000976562 c 1
 356 324.000976562 l 1
 339 330.000976562 l 1
 335 361.333984375 326.166992188 386.166992188 312.5 404.5 c 0
 298.833007812 422.833007812 282.333007812 433 263 435 c 1
 263 47 l 1
 265 47 l 2
 313 47 364 70 418 116 c 1
 427 114 l 1
 438 96 l 1
134.998046875 324.500976562 m 0
 127.665039062 298.833984375 123.998046875 273.500976562 123.998046875 248.500976562 c 0
 123.998046875 223.500976562 126.665039062 197.333984375 131.998046875 170.000976562 c 0
 144.665039062 106.66796875 174.998046875 67.66796875 222.998046875 53.0009765625 c 1
 222.998046875 431.000976562 l 1
 201.665039062 424.333984375 183.498046875 411.333984375 168.498046875 392.000976562 c 0
 153.498046875 372.66796875 142.331054688 350.16796875 134.998046875 324.500976562 c 0
EndSplineSet
Validated: 1
PairPos2: "'kern' Horizontal Kerning in Arabic lookup 14 subtable" uni062D dx=-195 dy=0 dh=-195 dv=0 dx=0 dy=0 dh=0 dv=0
EndChar

StartChar: sterling
Encoding: 163 163 97
Width: 649
GlyphClass: 1
Flags: W
LayerCount: 2
Fore
SplineSet
454 312 m 1
 380.666992188 313.333007812 319.330078125 314.999023438 269.997070312 316.999023438 c 1
 267.997070312 312.33203125 265.330078125 303.999023438 261.997070312 291.999023438 c 0
 259.330078125 279.999023438 251.997070312 264.999023438 239.997070312 246.999023438 c 0
 215.997070312 211.666015625 191.997070312 187.999023438 167.997070312 175.999023438 c 1
 170.997070312 169.999023438 l 1
 214.997070312 169.999023438 252.997070312 160.999023438 284.997070312 142.999023438 c 2
 300.997070312 133.999023438 l 2
 336.997070312 109.999023438 379.997070312 91.9990234375 429.997070312 79.9990234375 c 0
 451.997070312 74.666015625 471.997070312 71.9990234375 489.997070312 71.9990234375 c 0
 507.997070312 71.9990234375 524.330078125 77.9990234375 538.997070312 89.9990234375 c 0
 568.997070312 114.666015625 583.997070312 151.333007812 583.997070312 200 c 0
 583.997070312 223.333007812 582.6640625 241.666015625 579.997070312 254.999023438 c 1
 603.997070312 259.999023438 l 1
 607.330078125 245.33203125 608.997070312 224.999023438 608.997070312 198.999023438 c 0
 608.997070312 172.999023438 606.497070312 146.499023438 601.497070312 119.499023438 c 0
 596.497070312 92.4990234375 585.497070312 70.166015625 568.497070312 52.4990234375 c 0
 551.497070312 34.83203125 535.830078125 20.4990234375 521.497070312 9.4990234375 c 0
 507.1640625 -1.5009765625 489.331054688 -7.0009765625 467.998046875 -7.0009765625 c 0
 397.998046875 -7.0009765625 339.331054688 12.33203125 291.998046875 50.9990234375 c 1
 226.665039062 93.666015625 178.665039062 114.999023438 147.998046875 114.999023438 c 0
 147.453125 115.008789062 146.91015625 115.013671875 146.369140625 115.013671875 c 0
 108.524414062 115.013671875 80.400390625 92.0087890625 61.9970703125 45.9990234375 c 0
 53.9970703125 27.33203125 47.330078125 9.9990234375 41.9970703125 -6.0009765625 c 1
 21.9970703125 10.9990234375 l 1
 24.6640625 42.9990234375 37.3310546875 77.9990234375 59.998046875 115.999023438 c 0
 71.3310546875 134.666015625 85.998046875 149.333007812 103.998046875 160 c 0
 121.998046875 170.666992188 137.331054688 182.333984375 149.998046875 195.000976562 c 0
 170.665039062 215.66796875 187.998046875 256.000976562 201.998046875 316.000976562 c 1
 184.665039062 315.333984375 167.165039062 314.833984375 149.498046875 314.500976562 c 0
 131.831054688 314.16796875 113.998046875 313.66796875 95.998046875 313.000976562 c 1
 103.998046875 358.000976562 l 1
 148.665039062 356.66796875 183.998046875 355.000976562 209.998046875 353.000976562 c 1
 213.331054688 370.333984375 215.998046875 387.000976562 217.998046875 403.000976562 c 0
 229.331054688 489.66796875 254.831054688 558.334960938 294.498046875 609.001953125 c 0
 334.165039062 659.668945312 389.33203125 685.001953125 459.999023438 685.001953125 c 0
 485.33203125 685.001953125 508.499023438 678.834960938 529.499023438 666.501953125 c 0
 550.499023438 654.168945312 560.999023438 636.168945312 560.999023438 612.501953125 c 0
 560.999023438 588.834960938 557.166015625 572.501953125 549.499023438 563.501953125 c 0
 541.83203125 554.501953125 533.999023438 549.334960938 525.999023438 548.001953125 c 2
 514.999023438 546.001953125 l 2
 503.666015625 546.001953125 494.833007812 548.668945312 488.5 554.001953125 c 0
 482.166992188 559.334960938 479 570.66796875 479 588.000976562 c 0
 479 605.333984375 472.833007812 620.166992188 460.5 632.5 c 0
 448.166992188 644.833007812 431 651 409 651 c 0
 387 651 368.5 642 353.5 624 c 0
 338.5 606 327.166992188 582.333007812 319.5 553 c 0
 311.833007812 523.666992188 305.333007812 491.5 300 456.5 c 0
 294.666992188 421.5 288 387.333007812 280 354 c 1
 458 360 l 1
 454 312 l 1
EndSplineSet
Validated: 1
PairPos2: "'kern' Horizontal Kerning in Arabic lookup 14 subtable" uni062D dx=-195 dy=0 dh=-195 dv=0 dx=0 dy=0 dh=0 dv=0
EndChar

StartChar: currency
Encoding: 164 164 98
Width: 590
GlyphClass: 1
Flags: W
LayerCount: 2
Fore
SplineSet
124 190 m 1
 96 226.666992188 81.998046875 268.66796875 81.998046875 316.000976562 c 0
 81.998046875 363.333984375 95.998046875 403.000976562 123.998046875 435.000976562 c 1
 74.998046875 484.000976562 l 1
 121.998046875 531.000976562 l 1
 169.998046875 483.000976562 l 1
 205.998046875 510.333984375 247.331054688 524.000976562 293.998046875 524.000976562 c 0
 340.665039062 524.000976562 382.665039062 510.333984375 419.998046875 483.000976562 c 1
 467.998046875 531.000976562 l 1
 514.998046875 484.000976562 l 1
 465.998046875 435.000976562 l 1
 493.998046875 404.333984375 507.998046875 364.666992188 507.998046875 316 c 0
 507.998046875 267.333007812 493.998046875 225.333007812 465.998046875 190 c 1
 514.998046875 141 l 1
 469.998046875 96 l 1
 421.998046875 144 l 1
 386.665039062 116 344.33203125 102 294.999023438 102 c 0
 245.666015625 102 203.333007812 116 168 144 c 1
 120 96 l 1
 75 141 l 1
 124 190 l 1
372.998046875 444.000976562 m 0
 350.331054688 458.000976562 324.999023438 465.001953125 296.999023438 465.001953125 c 0
 268.999023438 465.001953125 242.999023438 458.168945312 218.999023438 444.501953125 c 0
 194.999023438 430.834960938 175.999023438 412.66796875 161.999023438 390.000976562 c 0
 147.999023438 367.333984375 140.999023438 342.000976562 140.999023438 314.000976562 c 0
 140.999023438 286.000976562 147.999023438 260.333984375 161.999023438 237.000976562 c 0
 175.999023438 213.66796875 194.666015625 195.16796875 217.999023438 181.500976562 c 0
 241.33203125 167.833984375 267.165039062 161.000976562 295.498046875 161.000976562 c 0
 323.831054688 161.000976562 349.498046875 167.833984375 372.498046875 181.500976562 c 0
 395.498046875 195.16796875 413.998046875 213.500976562 427.998046875 236.500976562 c 0
 441.998046875 259.500976562 448.998046875 284.833984375 448.998046875 312.500976562 c 0
 448.998046875 340.16796875 441.998046875 365.500976562 427.998046875 388.500976562 c 0
 413.998046875 411.500976562 395.665039062 430.000976562 372.998046875 444.000976562 c 0
EndSplineSet
Validated: 1
PairPos2: "'kern' Horizontal Kerning in Arabic lookup 14 subtable" uni062D dx=-195 dy=0 dh=-195 dv=0 dx=0 dy=0 dh=0 dv=0
EndChar

StartChar: yen
Encoding: 165 165 99
Width: 623
GlyphClass: 1
Flags: W
LayerCount: 2
Fore
SplineSet
247 -2 m 1
 249 98 249.997070312 164.334960938 249.997070312 197.001953125 c 1
 93.9970703125 197.001953125 l 1
 100.997070312 237.001953125 l 1
 249.997070312 237.001953125 l 1
 249.997070312 299.001953125 l 1
 234.997070312 329.001953125 l 1
 91.9970703125 329.001953125 l 1
 98.9970703125 369.001953125 l 1
 214.997070312 369.001953125 l 1
 100.997070312 594.001953125 l 2
 89.6640625 616.668945312 77.4970703125 631.168945312 64.4970703125 637.501953125 c 0
 51.4970703125 643.834960938 34.9970703125 648.334960938 14.9970703125 651.001953125 c 1
 14.9970703125 679.001953125 l 1
 21.9970703125 686.001953125 l 1
 166.997070312 686.001953125 l 1
 307.997070312 361.001953125 l 1
 311.997070312 357.001953125 l 2
 314.6640625 354.334960938 317.331054688 353.001953125 319.998046875 353.001953125 c 0
 322.665039062 352.334960938 327.33203125 357.334960938 333.999023438 368.001953125 c 0
 349.999023438 390.668945312 363.83203125 412.501953125 375.499023438 433.501953125 c 0
 387.166015625 454.501953125 397.999023438 473.668945312 407.999023438 491.001953125 c 0
 418.666015625 508.334960938 430.666015625 528.66796875 443.999023438 552.000976562 c 0
 470.666015625 597.333984375 495.333007812 638.666992188 518 676 c 1
 603 693 l 1
 607 675 l 1
 499 534.333007812 423.666992188 432.333007812 381 369 c 1
 512 369 l 1
 506 329 l 1
 354 329 l 1
 349.333007812 321.666992188 344.333007812 314 339 306 c 1
 341 237 l 1
 514 237 l 1
 508 197 l 1
 342 197 l 1
 348 18 l 1
 258 -11 l 1
 247 -2 l 1
EndSplineSet
Validated: 1
PairPos2: "'kern' Horizontal Kerning in Arabic lookup 14 subtable" uni062D dx=-195 dy=0 dh=-195 dv=0 dx=0 dy=0 dh=0 dv=0
EndChar

StartChar: brokenbar
Encoding: 166 166 100
Width: 208
GlyphClass: 1
Flags: W
LayerCount: 2
Fore
SplineSet
124 335 m 1
 84 327 l 1
 84 730 l 1
 124 738 l 1
 124 335 l 1
124 -159 m 1
 84 -167 l 1
 84 236 l 1
 124 244 l 1
 124 -159 l 1
EndSplineSet
Validated: 1
PairPos2: "'kern' Horizontal Kerning in Arabic lookup 14 subtable" uni062D dx=-195 dy=0 dh=-195 dv=0 dx=0 dy=0 dh=0 dv=0
EndChar

StartChar: section
Encoding: 167 167 101
Width: 465
GlyphClass: 1
Flags: W
LayerCount: 2
Fore
SplineSet
378 149 m 1
 390 129.666992188 396.000976562 104.334960938 396.000976562 73.001953125 c 0
 396.000976562 41.6689453125 387.833984375 12.1689453125 371.500976562 -15.498046875 c 0
 355.16796875 -43.1650390625 333.500976562 -65.33203125 306.500976562 -81.9990234375 c 0
 279.500976562 -98.666015625 251.000976562 -106.999023438 221.000976562 -106.999023438 c 0
 191.000976562 -106.999023438 162.66796875 -102.999023438 136.000976562 -94.9990234375 c 0
 109.333984375 -86.9990234375 86.6669921875 -73.4990234375 68 -54.4990234375 c 0
 49.3330078125 -35.4990234375 38.3330078125 -9.666015625 35 23.0009765625 c 1
 105 50.0009765625 l 1
 113 45.0009765625 l 1
 114.333007812 11.0009765625 125.5 -18.4990234375 146.5 -43.4990234375 c 0
 167.5 -68.4990234375 195.666992188 -80.9990234375 231 -80.9990234375 c 0
 251.666992188 -80.9990234375 269.833984375 -74.9990234375 285.500976562 -62.9990234375 c 0
 301.16796875 -50.9990234375 313.500976562 -35.166015625 322.500976562 -15.4990234375 c 0
 331.500976562 4.16796875 336.000976562 24.8349609375 336.000976562 46.501953125 c 0
 336.000976562 68.1689453125 329.833984375 86.001953125 317.500976562 100.001953125 c 0
 305.16796875 114.001953125 288.334960938 126.834960938 267.001953125 138.501953125 c 0
 245.668945312 150.168945312 221.001953125 162.668945312 193.001953125 176.001953125 c 0
 164.334960938 189.334960938 139.334960938 202.66796875 118.001953125 216.000976562 c 0
 72.6689453125 245.333984375 50.001953125 286.000976562 50.001953125 338.000976562 c 0
 50.001953125 374.66796875 66.001953125 416.66796875 98.001953125 464.000976562 c 1
 91.3349609375 489.333984375 88.001953125 514.000976562 88.001953125 538.000976562 c 0
 88.001953125 562.000976562 95.001953125 587.16796875 109.001953125 613.500976562 c 0
 123.001953125 639.833984375 142.834960938 661.000976562 168.501953125 677.000976562 c 0
 194.168945312 693.000976562 224.001953125 701.000976562 258.001953125 701.000976562 c 0
 299.334960938 701.000976562 332.001953125 690.66796875 356.001953125 670.000976562 c 0
 369.334960938 658.66796875 376.001953125 642.66796875 376.001953125 622.000976562 c 0
 376.001953125 615.333984375 374.001953125 603.000976562 370.001953125 585.000976562 c 1
 311.001953125 564.000976562 l 1
 296.001953125 575.000976562 l 1
 296.001953125 605.000976562 290.168945312 628.500976562 278.501953125 645.500976562 c 0
 266.834960938 662.500976562 249.16796875 671.000976562 225.500976562 671.000976562 c 0
 201.833984375 671.000976562 182.500976562 660.000976562 167.500976562 638.000976562 c 0
 152.500976562 616.000976562 145.000976562 591.500976562 145.000976562 564.500976562 c 0
 145.000976562 537.500976562 151.000976562 517.16796875 163.000976562 503.500976562 c 0
 175.000976562 489.833984375 191.333984375 478.000976562 212.000976562 468.000976562 c 0
 232.66796875 458.000976562 253.16796875 447.16796875 273.500976562 435.500976562 c 0
 293.833984375 423.833984375 312.666992188 413.666992188 330 405 c 0
 347.333007812 396.333007812 363.333007812 386.666015625 378 375.999023438 c 0
 412.666992188 352.666015625 430 322.333007812 430 285 c 0
 430 233 412.666992188 187.666992188 378 149 c 1
113.000976562 442.000976562 m 1
 97.0009765625 421.333984375 89.001953125 399.331054688 89.001953125 375.998046875 c 0
 89.001953125 352.665039062 96.3349609375 332.83203125 111.001953125 316.499023438 c 0
 125.668945312 300.166015625 144.501953125 285.499023438 167.501953125 272.499023438 c 0
 190.501953125 259.499023438 214.668945312 247.499023438 240.001953125 236.499023438 c 0
 265.334960938 225.499023438 289.16796875 214.33203125 311.500976562 202.999023438 c 0
 333.833984375 191.666015625 351.333984375 179.333007812 364.000976562 166 c 1
 378.000976562 184.666992188 385.000976562 204 385.000976562 224 c 0
 385.000976562 244 381.500976562 260 374.500976562 272 c 0
 367.500976562 284 358.333984375 295.833007812 347.000976562 307.5 c 0
 335.66796875 319.166992188 319.000976562 330.333984375 297.000976562 341.000976562 c 0
 275.000976562 351.66796875 251.833984375 362.16796875 227.500976562 372.500976562 c 0
 203.16796875 382.833984375 180.500976562 393.500976562 159.500976562 404.500976562 c 0
 138.500976562 415.500976562 123.000976562 428.000976562 113.000976562 442.000976562 c 1
EndSplineSet
Validated: 1
PairPos2: "'kern' Horizontal Kerning in Arabic lookup 14 subtable" uni062D dx=-195 dy=0 dh=-195 dv=0 dx=0 dy=0 dh=0 dv=0
EndChar

StartChar: dieresis
Encoding: 168 168 102
Width: 520
GlyphClass: 1
Flags: W
LayerCount: 2
Fore
SplineSet
406 635.5 m 0
 415.01171875 624.235351562 419.517578125 610.951171875 419.517578125 595.647460938 c 0
 419.517578125 578.854492188 413.51171875 565.138671875 401.5 554.5 c 0
 389.833007812 544.166992188 376 539 360 539 c 0
 344 539 330.333007812 544.666992188 319 556 c 0
 307.666992188 567.333007812 302 581.333007812 302 598 c 0
 302 614.666992188 309 628 323 638 c 0
 337 648 352 653 368 653 c 0
 384 653 396.666992188 647.166992188 406 635.5 c 0
204 635.5 m 0
 213.01171875 624.235351562 217.517578125 610.951171875 217.517578125 595.647460938 c 0
 217.517578125 578.854492188 211.51171875 565.138671875 199.5 554.5 c 0
 187.833007812 544.166992188 174 539 158 539 c 0
 142 539 128.333007812 544.666992188 117 556 c 0
 105.666992188 567.333007812 100 581.333007812 100 598 c 0
 100 614.666992188 107 628 121 638 c 0
 135 648 150 653 166 653 c 0
 182 653 194.666992188 647.166992188 204 635.5 c 0
EndSplineSet
Validated: 1
PairPos2: "'kern' Horizontal Kerning in Arabic lookup 14 subtable" uni062D dx=-195 dy=0 dh=-195 dv=0 dx=0 dy=0 dh=0 dv=0
EndChar

StartChar: copyright
Encoding: 169 169 103
Width: 632
GlyphClass: 1
Flags: W
LayerCount: 2
Fore
SplineSet
45 437 m 0
 45 474.333007812 52 509.5 66 542.5 c 0
 80 575.5 99.3330078125 604.333007812 124 629 c 0
 148.666992188 653.666992188 177.5 673 210.5 687 c 0
 243.5 701 278.666992188 708 316 708 c 0
 353.333007812 708 388.5 701 421.5 687 c 0
 454.5 673 483.333007812 653.666992188 508 629 c 0
 532.666992188 604.333007812 552 575.5 566 542.5 c 0
 580 509.5 587 474.333007812 587 437 c 0
 587 399.666992188 580 364.5 566 331.5 c 0
 552 298.5 532.666992188 269.666992188 508 245 c 0
 483.333007812 220.333007812 454.5 201 421.5 187 c 0
 388.5 173 353.333007812 166 316 166 c 0
 278.666992188 166 243.5 173 210.5 187 c 0
 177.5 201 148.666992188 220.333007812 124 245 c 0
 99.3330078125 269.666992188 80 298.5 66 331.5 c 0
 52 364.5 45 399.666992188 45 437 c 0
70 437 m 0
 70 391.666992188 81 350.333984375 103 313.000976562 c 0
 125 275.66796875 154.666992188 246.000976562 192 224.000976562 c 0
 229.333007812 202.000976562 270.666015625 191.000976562 315.999023438 191.000976562 c 0
 361.33203125 191.000976562 402.665039062 202.000976562 439.998046875 224.000976562 c 0
 477.331054688 246.000976562 506.998046875 275.66796875 528.998046875 313.000976562 c 0
 550.998046875 350.333984375 561.998046875 391.666992188 561.998046875 437 c 0
 561.998046875 482.333007812 550.998046875 523.666015625 528.998046875 560.999023438 c 0
 506.998046875 598.33203125 477.331054688 627.999023438 439.998046875 649.999023438 c 0
 402.665039062 671.999023438 361.33203125 682.999023438 315.999023438 682.999023438 c 0
 270.666015625 682.999023438 229.333007812 671.999023438 192 649.999023438 c 0
 154.666992188 627.999023438 125 598.33203125 103 560.999023438 c 0
 81 523.666015625 70 482.333007812 70 437 c 0
464 308 m 1
 409.333007812 277.333007812 361.670898438 261.999023438 321.00390625 261.999023438 c 0
 265.00390625 261.999023438 221.336914062 274.666015625 190.00390625 299.999023438 c 0
 151.336914062 332.666015625 132.00390625 376.999023438 132.00390625 432.999023438 c 0
 132.00390625 521.666015625 176.00390625 579.333007812 264.00390625 606 c 0
 292.326171875 615.01171875 320.181640625 619.517578125 347.571289062 619.517578125 c 0
 348.549804688 619.517578125 349.52734375 619.51171875 350.50390625 619.5 c 0
 378.836914062 619.166992188 404.169921875 615 426.502929688 607 c 0
 448.8359375 599 467.668945312 584.333007812 483.001953125 563 c 1
 449.001953125 534 l 1
 441.001953125 534 l 1
 421.668945312 577.333007812 385.668945312 599 333.001953125 599 c 0
 292.334960938 599 259.001953125 588 233.001953125 566 c 0
 201.668945312 539.333007812 186.001953125 498 186.001953125 442 c 0
 186.001953125 419.333007812 191.501953125 397 202.501953125 375 c 0
 213.501953125 353 225.668945312 336.5 239.001953125 325.5 c 0
 252.334960938 314.5 266.66796875 305.5 282.000976562 298.5 c 0
 297.333984375 291.5 319.666992188 288 349 288 c 0
 378.333007812 288 413.333007812 299.333007812 454 322 c 1
 464 308 l 1
EndSplineSet
Validated: 1
PairPos2: "'kern' Horizontal Kerning in Arabic lookup 14 subtable" uni062D dx=-195 dy=0 dh=-195 dv=0 dx=0 dy=0 dh=0 dv=0
EndChar

StartChar: ordfeminine
Encoding: 170 170 104
Width: 366
GlyphClass: 1
Flags: W
LayerCount: 2
Fore
SplineSet
90 546.5 m 0
 116 564.166992188 146.331054688 572.998046875 180.998046875 572.998046875 c 0
 215.665039062 572.998046875 244.998046875 565.331054688 268.998046875 549.998046875 c 1
 307.998046875 569.998046875 l 1
 311.998046875 566.998046875 l 1
 308.665039062 506.998046875 306.998046875 467.831054688 306.998046875 449.498046875 c 0
 306.998046875 431.165039062 307.331054688 407.33203125 307.998046875 377.999023438 c 0
 308.665039062 348.666015625 310.33203125 328.999023438 312.999023438 318.999023438 c 0
 315.666015625 308.999023438 322.166015625 303.999023438 332.499023438 303.999023438 c 0
 342.83203125 303.999023438 359.999023438 307.999023438 383.999023438 315.999023438 c 1
 388.999023438 299.999023438 l 1
 342.33203125 274.666015625 311.999023438 261.999023438 297.999023438 261.999023438 c 0
 274.666015625 261.999023438 260.333007812 274.999023438 255 300.999023438 c 1
 244 302.999023438 l 1
 198 275.666015625 159.833007812 261.999023438 129.5 261.999023438 c 0
 99.1669921875 261.999023438 76 268.666015625 60 281.999023438 c 0
 30 307.33203125 15 343.665039062 15 390.998046875 c 0
 15 421.665039062 21 450.83203125 33 478.499023438 c 0
 45 506.166015625 64 528.833007812 90 546.5 c 0
180.998046875 304.998046875 m 0
 198.331054688 304.998046875 222.330078125 314.663085938 252.997070312 333.99609375 c 1
 252.997070312 483.99609375 l 2
 252.997070312 506.663085938 249.330078125 521.330078125 241.997070312 527.997070312 c 0
 225.997070312 542.6640625 206.997070312 549.997070312 184.997070312 549.997070312 c 0
 162.997070312 549.997070312 141.6640625 541.6640625 120.997070312 524.997070312 c 0
 112.330078125 518.330078125 103.830078125 505.830078125 95.4970703125 487.497070312 c 0
 87.1640625 469.1640625 82.6640625 443.331054688 81.9970703125 409.998046875 c 2
 81.9970703125 398.998046875 l 2
 81.9970703125 373.665039062 88.830078125 351.665039062 102.497070312 332.998046875 c 0
 116.1640625 314.331054688 142.331054688 304.998046875 180.998046875 304.998046875 c 0
EndSplineSet
Validated: 1
PairPos2: "'kern' Horizontal Kerning in Arabic lookup 14 subtable" uni062D dx=-195 dy=0 dh=-195 dv=0 dx=0 dy=0 dh=0 dv=0
EndChar

StartChar: guillemotleft
Encoding: 171 171 105
Width: 416
GlyphClass: 1
Flags: W
LayerCount: 2
Fore
SplineSet
164 238 m 1
 356 426 l 1
 387 380 l 1
 238 234 l 1
 388 64 l 1
 374 36 l 1
 164 238 l 1
12 238 m 1
 204 426 l 1
 235 380 l 1
 86 234 l 1
 236 64 l 1
 222 36 l 1
 12 238 l 1
EndSplineSet
Validated: 1
PairPos2: "'kern' Horizontal Kerning in Arabic lookup 14 subtable" uni062D dx=-195 dy=0 dh=-195 dv=0 dx=0 dy=0 dh=0 dv=0
EndChar

StartChar: logicalnot
Encoding: 172 172 106
Width: 777
GlyphClass: 1
Flags: W
LayerCount: 2
Fore
SplineSet
660 409 m 1
 660 206 l 1
 620 206 l 1
 620 369 l 1
 57 369 l 1
 57 409 l 1
 660 409 l 1
EndSplineSet
Validated: 1
PairPos2: "'kern' Horizontal Kerning in Arabic lookup 14 subtable" uni062D dx=-195 dy=0 dh=-195 dv=0 dx=0 dy=0 dh=0 dv=0
EndChar

StartChar: registered
Encoding: 174 174 108
Width: 632
GlyphClass: 1
Flags: W
LayerCount: 2
Fore
SplineSet
45 437 m 0
 45 474.333007812 52 509.5 66 542.5 c 0
 80 575.5 99.3330078125 604.333007812 124 629 c 0
 148.666992188 653.666992188 177.5 673 210.5 687 c 0
 243.5 701 278.666992188 708 316 708 c 0
 353.333007812 708 388.5 701 421.5 687 c 0
 454.5 673 483.333007812 653.666992188 508 629 c 0
 532.666992188 604.333007812 552 575.5 566 542.5 c 0
 580 509.5 587 474.333007812 587 437 c 0
 587 399.666992188 580 364.5 566 331.5 c 0
 552 298.5 532.666992188 269.666992188 508 245 c 0
 483.333007812 220.333007812 454.5 201 421.5 187 c 0
 388.5 173 353.333007812 166 316 166 c 0
 278.666992188 166 243.5 173 210.5 187 c 0
 177.5 201 148.666992188 220.333007812 124 245 c 0
 99.3330078125 269.666992188 80 298.5 66 331.5 c 0
 52 364.5 45 399.666992188 45 437 c 0
70 437 m 0
 70 391.666992188 81 350.333984375 103 313.000976562 c 0
 125 275.66796875 154.666992188 246.000976562 192 224.000976562 c 0
 229.333007812 202.000976562 270.666015625 191.000976562 315.999023438 191.000976562 c 0
 361.33203125 191.000976562 402.665039062 202.000976562 439.998046875 224.000976562 c 0
 477.331054688 246.000976562 506.998046875 275.66796875 528.998046875 313.000976562 c 0
 550.998046875 350.333984375 561.998046875 391.666992188 561.998046875 437 c 0
 561.998046875 482.333007812 550.998046875 523.666015625 528.998046875 560.999023438 c 0
 506.998046875 598.33203125 477.331054688 627.999023438 439.998046875 649.999023438 c 0
 402.665039062 671.999023438 361.33203125 682.999023438 315.999023438 682.999023438 c 0
 270.666015625 682.999023438 229.333007812 671.999023438 192 649.999023438 c 0
 154.666992188 627.999023438 125 598.33203125 103 560.999023438 c 0
 81 523.666015625 70 482.333007812 70 437 c 0
210 272 m 1
 213.333007812 317.333007812 215.000976562 365.000976562 215.000976562 415.000976562 c 0
 215.000976562 465.000976562 214.333984375 518.66796875 213.000976562 576.000976562 c 0
 213.000976562 585.333984375 202.333984375 592.000976562 181.000976562 596.000976562 c 0
 173.66796875 597.333984375 169.000976562 598.000976562 167.000976562 598.000976562 c 1
 168.000976562 606.000976562 l 1
 172.000976562 610.000976562 l 1
 334.000976562 610.000976562 l 2
 369.333984375 610.000976562 398.500976562 604.333984375 421.500976562 593.000976562 c 0
 444.500976562 581.66796875 456.000976562 564.000976562 456.000976562 540.000976562 c 0
 456.000976562 505.333984375 443.500976562 480.166992188 418.500976562 464.5 c 0
 393.500976562 448.833007812 363.000976562 439.333007812 327.000976562 436 c 1
 326.000976562 432 l 1
 484.000976562 284 l 1
 484.000976562 279 l 1
 424.000976562 266 l 1
 405.333984375 286 385.666992188 307.333007812 365 330 c 0
 315.666992188 383.333007812 287.666992188 412.333007812 281 417 c 0
 273 423 267 426 263 426 c 1
 263 366 264 318 266 282 c 1
 216 267 l 1
 210 272 l 1
266.000976562 577.000976562 m 0
 263.333984375 545.000976562 262 504.333984375 262 455.000976562 c 0
 262 450.333984375 264 448.000976562 268 448.000976562 c 0
 318 448.000976562 355 460.000976562 379 484.000976562 c 0
 391.666992188 496.000976562 398 511.333984375 398 530.000976562 c 0
 398 548.66796875 392.666992188 562.000976562 382 570.000976562 c 0
 364.666992188 583.333984375 336.333984375 590.000976562 297.000976562 590.000976562 c 2
 273.000976562 590.000976562 l 2
 268.333984375 590.000976562 266.000976562 585.66796875 266.000976562 577.000976562 c 0
EndSplineSet
Validated: 1
PairPos2: "'kern' Horizontal Kerning in Arabic lookup 14 subtable" uni062D dx=-195 dy=0 dh=-195 dv=0 dx=0 dy=0 dh=0 dv=0
EndChar

